<svg xmlns="http://www.w3.org/2000/svg" xmlns:xlink="http://www.w3.org/1999/xlink" version="1.1" class="marks" width="846" height="687" viewBox="0 0 846 687"><rect width="846" height="687" fill="white"/><g fill="none" stroke-miterlimit="10" transform="translate(41,36)"><g class="mark-group role-frame root" role="graphics-object" aria-roledescription="group mark container"><g transform="translate(0,0)"><path class="background" aria-hidden="true" d="M0.5,0.5h800v600h-800Z" stroke="#ddd"/><g><g class="mark-group role-axis" role="graphics-symbol" aria-roledescription="axis" aria-label="X-axis titled 'Implementation' for a discrete scale with 8 values: c_uuid_v7&#xA;0.0.5.dev10+g59a045439, uuid_utils&#xA;0.14.1, fastuuid&#xA;0.14.0, UUIDv7gen&#xA;1.0.3, lastuuid&#xA;0.5.0, ending with uuid_v7&#xA;1.0.0"><g transform="translate(0.5,600.5)"><path class="background" aria-hidden="true" d="M0,0h0v0h0Z" pointer-events="none"/><g><g class="mark-rule role-axis-tick" pointer-events="none"><line transform="translate(50,0)" x2="0" y2="5" stroke="#888" stroke-width="1" opacity="1"/><line transform="translate(150,0)" x2="0" y2="5" stroke="#888" stroke-width="1" opacity="1"/><line transform="translate(250,0)" x2="0" y2="5" stroke="#888" stroke-width="1" opacity="1"/><line transform="translate(350,0)" x2="0" y2="5" stroke="#888" stroke-width="1" opacity="1"/><line transform="translate(450,0)" x2="0" y2="5" stroke="#888" stroke-width="1" opacity="1"/><line transform="translate(550,0)" x2="0" y2="5" stroke="#888" stroke-width="1" opacity="1"/><line transform="translate(650,0)" x2="0" y2="5" stroke="#888" stroke-width="1" opacity="1"/><line transform="translate(750,0)" x2="0" y2="5" stroke="#888" stroke-width="1" opacity="1"/></g><g class="mark-text role-axis-label" pointer-events="none"><text text-anchor="middle" transform="translate(49.5,15)" font-family="sans-serif" font-size="10px" fill="#000" opacity="1"><tspan>c_uuid_v7</tspan><tspan x="0" dy="14">0.0.5.dev10+g59a045439</tspan></text><text text-anchor="middle" transform="translate(149.5,15)" font-family="sans-serif" font-size="10px" fill="#000" opacity="1"><tspan>uuid_utils</tspan><tspan x="0" dy="14">0.14.1</tspan></text><text text-anchor="middle" transform="translate(249.5,15)" font-family="sans-serif" font-size="10px" fill="#000" opacity="1"><tspan>fastuuid</tspan><tspan x="0" dy="14">0.14.0</tspan></text><text text-anchor="middle" transform="translate(349.5,15)" font-family="sans-serif" font-size="10px" fill="#000" opacity="1"><tspan>UUIDv7gen</tspan><tspan x="0" dy="14">1.0.3</tspan></text><text text-anchor="middle" transform="translate(449.5,15)" font-family="sans-serif" font-size="10px" fill="#000" opacity="1"><tspan>lastuuid</tspan><tspan x="0" dy="14">0.5.0</tspan></text><text text-anchor="middle" transform="translate(549.5,15)" font-family="sans-serif" font-size="10px" fill="#000" opacity="1"><tspan>uuid</tspan><tspan x="0" dy="14">stdlib</tspan></text><text text-anchor="middle" transform="translate(649.5,15)" font-family="sans-serif" font-size="10px" fill="#000" opacity="1"><tspan>uuid6</tspan><tspan x="0" dy="14">2025.0.1</tspan></text><text text-anchor="middle" transform="translate(749.5,15)" font-family="sans-serif" font-size="10px" fill="#000" opacity="1"><tspan>uuid_v7</tspan><tspan x="0" dy="14">1.0.0</tspan></text></g><g class="mark-rule role-axis-domain" pointer-events="none"><line transform="translate(0,0)" x2="800" y2="0" stroke="#888" stroke-width="1" opacity="1"/></g><g class="mark-text role-axis-title" pointer-events="none"><text text-anchor="middle" transform="translate(400,44)" font-family="sans-serif" font-size="11px" font-weight="bold" fill="#000" opacity="1">Implementation</text></g></g><path class="foreground" aria-hidden="true" d="" pointer-events="none" display="none"/></g></g><g class="mark-group role-axis" role="graphics-symbol" aria-roledescription="axis" aria-label="Y-axis titled 'Execution Time (seconds, lower=better)' for a linear scale with values from 0.0 to 1.5"><g transform="translate(0.5,0.5)"><path class="background" aria-hidden="true" d="M0,0h0v0h0Z" pointer-events="none"/><g><g class="mark-rule role-axis-tick" pointer-events="none"><line transform="translate(0,600)" x2="-5" y2="0" stroke="#888" stroke-width="1" opacity="1"/><line transform="translate(0,560)" x2="-5" y2="0" stroke="#888" stroke-width="1" opacity="1"/><line transform="translate(0,519)" x2="-5" y2="0" stroke="#888" stroke-width="1" opacity="1"/><line transform="translate(0,479)" x2="-5" y2="0" stroke="#888" stroke-width="1" opacity="1"/><line transform="translate(0,438)" x2="-5" y2="0" stroke="#888" stroke-width="1" opacity="1"/><line transform="translate(0,398)" x2="-5" y2="0" stroke="#888" stroke-width="1" opacity="1"/><line transform="translate(0,357)" x2="-5" y2="0" stroke="#888" stroke-width="1" opacity="1"/><line transform="translate(0,317)" x2="-5" y2="0" stroke="#888" stroke-width="1" opacity="1"/><line transform="translate(0,276)" x2="-5" y2="0" stroke="#888" stroke-width="1" opacity="1"/><line transform="translate(0,236)" x2="-5" y2="0" stroke="#888" stroke-width="1" opacity="1"/><line transform="translate(0,195)" x2="-5" y2="0" stroke="#888" stroke-width="1" opacity="1"/><line transform="translate(0,155)" x2="-5" y2="0" stroke="#888" stroke-width="1" opacity="1"/><line transform="translate(0,114)" x2="-5" y2="0" stroke="#888" stroke-width="1" opacity="1"/><line transform="translate(0,74)" x2="-5" y2="0" stroke="#888" stroke-width="1" opacity="1"/><line transform="translate(0,33)" x2="-5" y2="0" stroke="#888" stroke-width="1" opacity="1"/></g><g class="mark-text role-axis-label" pointer-events="none"><text text-anchor="end" transform="translate(-7,603)" font-family="sans-serif" font-size="10px" fill="#000" opacity="1">0.0</text><text text-anchor="end" transform="translate(-7,562.526519422475)" font-family="sans-serif" font-size="10px" fill="#000" opacity="1">0.1</text><text text-anchor="end" transform="translate(-7,522.05303884495)" font-family="sans-serif" font-size="10px" fill="#000" opacity="1">0.2</text><text text-anchor="end" transform="translate(-7,481.57955826742506)" font-family="sans-serif" font-size="10px" fill="#000" opacity="1">0.3</text><text text-anchor="end" transform="translate(-7,441.10607768990013)" font-family="sans-serif" font-size="10px" fill="#000" opacity="1">0.4</text><text text-anchor="end" transform="translate(-7,400.63259711237515)" font-family="sans-serif" font-size="10px" fill="#000" opacity="1">0.5</text><text text-anchor="end" transform="translate(-7,360.1591165348501)" font-family="sans-serif" font-size="10px" fill="#000" opacity="1">0.6</text><text text-anchor="end" transform="translate(-7,319.6856359573252)" font-family="sans-serif" font-size="10px" fill="#000" opacity="1">0.7</text><text text-anchor="end" transform="translate(-7,279.2121553798002)" font-family="sans-serif" font-size="10px" fill="#000" opacity="1">0.8</text><text text-anchor="end" transform="translate(-7,238.7386748022752)" font-family="sans-serif" font-size="10px" fill="#000" opacity="1">0.9</text><text text-anchor="end" transform="translate(-7,198.26519422475025)" font-family="sans-serif" font-size="10px" fill="#000" opacity="1">1.0</text><text text-anchor="end" transform="translate(-7,157.79171364722527)" font-family="sans-serif" font-size="10px" fill="#000" opacity="1">1.1</text><text text-anchor="end" transform="translate(-7,117.31823306970033)" font-family="sans-serif" font-size="10px" fill="#000" opacity="1">1.2</text><text text-anchor="end" transform="translate(-7,76.84475249217533)" font-family="sans-serif" font-size="10px" fill="#000" opacity="1">1.3</text><text text-anchor="end" transform="translate(-7,36.37127191465039)" font-family="sans-serif" font-size="10px" fill="#000" opacity="1">1.4</text></g><g class="mark-rule role-axis-domain" pointer-events="none"><line transform="translate(0,600)" x2="0" y2="-600" stroke="#888" stroke-width="1" opacity="1"/></g><g class="mark-text role-axis-title" pointer-events="none"><text text-anchor="middle" transform="translate(-24.9013671875,300) rotate(-90) translate(0,-2)" font-family="sans-serif" font-size="11px" font-weight="bold" fill="#000" opacity="1">Execution Time (seconds, lower=better)</text></g></g><path class="foreground" aria-hidden="true" d="" pointer-events="none" display="none"/></g></g><g class="mark-group role-scope" role="graphics-object" aria-roledescription="group mark container"><g transform="translate(5,594.5113912989814)"><path class="background" aria-hidden="true" d="M2.74430435050931,0L87.25569564949069,0C88.77031845232102,0,90,1.2296815476789735,90,2.74430435050931L90,5.48860870101862C90,5.48860870101862,90,5.48860870101862,90,5.48860870101862L0,5.48860870101862C0,5.48860870101862,0,5.48860870101862,0,5.48860870101862L0,2.74430435050931C0,1.2296815476789735,1.2296815476789735,0,2.74430435050931,0Z"/><g clip-path="url(#clip1)"><g class="mark-group role-scope" role="graphics-object" aria-roledescription="group mark container"><g transform="translate(0,-594.5113912989814)"><path class="background" aria-hidden="true" d="M0,0h90v0h-90Z"/><g><g class="mark-rect role-mark layer_0_marks" role="graphics-object" aria-roledescription="rect mark container"><path aria-label="Implementation: c_uuid_v7&#xA;0.0.5.dev10+g59a045439; Execution Time (seconds, lower=better): 0.0135609999998; implementation: c_uuid_v7; Execution Time (s): 0.0136; Slowdown: 1.00" role="graphics-symbol" aria-roledescription="bar" d="M0,594.5113912989814h90v5.48860870101862h-90Z" fill="#d95f02"/></g></g><path class="foreground" aria-hidden="true" d="" display="none"/></g></g></g><path class="foreground" aria-hidden="true" d="" display="none"/></g><g transform="translate(105,576.0283264504603)"><path class="background" aria-hidden="true" d="M6,0L84,0C87.311490146964,0,90,2.688509853036,90,6L90,23.971673549539673C90,23.971673549539673,90,23.971673549539673,90,23.971673549539673L0,23.971673549539673C0,23.971673549539673,0,23.971673549539673,0,23.971673549539673L0,6C0,2.688509853036,2.688509853036,0,6,0Z"/><g clip-path="url(#clip2)"><g class="mark-group role-scope" role="graphics-object" aria-roledescription="group mark container"><g transform="translate(0,-576.0283264504603)"><path class="background" aria-hidden="true" d="M0,0h90v0h-90Z"/><g><g class="mark-rect role-mark layer_0_marks" role="graphics-object" aria-roledescription="rect mark container"><path aria-label="Implementation: uuid_utils&#xA;0.14.1; Execution Time (seconds, lower=better): 0.059228099999; implementation: uuid_utils; Execution Time (s): 0.0592; Slowdown: 4.37" role="graphics-symbol" aria-roledescription="bar" d="M0,576.0283264504603h90v23.971673549539673h-90Z" fill="#a6761d"/></g></g><path class="foreground" aria-hidden="true" d="" display="none"/></g></g></g><path class="foreground" aria-hidden="true" d="" display="none"/></g><g transform="translate(205,573.7214594782905)"><path class="background" aria-hidden="true" d="M6,0L84,0C87.311490146964,0,90,2.688509853036,90,6L90,26.278540521709488C90,26.278540521709488,90,26.278540521709488,90,26.278540521709488L0,26.278540521709488C0,26.278540521709488,0,26.278540521709488,0,26.278540521709488L0,6C0,2.688509853036,2.688509853036,0,6,0Z"/><g clip-path="url(#clip3)"><g class="mark-group role-scope" role="graphics-object" aria-roledescription="group mark container"><g transform="translate(0,-573.7214594782905)"><path class="background" aria-hidden="true" d="M0,0h90v0h-90Z"/><g><g class="mark-rect role-mark layer_0_marks" role="graphics-object" aria-roledescription="rect mark container"><path aria-label="Implementation: fastuuid&#xA;0.14.0; Execution Time (seconds, lower=better): 0.0649277999983; implementation: fastuuid; Execution Time (s): 0.0649; Slowdown: 4.79" role="graphics-symbol" aria-roledescription="bar" d="M0,573.7214594782905h90v26.278540521709488h-90Z" fill="#7570b3"/></g></g><path class="foreground" aria-hidden="true" d="" display="none"/></g></g></g><path class="foreground" aria-hidden="true" d="" display="none"/></g><g transform="translate(305,313.19585056894203)"><path class="background" aria-hidden="true" d="M6,0L84,0C87.311490146964,0,90,2.688509853036,90,6L90,286.80414943105797C90,286.80414943105797,90,286.80414943105797,90,286.80414943105797L0,286.80414943105797C0,286.80414943105797,0,286.80414943105797,0,286.80414943105797L0,6C0,2.688509853036,2.688509853036,0,6,0Z"/><g clip-path="url(#clip4)"><g class="mark-group role-scope" role="graphics-object" aria-roledescription="group mark container"><g transform="translate(0,-313.19585056894203)"><path class="background" aria-hidden="true" d="M0,0h90v0h-90Z"/><g><g class="mark-rect role-mark layer_0_marks" role="graphics-object" aria-roledescription="rect mark container"><path aria-label="Implementation: UUIDv7gen&#xA;1.0.3; Execution Time (seconds, lower=better): 0.708622399998; implementation: UUIDv7gen; Execution Time (s): 0.7086; Slowdown: 52.25" role="graphics-symbol" aria-roledescription="bar" d="M0,313.19585056894203h90v286.80414943105797h-90Z" fill="#1b9e77"/></g></g><path class="foreground" aria-hidden="true" d="" display="none"/></g></g></g><path class="foreground" aria-hidden="true" d="" display="none"/></g><g transform="translate(405,312.5186887655585)"><path class="background" aria-hidden="true" d="M6,0L84,0C87.311490146964,0,90,2.688509853036,90,6L90,287.4813112344415C90,287.4813112344415,90,287.4813112344415,90,287.4813112344415L0,287.4813112344415C0,287.4813112344415,0,287.4813112344415,0,287.4813112344415L0,6C0,2.688509853036,2.688509853036,0,6,0Z"/><g clip-path="url(#clip5)"><g class="mark-group role-scope" role="graphics-object" aria-roledescription="group mark container"><g transform="translate(0,-312.5186887655585)"><path class="background" aria-hidden="true" d="M0,0h90v0h-90Z"/><g><g class="mark-rect role-mark layer_0_marks" role="graphics-object" aria-roledescription="rect mark container"><path aria-label="Implementation: lastuuid&#xA;0.5.0; Execution Time (seconds, lower=better): 0.710295499997; implementation: lastuuid; Execution Time (s): 0.7103; Slowdown: 52.38" role="graphics-symbol" aria-roledescription="bar" d="M0,312.5186887655585h90v287.4813112344415h-90Z" fill="#e7298a"/></g></g><path class="foreground" aria-hidden="true" d="" display="none"/></g></g></g><path class="foreground" aria-hidden="true" d="" display="none"/></g><g transform="translate(505,281.74637769355843)"><path class="background" aria-hidden="true" d="M6,0L84,0C87.311490146964,0,90,2.688509853036,90,6L90,318.25362230644157C90,318.25362230644157,90,318.25362230644157,90,318.25362230644157L0,318.25362230644157C0,318.25362230644157,0,318.25362230644157,0,318.25362230644157L0,6C0,2.688509853036,2.688509853036,0,6,0Z"/><g clip-path="url(#clip6)"><g class="mark-group role-scope" role="graphics-object" aria-roledescription="group mark container"><g transform="translate(0,-281.74637769355843)"><path class="background" aria-hidden="true" d="M0,0h90v0h-90Z"/><g><g class="mark-rect role-mark layer_0_marks" role="graphics-object" aria-roledescription="rect mark container"><path aria-label="Implementation: uuid&#xA;stdlib; Execution Time (seconds, lower=better): 0.7863263; implementation: uuid; Execution Time (s): 0.7863; Slowdown: 57.98" role="graphics-symbol" aria-roledescription="bar" d="M0,281.74637769355843h90v318.25362230644157h-90Z" fill="#66a61e"/></g></g><path class="foreground" aria-hidden="true" d="" display="none"/></g></g></g><path class="foreground" aria-hidden="true" d="" display="none"/></g><g transform="translate(605,177.6669201345893)"><path class="background" aria-hidden="true" d="M6,0L84,0C87.311490146964,0,90,2.688509853036,90,6L90,422.3330798654107C90,422.3330798654107,90,422.3330798654107,90,422.3330798654107L0,422.3330798654107C0,422.3330798654107,0,422.3330798654107,0,422.3330798654107L0,6C0,2.688509853036,2.688509853036,0,6,0Z"/><g clip-path="url(#clip7)"><g class="mark-group role-scope" role="graphics-object" aria-roledescription="group mark container"><g transform="translate(0,-177.6669201345893)"><path class="background" aria-hidden="true" d="M0,0h90v0h-90Z"/><g><g class="mark-rect role-mark layer_0_marks" role="graphics-object" aria-roledescription="rect mark container"><path aria-label="Implementation: uuid6&#xA;2025.0.1; Execution Time (seconds, lower=better): 1.043481; implementation: uuid6; Execution Time (s): 1.0435; Slowdown: 76.95" role="graphics-symbol" aria-roledescription="bar" d="M0,177.6669201345893h90v422.3330798654107h-90Z" fill="#e6ab02"/></g></g><path class="foreground" aria-hidden="true" d="" display="none"/></g></g></g><path class="foreground" aria-hidden="true" d="" display="none"/></g><g transform="translate(705,23.076923076923062)"><path class="background" aria-hidden="true" d="M6,0L84,0C87.311490146964,0,90,2.688509853036,90,6L90,576.9230769230769C90,576.9230769230769,90,576.9230769230769,90,576.9230769230769L0,576.9230769230769C0,576.9230769230769,0,576.9230769230769,0,576.9230769230769L0,6C0,2.688509853036,2.688509853036,0,6,0Z"/><g clip-path="url(#clip8)"><g class="mark-group role-scope" role="graphics-object" aria-roledescription="group mark container"><g transform="translate(0,-23.076923076923062)"><path class="background" aria-hidden="true" d="M0,0h90v0h-90Z"/><g><g class="mark-rect role-mark layer_0_marks" role="graphics-object" aria-roledescription="rect mark container"><path aria-label="Implementation: uuid_v7&#xA;1.0.0; Execution Time (seconds, lower=better): 1.4254348; implementation: uuid_v7; Execution Time (s): 1.4254; Slowdown: 105.11" role="graphics-symbol" aria-roledescription="bar" d="M0,23.076923076923062h90v576.9230769230769h-90Z" fill="#666666"/></g></g><path class="foreground" aria-hidden="true" d="" display="none"/></g></g></g><path class="foreground" aria-hidden="true" d="" display="none"/></g></g><g class="mark-text role-mark layer_1_marks" role="graphics-object" aria-roledescription="text mark container"><text aria-label="Implementation: c_uuid_v7&#xA;0.0.5.dev10+g59a045439; Execution Time (seconds, lower=better): 0.0135609999998; implementation: c_uuid_v7; label: 0.0136s (x1.00); Execution Time (s): 0.0136; Slowdown: 1.00" role="graphics-symbol" aria-roledescription="text mark" text-anchor="middle" transform="translate(50,590.5113912989814)" font-family="sans-serif" font-size="9px" font-weight="bold" fill="#d95f02">0.0136s (x1.00)</text><text aria-label="Implementation: uuid_utils&#xA;0.14.1; Execution Time (seconds, lower=better): 0.059228099999; implementation: uuid_utils; label: 0.0592s (x4.37); Execution Time (s): 0.0592; Slowdown: 4.37" role="graphics-symbol" aria-roledescription="text mark" text-anchor="middle" transform="translate(150,572.0283264504603)" font-family="sans-serif" font-size="9px" font-weight="bold" fill="#a6761d">0.0592s (x4.37)</text><text aria-label="Implementation: fastuuid&#xA;0.14.0; Execution Time (seconds, lower=better): 0.0649277999983; implementation: fastuuid; label: 0.0649s (x4.79); Execution Time (s): 0.0649; Slowdown: 4.79" role="graphics-symbol" aria-roledescription="text mark" text-anchor="middle" transform="translate(250,569.7214594782905)" font-family="sans-serif" font-size="9px" font-weight="bold" fill="#7570b3">0.0649s (x4.79)</text><text aria-label="Implementation: UUIDv7gen&#xA;1.0.3; Execution Time (seconds, lower=better): 0.708622399998; implementation: UUIDv7gen; label: 0.7086s (x52.25); Execution Time (s): 0.7086; Slowdown: 52.25" role="graphics-symbol" aria-roledescription="text mark" text-anchor="middle" transform="translate(350,309.19585056894203)" font-family="sans-serif" font-size="9px" font-weight="bold" fill="#1b9e77">0.7086s (x52.25)</text><text aria-label="Implementation: lastuuid&#xA;0.5.0; Execution Time (seconds, lower=better): 0.710295499997; implementation: lastuuid; label: 0.7103s (x52.38); Execution Time (s): 0.7103; Slowdown: 52.38" role="graphics-symbol" aria-roledescription="text mark" text-anchor="middle" transform="translate(450,308.5186887655585)" font-family="sans-serif" font-size="9px" font-weight="bold" fill="#e7298a">0.7103s (x52.38)</text><text aria-label="Implementation: uuid&#xA;stdlib; Execution Time (seconds, lower=better): 0.7863263; implementation: uuid; label: 0.7863s (x57.98); Execution Time (s): 0.7863; Slowdown: 57.98" role="graphics-symbol" aria-roledescription="text mark" text-anchor="middle" transform="translate(550,277.74637769355843)" font-family="sans-serif" font-size="9px" font-weight="bold" fill="#66a61e">0.7863s (x57.98)</text><text aria-label="Implementation: uuid6&#xA;2025.0.1; Execution Time (seconds, lower=better): 1.043481; implementation: uuid6; label: 1.0435s (x76.95); Execution Time (s): 1.0435; Slowdown: 76.95" role="graphics-symbol" aria-roledescription="text mark" text-anchor="middle" transform="translate(650,173.6669201345893)" font-family="sans-serif" font-size="9px" font-weight="bold" fill="#e6ab02">1.0435s (x76.95)</text><text aria-label="Implementation: uuid_v7&#xA;1.0.0; Execution Time (seconds, lower=better): 1.4254348; implementation: uuid_v7; label: 1.4254s (x105.11); Execution Time (s): 1.4254; Slowdown: 105.11" role="graphics-symbol" aria-roledescription="text mark" text-anchor="middle" transform="translate(750,19.076923076923062)" font-family="sans-serif" font-size="9px" font-weight="bold" fill="#666666">1.4254s (x105.11)</text></g><g class="mark-group role-title"><g transform="translate(400,-31)"><path class="background" aria-hidden="true" d="M0,0h0v0h0Z" pointer-events="none"/><g><g class="mark-text role-title-text" role="graphics-symbol" aria-roledescription="title" aria-label="Title text 'UUID v7 benchmark (uuid7() default APIs)'" pointer-events="none"><text text-anchor="middle" transform="translate(0,10)" font-family="sans-serif" font-size="13px" font-weight="bold" fill="#000" opacity="1">UUID v7 benchmark (uuid7() default APIs)</text></g><g class="mark-text role-title-subtitle" role="graphics-symbol" aria-roledescription="subtitle" aria-label="Subtitle text 'Python: 3.14.3 (Windows 10) | CPU: 11th Gen Intel(R) Core(TM) i5-11300H @ 3.10GHz'" pointer-events="none"><text text-anchor="middle" transform="translate(0,25)" font-family="sans-serif" font-size="12px" fill="#000" opacity="1">Python: 3.14.3 (Windows 10) | CPU: 11th Gen Intel(R) Core(TM) i5-11300H @ 3.10GHz</text></g></g><path class="foreground" aria-hidden="true" d="" pointer-events="none" display="none"/></g></g></g><path class="foreground" aria-hidden="true" d="" display="none"/></g></g></g><defs><clipPath id="clip1"><path d="M2.74430435050931,0L87.25569564949069,0C88.77031845232102,0,90,1.2296815476789735,90,2.74430435050931L90,5.48860870101862C90,5.48860870101862,90,5.48860870101862,90,5.48860870101862L0,5.48860870101862C0,5.48860870101862,0,5.48860870101862,0,5.48860870101862L0,2.74430435050931C0,1.2296815476789735,1.2296815476789735,0,2.74430435050931,0Z"/></clipPath><clipPath id="clip2"><path d="M6,0L84,0C87.311490146964,0,90,2.688509853036,90,6L90,23.971673549539673C90,23.971673549539673,90,23.971673549539673,90,23.971673549539673L0,23.971673549539673C0,23.971673549539673,0,23.971673549539673,0,23.971673549539673L0,6C0,2.688509853036,2.688509853036,0,6,0Z"/></clipPath><clipPath id="clip3"><path d="M6,0L84,0C87.311490146964,0,90,2.688509853036,90,6L90,26.278540521709488C90,26.278540521709488,90,26.278540521709488,90,26.278540521709488L0,26.278540521709488C0,26.278540521709488,0,26.278540521709488,0,26.278540521709488L0,6C0,2.688509853036,2.688509853036,0,6,0Z"/></clipPath><clipPath id="clip4"><path d="M6,0L84,0C87.311490146964,0,90,2.688509853036,90,6L90,286.80414943105797C90,286.80414943105797,90,286.80414943105797,90,286.80414943105797L0,286.80414943105797C0,286.80414943105797,0,286.80414943105797,0,286.80414943105797L0,6C0,2.688509853036,2.688509853036,0,6,0Z"/></clipPath><clipPath id="clip5"><path d="M6,0L84,0C87.311490146964,0,90,2.688509853036,90,6L90,287.4813112344415C90,287.4813112344415,90,287.4813112344415,90,287.4813112344415L0,287.4813112344415C0,287.4813112344415,0,287.4813112344415,0,287.4813112344415L0,6C0,2.688509853036,2.688509853036,0,6,0Z"/></clipPath><clipPath id="clip6"><path d="M6,0L84,0C87.311490146964,0,90,2.688509853036,90,6L90,318.25362230644157C90,318.25362230644157,90,318.25362230644157,90,318.25362230644157L0,318.25362230644157C0,318.25362230644157,0,318.25362230644157,0,318.25362230644157L0,6C0,2.688509853036,2.688509853036,0,6,0Z"/></clipPath><clipPath id="clip7"><path d="M6,0L84,0C87.311490146964,0,90,2.688509853036,90,6L90,422.3330798654107C90,422.3330798654107,90,422.3330798654107,90,422.3330798654107L0,422.3330798654107C0,422.3330798654107,0,422.3330798654107,0,422.3330798654107L0,6C0,2.688509853036,2.688509853036,0,6,0Z"/></clipPath><clipPath id="clip8"><path d="M6,0L84,0C87.311490146964,0,90,2.688509853036,90,6L90,576.9230769230769C90,576.9230769230769,90,576.9230769230769,90,576.9230769230769L0,576.9230769230769C0,576.9230769230769,0,576.9230769230769,0,576.9230769230769L0,6C0,2.688509853036,2.688509853036,0,6,0Z"/></clipPath></defs></svg>