<svg xmlns="http://www.w3.org/2000/svg" xmlns:xlink="http://www.w3.org/1999/xlink" version="1.1" class="marks" width="846" height="687" viewBox="0 0 846 687"><rect width="846" height="687" fill="white"/><g fill="none" stroke-miterlimit="10" transform="translate(41,36)"><g class="mark-group role-frame root" role="graphics-object" aria-roledescription="group mark container"><g transform="translate(0,0)"><path class="background" aria-hidden="true" d="M0.5,0.5h800v600h-800Z" stroke="#ddd"/><g><g class="mark-group role-axis" role="graphics-symbol" aria-roledescription="axis" aria-label="X-axis titled 'Implementation' for a discrete scale with 5 values: c_uuid_v7.compat&#xA;v0.1.dev17+g19abdbd99.d20260323, uuid_utils.compat&#xA;v0.14.1, lastuuid&#xA;v0.5.0, uuid6&#xA;v2025.0.1, uuid_v7&#xA;v1.0.0"><g transform="translate(0.5,600.5)"><path class="background" aria-hidden="true" d="M0,0h0v0h0Z" pointer-events="none"/><g><g class="mark-rule role-axis-tick" pointer-events="none"><line transform="translate(80,0)" x2="0" y2="5" stroke="#888" stroke-width="1" opacity="1"/><line transform="translate(240,0)" x2="0" y2="5" stroke="#888" stroke-width="1" opacity="1"/><line transform="translate(400,0)" x2="0" y2="5" stroke="#888" stroke-width="1" opacity="1"/><line transform="translate(560,0)" x2="0" y2="5" stroke="#888" stroke-width="1" opacity="1"/><line transform="translate(720,0)" x2="0" y2="5" stroke="#888" stroke-width="1" opacity="1"/></g><g class="mark-text role-axis-label" pointer-events="none"><text text-anchor="middle" transform="translate(79.5,15)" font-family="sans-serif" font-size="10px" fill="#000" opacity="1"><tspan>c_uuid_v7.compat</tspan><tspan x="0" dy="14">v0.1.dev17+g19abdbd99.d20260323</tspan></text><text text-anchor="middle" transform="translate(239.5,15)" font-family="sans-serif" font-size="10px" fill="#000" opacity="1"><tspan>uuid_utils.compat</tspan><tspan x="0" dy="14">v0.14.1</tspan></text><text text-anchor="middle" transform="translate(399.5,15)" font-family="sans-serif" font-size="10px" fill="#000" opacity="1"><tspan>lastuuid</tspan><tspan x="0" dy="14">v0.5.0</tspan></text><text text-anchor="middle" transform="translate(559.5,15)" font-family="sans-serif" font-size="10px" fill="#000" opacity="1"><tspan>uuid6</tspan><tspan x="0" dy="14">v2025.0.1</tspan></text><text text-anchor="middle" transform="translate(719.5,15)" font-family="sans-serif" font-size="10px" fill="#000" opacity="1"><tspan>uuid_v7</tspan><tspan x="0" dy="14">v1.0.0</tspan></text></g><g class="mark-rule role-axis-domain" pointer-events="none"><line transform="translate(0,0)" x2="800" y2="0" stroke="#888" stroke-width="1" opacity="1"/></g><g class="mark-text role-axis-title" pointer-events="none"><text text-anchor="middle" transform="translate(400,44)" font-family="sans-serif" font-size="11px" font-weight="bold" fill="#000" opacity="1">Implementation</text></g></g><path class="foreground" aria-hidden="true" d="" pointer-events="none" display="none"/></g></g><g class="mark-group role-axis" role="graphics-symbol" aria-roledescription="axis" aria-label="Y-axis titled 'Execution Time (seconds, lower=better)' for a linear scale with values from 0.0 to 1.8"><g transform="translate(0.5,0.5)"><path class="background" aria-hidden="true" d="M0,0h0v0h0Z" pointer-events="none"/><g><g class="mark-rule role-axis-tick" pointer-events="none"><line transform="translate(0,600)" x2="-5" y2="0" stroke="#888" stroke-width="1" opacity="1"/><line transform="translate(0,567)" x2="-5" y2="0" stroke="#888" stroke-width="1" opacity="1"/><line transform="translate(0,534)" x2="-5" y2="0" stroke="#888" stroke-width="1" opacity="1"/><line transform="translate(0,501)" x2="-5" y2="0" stroke="#888" stroke-width="1" opacity="1"/><line transform="translate(0,468)" x2="-5" y2="0" stroke="#888" stroke-width="1" opacity="1"/><line transform="translate(0,435)" x2="-5" y2="0" stroke="#888" stroke-width="1" opacity="1"/><line transform="translate(0,402)" x2="-5" y2="0" stroke="#888" stroke-width="1" opacity="1"/><line transform="translate(0,369)" x2="-5" y2="0" stroke="#888" stroke-width="1" opacity="1"/><line transform="translate(0,336)" x2="-5" y2="0" stroke="#888" stroke-width="1" opacity="1"/><line transform="translate(0,303)" x2="-5" y2="0" stroke="#888" stroke-width="1" opacity="1"/><line transform="translate(0,270)" x2="-5" y2="0" stroke="#888" stroke-width="1" opacity="1"/><line transform="translate(0,237)" x2="-5" y2="0" stroke="#888" stroke-width="1" opacity="1"/><line transform="translate(0,204)" x2="-5" y2="0" stroke="#888" stroke-width="1" opacity="1"/><line transform="translate(0,171)" x2="-5" y2="0" stroke="#888" stroke-width="1" opacity="1"/><line transform="translate(0,138)" x2="-5" y2="0" stroke="#888" stroke-width="1" opacity="1"/><line transform="translate(0,105)" x2="-5" y2="0" stroke="#888" stroke-width="1" opacity="1"/><line transform="translate(0,72)" x2="-5" y2="0" stroke="#888" stroke-width="1" opacity="1"/><line transform="translate(0,39)" x2="-5" y2="0" stroke="#888" stroke-width="1" opacity="1"/><line transform="translate(0,6)" x2="-5" y2="0" stroke="#888" stroke-width="1" opacity="1"/></g><g class="mark-text role-axis-label" pointer-events="none"><text text-anchor="end" transform="translate(-7,603)" font-family="sans-serif" font-size="10px" fill="#000" opacity="1">0.0</text><text text-anchor="end" transform="translate(-7,569.9808136999145)" font-family="sans-serif" font-size="10px" fill="#000" opacity="1">0.1</text><text text-anchor="end" transform="translate(-7,536.9616273998289)" font-family="sans-serif" font-size="10px" fill="#000" opacity="1">0.2</text><text text-anchor="end" transform="translate(-7,503.9424410997434)" font-family="sans-serif" font-size="10px" fill="#000" opacity="1">0.3</text><text text-anchor="end" transform="translate(-7,470.9232547996579)" font-family="sans-serif" font-size="10px" fill="#000" opacity="1">0.4</text><text text-anchor="end" transform="translate(-7,437.90406849957236)" font-family="sans-serif" font-size="10px" fill="#000" opacity="1">0.5</text><text text-anchor="end" transform="translate(-7,404.8848821994868)" font-family="sans-serif" font-size="10px" fill="#000" opacity="1">0.6</text><text text-anchor="end" transform="translate(-7,371.86569589940126)" font-family="sans-serif" font-size="10px" fill="#000" opacity="1">0.7</text><text text-anchor="end" transform="translate(-7,338.84650959931577)" font-family="sans-serif" font-size="10px" fill="#000" opacity="1">0.8</text><text text-anchor="end" transform="translate(-7,305.8273232992302)" font-family="sans-serif" font-size="10px" fill="#000" opacity="1">0.9</text><text text-anchor="end" transform="translate(-7,272.80813699914466)" font-family="sans-serif" font-size="10px" fill="#000" opacity="1">1.0</text><text text-anchor="end" transform="translate(-7,239.7889506990591)" font-family="sans-serif" font-size="10px" fill="#000" opacity="1">1.1</text><text text-anchor="end" transform="translate(-7,206.76976439897365)" font-family="sans-serif" font-size="10px" fill="#000" opacity="1">1.2</text><text text-anchor="end" transform="translate(-7,173.75057809888807)" font-family="sans-serif" font-size="10px" fill="#000" opacity="1">1.3</text><text text-anchor="end" transform="translate(-7,140.73139179880255)" font-family="sans-serif" font-size="10px" fill="#000" opacity="1">1.4</text><text text-anchor="end" transform="translate(-7,107.71220549871705)" font-family="sans-serif" font-size="10px" fill="#000" opacity="1">1.5</text><text text-anchor="end" transform="translate(-7,74.69301919863148)" font-family="sans-serif" font-size="10px" fill="#000" opacity="1">1.6</text><text text-anchor="end" transform="translate(-7,41.67383289854595)" font-family="sans-serif" font-size="10px" fill="#000" opacity="1">1.7</text><text text-anchor="end" transform="translate(-7,8.654646598460445)" font-family="sans-serif" font-size="10px" fill="#000" opacity="1">1.8</text></g><g class="mark-rule role-axis-domain" pointer-events="none"><line transform="translate(0,600)" x2="0" y2="-600" stroke="#888" stroke-width="1" opacity="1"/></g><g class="mark-text role-axis-title" pointer-events="none"><text text-anchor="middle" transform="translate(-24.9013671875,300) rotate(-90) translate(0,-2)" font-family="sans-serif" font-size="11px" font-weight="bold" fill="#000" opacity="1">Execution Time (seconds, lower=better)</text></g></g><path class="foreground" aria-hidden="true" d="" pointer-events="none" display="none"/></g></g><g class="mark-group role-scope" role="graphics-object" aria-roledescription="group mark container"><g transform="translate(8,461.30234662064674)"><path class="background" aria-hidden="true" d="M6,0L138,0C141.311490146964,0,144,2.688509853036,144,6L144,138.69765337935326C144,138.69765337935326,144,138.69765337935326,144,138.69765337935326L0,138.69765337935326C0,138.69765337935326,0,138.69765337935326,0,138.69765337935326L0,6C0,2.688509853036,2.688509853036,0,6,0Z"/><g clip-path="url(#clip7)"><g class="mark-group role-scope" role="graphics-object" aria-roledescription="group mark container"><g transform="translate(0,-461.30234662064674)"><path class="background" aria-hidden="true" d="M0,0h144v0h-144Z"/><g><g class="mark-rect role-mark layer_0_marks" role="graphics-object" aria-roledescription="rect mark container"><path aria-label="Implementation: c_uuid_v7.compat&#xA;v0.1.dev17+g19abdbd99.d20260323; Execution Time (seconds, lower=better): 0.420051699999; implementation: c_uuid_v7.compat; Execution Time (s): 0.4201; Slowdown: 1.00" role="graphics-symbol" aria-roledescription="bar" d="M0,461.30234662064674h144v138.69765337935326h-144Z" fill="#1b9e77"/></g></g><path class="foreground" aria-hidden="true" d="" display="none"/></g></g></g><path class="foreground" aria-hidden="true" d="" display="none"/></g><g transform="translate(168,368.138844551805)"><path class="background" aria-hidden="true" d="M6,0L138,0C141.311490146964,0,144,2.688509853036,144,6L144,231.861155448195C144,231.861155448195,144,231.861155448195,144,231.861155448195L0,231.861155448195C0,231.861155448195,0,231.861155448195,0,231.861155448195L0,6C0,2.688509853036,2.688509853036,0,6,0Z"/><g clip-path="url(#clip8)"><g class="mark-group role-scope" role="graphics-object" aria-roledescription="group mark container"><g transform="translate(0,-368.138844551805)"><path class="background" aria-hidden="true" d="M0,0h144v0h-144Z"/><g><g class="mark-rect role-mark layer_0_marks" role="graphics-object" aria-roledescription="rect mark container"><path aria-label="Implementation: uuid_utils.compat&#xA;v0.14.1; Execution Time (seconds, lower=better): 0.702201299999; implementation: uuid_utils.compat; Execution Time (s): 0.7022; Slowdown: 1.67" role="graphics-symbol" aria-roledescription="bar" d="M0,368.138844551805h144v231.861155448195h-144Z" fill="#e7298a"/></g></g><path class="foreground" aria-hidden="true" d="" display="none"/></g></g></g><path class="foreground" aria-hidden="true" d="" display="none"/></g><g transform="translate(328,319.8877425151743)"><path class="background" aria-hidden="true" d="M6,0L138,0C141.311490146964,0,144,2.688509853036,144,6L144,280.1122574848257C144,280.1122574848257,144,280.1122574848257,144,280.1122574848257L0,280.1122574848257C0,280.1122574848257,0,280.1122574848257,0,280.1122574848257L0,6C0,2.688509853036,2.688509853036,0,6,0Z"/><g clip-path="url(#clip9)"><g class="mark-group role-scope" role="graphics-object" aria-roledescription="group mark container"><g transform="translate(0,-319.8877425151743)"><path class="background" aria-hidden="true" d="M0,0h144v0h-144Z"/><g><g class="mark-rect role-mark layer_0_marks" role="graphics-object" aria-roledescription="rect mark container"><path aria-label="Implementation: lastuuid&#xA;v0.5.0; Execution Time (seconds, lower=better): 0.8483318; implementation: lastuuid; Execution Time (s): 0.8483; Slowdown: 2.02" role="graphics-symbol" aria-roledescription="bar" d="M0,319.8877425151743h144v280.1122574848257h-144Z" fill="#d95f02"/></g></g><path class="foreground" aria-hidden="true" d="" display="none"/></g></g></g><path class="foreground" aria-hidden="true" d="" display="none"/></g><g transform="translate(488,121.4026447323257)"><path class="background" aria-hidden="true" d="M6,0L138,0C141.311490146964,0,144,2.688509853036,144,6L144,478.5973552676743C144,478.5973552676743,144,478.5973552676743,144,478.5973552676743L0,478.5973552676743C0,478.5973552676743,0,478.5973552676743,0,478.5973552676743L0,6C0,2.688509853036,2.688509853036,0,6,0Z"/><g clip-path="url(#clip10)"><g class="mark-group role-scope" role="graphics-object" aria-roledescription="group mark container"><g transform="translate(0,-121.4026447323257)"><path class="background" aria-hidden="true" d="M0,0h144v0h-144Z"/><g><g class="mark-rect role-mark layer_0_marks" role="graphics-object" aria-roledescription="rect mark container"><path aria-label="Implementation: uuid6&#xA;v2025.0.1; Execution Time (seconds, lower=better): 1.4494523; implementation: uuid6; Execution Time (s): 1.4495; Slowdown: 3.45" role="graphics-symbol" aria-roledescription="bar" d="M0,121.4026447323257h144v478.5973552676743h-144Z" fill="#7570b3"/></g></g><path class="foreground" aria-hidden="true" d="" display="none"/></g></g></g><path class="foreground" aria-hidden="true" d="" display="none"/></g><g transform="translate(648,23.076923076923062)"><path class="background" aria-hidden="true" d="M6,0L138,0C141.311490146964,0,144,2.688509853036,144,6L144,576.9230769230769C144,576.9230769230769,144,576.9230769230769,144,576.9230769230769L0,576.9230769230769C0,576.9230769230769,0,576.9230769230769,0,576.9230769230769L0,6C0,2.688509853036,2.688509853036,0,6,0Z"/><g clip-path="url(#clip11)"><g class="mark-group role-scope" role="graphics-object" aria-roledescription="group mark container"><g transform="translate(0,-23.076923076923062)"><path class="background" aria-hidden="true" d="M0,0h144v0h-144Z"/><g><g class="mark-rect role-mark layer_0_marks" role="graphics-object" aria-roledescription="rect mark container"><path aria-label="Implementation: uuid_v7&#xA;v1.0.0; Execution Time (seconds, lower=better): 1.7472359; implementation: uuid_v7; Execution Time (s): 1.7472; Slowdown: 4.16" role="graphics-symbol" aria-roledescription="bar" d="M0,23.076923076923062h144v576.9230769230769h-144Z" fill="#66a61e"/></g></g><path class="foreground" aria-hidden="true" d="" display="none"/></g></g></g><path class="foreground" aria-hidden="true" d="" display="none"/></g></g><g class="mark-text role-mark layer_1_marks" role="graphics-object" aria-roledescription="text mark container"><text aria-label="Implementation: c_uuid_v7.compat&#xA;v0.1.dev17+g19abdbd99.d20260323; Execution Time (seconds, lower=better): 0.420051699999; implementation: c_uuid_v7.compat; label: 0.4201s (x1.00); Execution Time (s): 0.4201; Slowdown: 1.00" role="graphics-symbol" aria-roledescription="text mark" text-anchor="middle" transform="translate(80,457.30234662064674)" font-family="sans-serif" font-size="9px" font-weight="bold" fill="#1b9e77">0.4201s (x1.00)</text><text aria-label="Implementation: uuid_utils.compat&#xA;v0.14.1; Execution Time (seconds, lower=better): 0.702201299999; implementation: uuid_utils.compat; label: 0.7022s (x1.67); Execution Time (s): 0.7022; Slowdown: 1.67" role="graphics-symbol" aria-roledescription="text mark" text-anchor="middle" transform="translate(240,364.138844551805)" font-family="sans-serif" font-size="9px" font-weight="bold" fill="#e7298a">0.7022s (x1.67)</text><text aria-label="Implementation: lastuuid&#xA;v0.5.0; Execution Time (seconds, lower=better): 0.8483318; implementation: lastuuid; label: 0.8483s (x2.02); Execution Time (s): 0.8483; Slowdown: 2.02" role="graphics-symbol" aria-roledescription="text mark" text-anchor="middle" transform="translate(400,315.8877425151743)" font-family="sans-serif" font-size="9px" font-weight="bold" fill="#d95f02">0.8483s (x2.02)</text><text aria-label="Implementation: uuid6&#xA;v2025.0.1; Execution Time (seconds, lower=better): 1.4494523; implementation: uuid6; label: 1.4495s (x3.45); Execution Time (s): 1.4495; Slowdown: 3.45" role="graphics-symbol" aria-roledescription="text mark" text-anchor="middle" transform="translate(560,117.4026447323257)" font-family="sans-serif" font-size="9px" font-weight="bold" fill="#7570b3">1.4495s (x3.45)</text><text aria-label="Implementation: uuid_v7&#xA;v1.0.0; Execution Time (seconds, lower=better): 1.7472359; implementation: uuid_v7; label: 1.7472s (x4.16); Execution Time (s): 1.7472; Slowdown: 4.16" role="graphics-symbol" aria-roledescription="text mark" text-anchor="middle" transform="translate(720,19.076923076923062)" font-family="sans-serif" font-size="9px" font-weight="bold" fill="#66a61e">1.7472s (x4.16)</text></g><g class="mark-group role-title"><g transform="translate(400,-31)"><path class="background" aria-hidden="true" d="M0,0h0v0h0Z" pointer-events="none"/><g><g class="mark-text role-title-text" role="graphics-symbol" aria-roledescription="title" aria-label="Title text 'UUID v7 benchmark (uuid7() compact / stdlib-compatible APIs)'" pointer-events="none"><text text-anchor="middle" transform="translate(0,10)" font-family="sans-serif" font-size="13px" font-weight="bold" fill="#000" opacity="1">UUID v7 benchmark (uuid7() compact / stdlib-compatible APIs)</text></g><g class="mark-text role-title-subtitle" role="graphics-symbol" aria-roledescription="subtitle" aria-label="Subtitle text 'Python: 3.13.8 (Windows 10) | CPU: 11th Gen Intel(R) Core(TM) i5-11300H @ 3.10GHz'" pointer-events="none"><text text-anchor="middle" transform="translate(0,25)" font-family="sans-serif" font-size="12px" fill="#000" opacity="1">Python: 3.13.8 (Windows 10) | CPU: 11th Gen Intel(R) Core(TM) i5-11300H @ 3.10GHz</text></g></g><path class="foreground" aria-hidden="true" d="" pointer-events="none" display="none"/></g></g></g><path class="foreground" aria-hidden="true" d="" display="none"/></g></g></g><defs><clipPath id="clip7"><path d="M6,0L138,0C141.311490146964,0,144,2.688509853036,144,6L144,138.69765337935326C144,138.69765337935326,144,138.69765337935326,144,138.69765337935326L0,138.69765337935326C0,138.69765337935326,0,138.69765337935326,0,138.69765337935326L0,6C0,2.688509853036,2.688509853036,0,6,0Z"/></clipPath><clipPath id="clip8"><path d="M6,0L138,0C141.311490146964,0,144,2.688509853036,144,6L144,231.861155448195C144,231.861155448195,144,231.861155448195,144,231.861155448195L0,231.861155448195C0,231.861155448195,0,231.861155448195,0,231.861155448195L0,6C0,2.688509853036,2.688509853036,0,6,0Z"/></clipPath><clipPath id="clip9"><path d="M6,0L138,0C141.311490146964,0,144,2.688509853036,144,6L144,280.1122574848257C144,280.1122574848257,144,280.1122574848257,144,280.1122574848257L0,280.1122574848257C0,280.1122574848257,0,280.1122574848257,0,280.1122574848257L0,6C0,2.688509853036,2.688509853036,0,6,0Z"/></clipPath><clipPath id="clip10"><path d="M6,0L138,0C141.311490146964,0,144,2.688509853036,144,6L144,478.5973552676743C144,478.5973552676743,144,478.5973552676743,144,478.5973552676743L0,478.5973552676743C0,478.5973552676743,0,478.5973552676743,0,478.5973552676743L0,6C0,2.688509853036,2.688509853036,0,6,0Z"/></clipPath><clipPath id="clip11"><path d="M6,0L138,0C141.311490146964,0,144,2.688509853036,144,6L144,576.9230769230769C144,576.9230769230769,144,576.9230769230769,144,576.9230769230769L0,576.9230769230769C0,576.9230769230769,0,576.9230769230769,0,576.9230769230769L0,6C0,2.688509853036,2.688509853036,0,6,0Z"/></clipPath></defs></svg>