<svg xmlns="http://www.w3.org/2000/svg" xmlns:xlink="http://www.w3.org/1999/xlink" version="1.1" class="marks" width="846" height="687" viewBox="0 0 846 687"><rect width="846" height="687" fill="white"/><g fill="none" stroke-miterlimit="10" transform="translate(41,36)"><g class="mark-group role-frame root" role="graphics-object" aria-roledescription="group mark container"><g transform="translate(0,0)"><path class="background" aria-hidden="true" d="M0.5,0.5h800v600h-800Z" stroke="#ddd"/><g><g class="mark-group role-axis" role="graphics-symbol" aria-roledescription="axis" aria-label="X-axis titled 'Implementation' for a discrete scale with 5 values: c_uuid_v7.compat&#xA;v0.1.dev29+geda9f2e1f.d20260323, uuid_utils.compat&#xA;v0.14.1, lastuuid&#xA;v0.5.0, uuid6&#xA;v2025.0.1, uuid_v7&#xA;v1.0.0"><g transform="translate(0.5,600.5)"><path class="background" aria-hidden="true" d="M0,0h0v0h0Z" pointer-events="none"/><g><g class="mark-rule role-axis-tick" pointer-events="none"><line transform="translate(80,0)" x2="0" y2="5" stroke="#888" stroke-width="1" opacity="1"/><line transform="translate(240,0)" x2="0" y2="5" stroke="#888" stroke-width="1" opacity="1"/><line transform="translate(400,0)" x2="0" y2="5" stroke="#888" stroke-width="1" opacity="1"/><line transform="translate(560,0)" x2="0" y2="5" stroke="#888" stroke-width="1" opacity="1"/><line transform="translate(720,0)" x2="0" y2="5" stroke="#888" stroke-width="1" opacity="1"/></g><g class="mark-text role-axis-label" pointer-events="none"><text text-anchor="middle" transform="translate(79.5,15)" font-family="sans-serif" font-size="10px" fill="#000" opacity="1"><tspan>c_uuid_v7.compat</tspan><tspan x="0" dy="14">v0.1.dev29+geda9f2e1f.d20260323</tspan></text><text text-anchor="middle" transform="translate(239.5,15)" font-family="sans-serif" font-size="10px" fill="#000" opacity="1"><tspan>uuid_utils.compat</tspan><tspan x="0" dy="14">v0.14.1</tspan></text><text text-anchor="middle" transform="translate(399.5,15)" font-family="sans-serif" font-size="10px" fill="#000" opacity="1"><tspan>lastuuid</tspan><tspan x="0" dy="14">v0.5.0</tspan></text><text text-anchor="middle" transform="translate(559.5,15)" font-family="sans-serif" font-size="10px" fill="#000" opacity="1"><tspan>uuid6</tspan><tspan x="0" dy="14">v2025.0.1</tspan></text><text text-anchor="middle" transform="translate(719.5,15)" font-family="sans-serif" font-size="10px" fill="#000" opacity="1"><tspan>uuid_v7</tspan><tspan x="0" dy="14">v1.0.0</tspan></text></g><g class="mark-rule role-axis-domain" pointer-events="none"><line transform="translate(0,0)" x2="800" y2="0" stroke="#888" stroke-width="1" opacity="1"/></g><g class="mark-text role-axis-title" pointer-events="none"><text text-anchor="middle" transform="translate(400,44)" font-family="sans-serif" font-size="11px" font-weight="bold" fill="#000" opacity="1">Implementation</text></g></g><path class="foreground" aria-hidden="true" d="" pointer-events="none" display="none"/></g></g><g class="mark-group role-axis" role="graphics-symbol" aria-roledescription="axis" aria-label="Y-axis titled 'Execution Time (seconds, lower=better)' for a linear scale with values from 0.0 to 1.8"><g transform="translate(0.5,0.5)"><path class="background" aria-hidden="true" d="M0,0h0v0h0Z" pointer-events="none"/><g><g class="mark-rule role-axis-tick" pointer-events="none"><line transform="translate(0,600)" x2="-5" y2="0" stroke="#888" stroke-width="1" opacity="1"/><line transform="translate(0,566)" x2="-5" y2="0" stroke="#888" stroke-width="1" opacity="1"/><line transform="translate(0,532)" x2="-5" y2="0" stroke="#888" stroke-width="1" opacity="1"/><line transform="translate(0,499)" x2="-5" y2="0" stroke="#888" stroke-width="1" opacity="1"/><line transform="translate(0,465)" x2="-5" y2="0" stroke="#888" stroke-width="1" opacity="1"/><line transform="translate(0,431)" x2="-5" y2="0" stroke="#888" stroke-width="1" opacity="1"/><line transform="translate(0,397)" x2="-5" y2="0" stroke="#888" stroke-width="1" opacity="1"/><line transform="translate(0,363)" x2="-5" y2="0" stroke="#888" stroke-width="1" opacity="1"/><line transform="translate(0,329)" x2="-5" y2="0" stroke="#888" stroke-width="1" opacity="1"/><line transform="translate(0,296)" x2="-5" y2="0" stroke="#888" stroke-width="1" opacity="1"/><line transform="translate(0,262)" x2="-5" y2="0" stroke="#888" stroke-width="1" opacity="1"/><line transform="translate(0,228)" x2="-5" y2="0" stroke="#888" stroke-width="1" opacity="1"/><line transform="translate(0,194)" x2="-5" y2="0" stroke="#888" stroke-width="1" opacity="1"/><line transform="translate(0,160)" x2="-5" y2="0" stroke="#888" stroke-width="1" opacity="1"/><line transform="translate(0,127)" x2="-5" y2="0" stroke="#888" stroke-width="1" opacity="1"/><line transform="translate(0,93)" x2="-5" y2="0" stroke="#888" stroke-width="1" opacity="1"/><line transform="translate(0,59)" x2="-5" y2="0" stroke="#888" stroke-width="1" opacity="1"/><line transform="translate(0,25)" x2="-5" y2="0" stroke="#888" stroke-width="1" opacity="1"/></g><g class="mark-text role-axis-label" pointer-events="none"><text text-anchor="end" transform="translate(-7,603)" font-family="sans-serif" font-size="10px" fill="#000" opacity="1">0.0</text><text text-anchor="end" transform="translate(-7,569.1800451651595)" font-family="sans-serif" font-size="10px" fill="#000" opacity="1">0.1</text><text text-anchor="end" transform="translate(-7,535.360090330319)" font-family="sans-serif" font-size="10px" fill="#000" opacity="1">0.2</text><text text-anchor="end" transform="translate(-7,501.5401354954786)" font-family="sans-serif" font-size="10px" fill="#000" opacity="1">0.3</text><text text-anchor="end" transform="translate(-7,467.7201806606381)" font-family="sans-serif" font-size="10px" fill="#000" opacity="1">0.4</text><text text-anchor="end" transform="translate(-7,433.90022582579763)" font-family="sans-serif" font-size="10px" fill="#000" opacity="1">0.5</text><text text-anchor="end" transform="translate(-7,400.0802709909571)" font-family="sans-serif" font-size="10px" fill="#000" opacity="1">0.6</text><text text-anchor="end" transform="translate(-7,366.2603161561167)" font-family="sans-serif" font-size="10px" fill="#000" opacity="1">0.7</text><text text-anchor="end" transform="translate(-7,332.4403613212762)" font-family="sans-serif" font-size="10px" fill="#000" opacity="1">0.8</text><text text-anchor="end" transform="translate(-7,298.62040648643574)" font-family="sans-serif" font-size="10px" fill="#000" opacity="1">0.9</text><text text-anchor="end" transform="translate(-7,264.8004516515952)" font-family="sans-serif" font-size="10px" fill="#000" opacity="1">1.0</text><text text-anchor="end" transform="translate(-7,230.98049681675474)" font-family="sans-serif" font-size="10px" fill="#000" opacity="1">1.1</text><text text-anchor="end" transform="translate(-7,197.1605419819143)" font-family="sans-serif" font-size="10px" fill="#000" opacity="1">1.2</text><text text-anchor="end" transform="translate(-7,163.34058714707376)" font-family="sans-serif" font-size="10px" fill="#000" opacity="1">1.3</text><text text-anchor="end" transform="translate(-7,129.52063231223337)" font-family="sans-serif" font-size="10px" fill="#000" opacity="1">1.4</text><text text-anchor="end" transform="translate(-7,95.70067747739283)" font-family="sans-serif" font-size="10px" fill="#000" opacity="1">1.5</text><text text-anchor="end" transform="translate(-7,61.88072264255231)" font-family="sans-serif" font-size="10px" fill="#000" opacity="1">1.6</text><text text-anchor="end" transform="translate(-7,28.060767807711915)" font-family="sans-serif" font-size="10px" fill="#000" opacity="1">1.7</text></g><g class="mark-rule role-axis-domain" pointer-events="none"><line transform="translate(0,600)" x2="0" y2="-600" stroke="#888" stroke-width="1" opacity="1"/></g><g class="mark-text role-axis-title" pointer-events="none"><text text-anchor="middle" transform="translate(-24.9013671875,300) rotate(-90) translate(0,-2)" font-family="sans-serif" font-size="11px" font-weight="bold" fill="#000" opacity="1">Execution Time (seconds, lower=better)</text></g></g><path class="foreground" aria-hidden="true" d="" pointer-events="none" display="none"/></g></g><g class="mark-group role-scope" role="graphics-object" aria-roledescription="group mark container"><g transform="translate(8,438.1118915351584)"><path class="background" aria-hidden="true" d="M6,0L138,0C141.311490146964,0,144,2.688509853036,144,6L144,161.8881084648416C144,161.8881084648416,144,161.8881084648416,144,161.8881084648416L0,161.8881084648416C0,161.8881084648416,0,161.8881084648416,0,161.8881084648416L0,6C0,2.688509853036,2.688509853036,0,6,0Z"/><g clip-path="url(#clip8)"><g class="mark-group role-scope" role="graphics-object" aria-roledescription="group mark container"><g transform="translate(0,-438.1118915351584)"><path class="background" aria-hidden="true" d="M0,0h144v0h-144Z"/><g><g class="mark-rect role-mark layer_0_marks" role="graphics-object" aria-roledescription="rect mark container"><path aria-label="Implementation: c_uuid_v7.compat&#xA;v0.1.dev29+geda9f2e1f.d20260323; Execution Time (seconds, lower=better): 0.478676299999; implementation: c_uuid_v7.compat; Execution Time (s): 0.4787; Slowdown: 1.00" role="graphics-symbol" aria-roledescription="bar" d="M0,438.1118915351584h144v161.8881084648416h-144Z" fill="#1b9e77"/></g></g><path class="foreground" aria-hidden="true" d="" display="none"/></g></g></g><path class="foreground" aria-hidden="true" d="" display="none"/></g><g transform="translate(168,394.4210079425405)"><path class="background" aria-hidden="true" d="M6,0L138,0C141.311490146964,0,144,2.688509853036,144,6L144,205.57899205745952C144,205.57899205745952,144,205.57899205745952,144,205.57899205745952L0,205.57899205745952C0,205.57899205745952,0,205.57899205745952,0,205.57899205745952L0,6C0,2.688509853036,2.688509853036,0,6,0Z"/><g clip-path="url(#clip9)"><g class="mark-group role-scope" role="graphics-object" aria-roledescription="group mark container"><g transform="translate(0,-394.4210079425405)"><path class="background" aria-hidden="true" d="M0,0h144v0h-144Z"/><g><g class="mark-rect role-mark layer_0_marks" role="graphics-object" aria-roledescription="rect mark container"><path aria-label="Implementation: uuid_utils.compat&#xA;v0.14.1; Execution Time (seconds, lower=better): 0.607862999999; implementation: uuid_utils.compat; Execution Time (s): 0.6079; Slowdown: 1.27" role="graphics-symbol" aria-roledescription="bar" d="M0,394.4210079425405h144v205.57899205745952h-144Z" fill="#e7298a"/></g></g><path class="foreground" aria-hidden="true" d="" display="none"/></g></g></g><path class="foreground" aria-hidden="true" d="" display="none"/></g><g transform="translate(328,348.23732311865217)"><path class="background" aria-hidden="true" d="M6,0L138,0C141.311490146964,0,144,2.688509853036,144,6L144,251.76267688134783C144,251.76267688134783,144,251.76267688134783,144,251.76267688134783L0,251.76267688134783C0,251.76267688134783,0,251.76267688134783,0,251.76267688134783L0,6C0,2.688509853036,2.688509853036,0,6,0Z"/><g clip-path="url(#clip10)"><g class="mark-group role-scope" role="graphics-object" aria-roledescription="group mark container"><g transform="translate(0,-348.23732311865217)"><path class="background" aria-hidden="true" d="M0,0h144v0h-144Z"/><g><g class="mark-rect role-mark layer_0_marks" role="graphics-object" aria-roledescription="rect mark container"><path aria-label="Implementation: lastuuid&#xA;v0.5.0; Execution Time (seconds, lower=better): 0.7444205; implementation: lastuuid; Execution Time (s): 0.7444; Slowdown: 1.56" role="graphics-symbol" aria-roledescription="bar" d="M0,348.23732311865217h144v251.76267688134783h-144Z" fill="#d95f02"/></g></g><path class="foreground" aria-hidden="true" d="" display="none"/></g></g></g><path class="foreground" aria-hidden="true" d="" display="none"/></g><g transform="translate(488,208.54755076884274)"><path class="background" aria-hidden="true" d="M6,0L138,0C141.311490146964,0,144,2.688509853036,144,6L144,391.4524492311573C144,391.4524492311573,144,391.4524492311573,144,391.4524492311573L0,391.4524492311573C0,391.4524492311573,0,391.4524492311573,0,391.4524492311573L0,6C0,2.688509853036,2.688509853036,0,6,0Z"/><g clip-path="url(#clip11)"><g class="mark-group role-scope" role="graphics-object" aria-roledescription="group mark container"><g transform="translate(0,-208.54755076884274)"><path class="background" aria-hidden="true" d="M0,0h144v0h-144Z"/><g><g class="mark-rect role-mark layer_0_marks" role="graphics-object" aria-roledescription="rect mark container"><path aria-label="Implementation: uuid6&#xA;v2025.0.1; Execution Time (seconds, lower=better): 1.15746; implementation: uuid6; Execution Time (s): 1.1575; Slowdown: 2.42" role="graphics-symbol" aria-roledescription="bar" d="M0,208.54755076884274h144v391.4524492311573h-144Z" fill="#7570b3"/></g></g><path class="foreground" aria-hidden="true" d="" display="none"/></g></g></g><path class="foreground" aria-hidden="true" d="" display="none"/></g><g transform="translate(648,23.07692307692313)"><path class="background" aria-hidden="true" d="M6,0L138,0C141.311490146964,0,144,2.688509853036,144,6L144,576.9230769230769C144,576.9230769230769,144,576.9230769230769,144,576.9230769230769L0,576.9230769230769C0,576.9230769230769,0,576.9230769230769,0,576.9230769230769L0,6C0,2.688509853036,2.688509853036,0,6,0Z"/><g clip-path="url(#clip12)"><g class="mark-group role-scope" role="graphics-object" aria-roledescription="group mark container"><g transform="translate(0,-23.07692307692313)"><path class="background" aria-hidden="true" d="M0,0h144v0h-144Z"/><g><g class="mark-rect role-mark layer_0_marks" role="graphics-object" aria-roledescription="rect mark container"><path aria-label="Implementation: uuid_v7&#xA;v1.0.0; Execution Time (seconds, lower=better): 1.7058659; implementation: uuid_v7; Execution Time (s): 1.7059; Slowdown: 3.56" role="graphics-symbol" aria-roledescription="bar" d="M0,23.07692307692313h144v576.9230769230769h-144Z" fill="#66a61e"/></g></g><path class="foreground" aria-hidden="true" d="" display="none"/></g></g></g><path class="foreground" aria-hidden="true" d="" display="none"/></g></g><g class="mark-text role-mark layer_1_marks" role="graphics-object" aria-roledescription="text mark container"><text aria-label="Implementation: c_uuid_v7.compat&#xA;v0.1.dev29+geda9f2e1f.d20260323; Execution Time (seconds, lower=better): 0.478676299999; implementation: c_uuid_v7.compat; label: 0.4787s (x1.00); Execution Time (s): 0.4787; Slowdown: 1.00" role="graphics-symbol" aria-roledescription="text mark" text-anchor="middle" transform="translate(80,434.1118915351584)" font-family="sans-serif" font-size="9px" font-weight="bold" fill="#1b9e77">0.4787s (x1.00)</text><text aria-label="Implementation: uuid_utils.compat&#xA;v0.14.1; Execution Time (seconds, lower=better): 0.607862999999; implementation: uuid_utils.compat; label: 0.6079s (x1.27); Execution Time (s): 0.6079; Slowdown: 1.27" role="graphics-symbol" aria-roledescription="text mark" text-anchor="middle" transform="translate(240,390.4210079425405)" font-family="sans-serif" font-size="9px" font-weight="bold" fill="#e7298a">0.6079s (x1.27)</text><text aria-label="Implementation: lastuuid&#xA;v0.5.0; Execution Time (seconds, lower=better): 0.7444205; implementation: lastuuid; label: 0.7444s (x1.56); Execution Time (s): 0.7444; Slowdown: 1.56" role="graphics-symbol" aria-roledescription="text mark" text-anchor="middle" transform="translate(400,344.23732311865217)" font-family="sans-serif" font-size="9px" font-weight="bold" fill="#d95f02">0.7444s (x1.56)</text><text aria-label="Implementation: uuid6&#xA;v2025.0.1; Execution Time (seconds, lower=better): 1.15746; implementation: uuid6; label: 1.1575s (x2.42); Execution Time (s): 1.1575; Slowdown: 2.42" role="graphics-symbol" aria-roledescription="text mark" text-anchor="middle" transform="translate(560,204.54755076884274)" font-family="sans-serif" font-size="9px" font-weight="bold" fill="#7570b3">1.1575s (x2.42)</text><text aria-label="Implementation: uuid_v7&#xA;v1.0.0; Execution Time (seconds, lower=better): 1.7058659; implementation: uuid_v7; label: 1.7059s (x3.56); Execution Time (s): 1.7059; Slowdown: 3.56" role="graphics-symbol" aria-roledescription="text mark" text-anchor="middle" transform="translate(720,19.07692307692313)" font-family="sans-serif" font-size="9px" font-weight="bold" fill="#66a61e">1.7059s (x3.56)</text></g><g class="mark-group role-title"><g transform="translate(400,-31)"><path class="background" aria-hidden="true" d="M0,0h0v0h0Z" pointer-events="none"/><g><g class="mark-text role-title-text" role="graphics-symbol" aria-roledescription="title" aria-label="Title text 'UUID v7 benchmark (uuid7() compact / stdlib-compatible APIs)'" pointer-events="none"><text text-anchor="middle" transform="translate(0,10)" font-family="sans-serif" font-size="13px" font-weight="bold" fill="#000" opacity="1">UUID v7 benchmark (uuid7() compact / stdlib-compatible APIs)</text></g><g class="mark-text role-title-subtitle" role="graphics-symbol" aria-roledescription="subtitle" aria-label="Subtitle text 'Python: 3.13.8 (Windows 10) | CPU: 11th Gen Intel(R) Core(TM) i5-11300H @ 3.10GHz'" pointer-events="none"><text text-anchor="middle" transform="translate(0,25)" font-family="sans-serif" font-size="12px" fill="#000" opacity="1">Python: 3.13.8 (Windows 10) | CPU: 11th Gen Intel(R) Core(TM) i5-11300H @ 3.10GHz</text></g></g><path class="foreground" aria-hidden="true" d="" pointer-events="none" display="none"/></g></g></g><path class="foreground" aria-hidden="true" d="" display="none"/></g></g></g><defs><clipPath id="clip8"><path d="M6,0L138,0C141.311490146964,0,144,2.688509853036,144,6L144,161.8881084648416C144,161.8881084648416,144,161.8881084648416,144,161.8881084648416L0,161.8881084648416C0,161.8881084648416,0,161.8881084648416,0,161.8881084648416L0,6C0,2.688509853036,2.688509853036,0,6,0Z"/></clipPath><clipPath id="clip9"><path d="M6,0L138,0C141.311490146964,0,144,2.688509853036,144,6L144,205.57899205745952C144,205.57899205745952,144,205.57899205745952,144,205.57899205745952L0,205.57899205745952C0,205.57899205745952,0,205.57899205745952,0,205.57899205745952L0,6C0,2.688509853036,2.688509853036,0,6,0Z"/></clipPath><clipPath id="clip10"><path d="M6,0L138,0C141.311490146964,0,144,2.688509853036,144,6L144,251.76267688134783C144,251.76267688134783,144,251.76267688134783,144,251.76267688134783L0,251.76267688134783C0,251.76267688134783,0,251.76267688134783,0,251.76267688134783L0,6C0,2.688509853036,2.688509853036,0,6,0Z"/></clipPath><clipPath id="clip11"><path d="M6,0L138,0C141.311490146964,0,144,2.688509853036,144,6L144,391.4524492311573C144,391.4524492311573,144,391.4524492311573,144,391.4524492311573L0,391.4524492311573C0,391.4524492311573,0,391.4524492311573,0,391.4524492311573L0,6C0,2.688509853036,2.688509853036,0,6,0Z"/></clipPath><clipPath id="clip12"><path d="M6,0L138,0C141.311490146964,0,144,2.688509853036,144,6L144,576.9230769230769C144,576.9230769230769,144,576.9230769230769,144,576.9230769230769L0,576.9230769230769C0,576.9230769230769,0,576.9230769230769,0,576.9230769230769L0,6C0,2.688509853036,2.688509853036,0,6,0Z"/></clipPath></defs></svg>