<svg xmlns="http://www.w3.org/2000/svg" xmlns:xlink="http://www.w3.org/1999/xlink" version="1.1" class="marks" width="846" height="687" viewBox="0 0 846 687"><rect width="846" height="687" fill="white"/><g fill="none" stroke-miterlimit="10" transform="translate(41,36)"><g class="mark-group role-frame root" role="graphics-object" aria-roledescription="group mark container"><g transform="translate(0,0)"><path class="background" aria-hidden="true" d="M0.5,0.5h800v600h-800Z" stroke="#ddd"/><g><g class="mark-group role-axis" role="graphics-symbol" aria-roledescription="axis" aria-label="X-axis titled 'Implementation' for a discrete scale with 6 values: c_uuid_v7.compat&#xA;0.0.6.dev24+gd7d1e44fc.d20260402, uuid_utils.compat&#xA;0.14.1, lastuuid&#xA;0.5.0, uuid&#xA;stdlib, uuid6&#xA;2025.0.1, uuid_v7&#xA;1.0.0"><g transform="translate(0.5,600.5)"><path class="background" aria-hidden="true" d="M0,0h0v0h0Z" pointer-events="none"/><g><g class="mark-rule role-axis-tick" pointer-events="none"><line transform="translate(66,0)" x2="0" y2="5" stroke="#888" stroke-width="1" opacity="1"/><line transform="translate(199,0)" x2="0" y2="5" stroke="#888" stroke-width="1" opacity="1"/><line transform="translate(333,0)" x2="0" y2="5" stroke="#888" stroke-width="1" opacity="1"/><line transform="translate(466,0)" x2="0" y2="5" stroke="#888" stroke-width="1" opacity="1"/><line transform="translate(600,0)" x2="0" y2="5" stroke="#888" stroke-width="1" opacity="1"/><line transform="translate(733,0)" x2="0" y2="5" stroke="#888" stroke-width="1" opacity="1"/></g><g class="mark-text role-axis-label" pointer-events="none"><text text-anchor="middle" transform="translate(66.16666666666663,15)" font-family="sans-serif" font-size="10px" fill="#000" opacity="1"><tspan>c_uuid_v7.compat</tspan><tspan x="0" dy="14">0.0.6.dev24+gd7d1e44fc.d20260402</tspan></text><text text-anchor="middle" transform="translate(199.49999999999997,15)" font-family="sans-serif" font-size="10px" fill="#000" opacity="1"><tspan>uuid_utils.compat</tspan><tspan x="0" dy="14">0.14.1</tspan></text><text text-anchor="middle" transform="translate(332.8333333333333,15)" font-family="sans-serif" font-size="10px" fill="#000" opacity="1"><tspan>lastuuid</tspan><tspan x="0" dy="14">0.5.0</tspan></text><text text-anchor="middle" transform="translate(466.16666666666663,15)" font-family="sans-serif" font-size="10px" fill="#000" opacity="1"><tspan>uuid</tspan><tspan x="0" dy="14">stdlib</tspan></text><text text-anchor="middle" transform="translate(599.5,15)" font-family="sans-serif" font-size="10px" fill="#000" opacity="1"><tspan>uuid6</tspan><tspan x="0" dy="14">2025.0.1</tspan></text><text text-anchor="middle" transform="translate(732.8333333333334,15)" font-family="sans-serif" font-size="10px" fill="#000" opacity="1"><tspan>uuid_v7</tspan><tspan x="0" dy="14">1.0.0</tspan></text></g><g class="mark-rule role-axis-domain" pointer-events="none"><line transform="translate(0,0)" x2="800" y2="0" stroke="#888" stroke-width="1" opacity="1"/></g><g class="mark-text role-axis-title" pointer-events="none"><text text-anchor="middle" transform="translate(400,44)" font-family="sans-serif" font-size="11px" font-weight="bold" fill="#000" opacity="1">Implementation</text></g></g><path class="foreground" aria-hidden="true" d="" pointer-events="none" display="none"/></g></g><g class="mark-group role-axis" role="graphics-symbol" aria-roledescription="axis" aria-label="Y-axis titled 'Execution Time (seconds, lower=better)' for a linear scale with values from 0.0 to 1.6"><g transform="translate(0.5,0.5)"><path class="background" aria-hidden="true" d="M0,0h0v0h0Z" pointer-events="none"/><g><g class="mark-rule role-axis-tick" pointer-events="none"><line transform="translate(0,600)" x2="-5" y2="0" stroke="#888" stroke-width="1" opacity="1"/><line transform="translate(0,563)" x2="-5" y2="0" stroke="#888" stroke-width="1" opacity="1"/><line transform="translate(0,526)" x2="-5" y2="0" stroke="#888" stroke-width="1" opacity="1"/><line transform="translate(0,489)" x2="-5" y2="0" stroke="#888" stroke-width="1" opacity="1"/><line transform="translate(0,452)" x2="-5" y2="0" stroke="#888" stroke-width="1" opacity="1"/><line transform="translate(0,415)" x2="-5" y2="0" stroke="#888" stroke-width="1" opacity="1"/><line transform="translate(0,378)" x2="-5" y2="0" stroke="#888" stroke-width="1" opacity="1"/><line transform="translate(0,341)" x2="-5" y2="0" stroke="#888" stroke-width="1" opacity="1"/><line transform="translate(0,305)" x2="-5" y2="0" stroke="#888" stroke-width="1" opacity="1"/><line transform="translate(0,268)" x2="-5" y2="0" stroke="#888" stroke-width="1" opacity="1"/><line transform="translate(0,231)" x2="-5" y2="0" stroke="#888" stroke-width="1" opacity="1"/><line transform="translate(0,194)" x2="-5" y2="0" stroke="#888" stroke-width="1" opacity="1"/><line transform="translate(0,157)" x2="-5" y2="0" stroke="#888" stroke-width="1" opacity="1"/><line transform="translate(0,120)" x2="-5" y2="0" stroke="#888" stroke-width="1" opacity="1"/><line transform="translate(0,83)" x2="-5" y2="0" stroke="#888" stroke-width="1" opacity="1"/><line transform="translate(0,46)" x2="-5" y2="0" stroke="#888" stroke-width="1" opacity="1"/><line transform="translate(0,9)" x2="-5" y2="0" stroke="#888" stroke-width="1" opacity="1"/></g><g class="mark-text role-axis-label" pointer-events="none"><text text-anchor="end" transform="translate(-7,603)" font-family="sans-serif" font-size="10px" fill="#000" opacity="1">0.0</text><text text-anchor="end" transform="translate(-7,566.0662790739786)" font-family="sans-serif" font-size="10px" fill="#000" opacity="1">0.1</text><text text-anchor="end" transform="translate(-7,529.1325581479574)" font-family="sans-serif" font-size="10px" fill="#000" opacity="1">0.2</text><text text-anchor="end" transform="translate(-7,492.1988372219361)" font-family="sans-serif" font-size="10px" fill="#000" opacity="1">0.3</text><text text-anchor="end" transform="translate(-7,455.2651162959148)" font-family="sans-serif" font-size="10px" fill="#000" opacity="1">0.4</text><text text-anchor="end" transform="translate(-7,418.3313953698935)" font-family="sans-serif" font-size="10px" fill="#000" opacity="1">0.5</text><text text-anchor="end" transform="translate(-7,381.39767444387223)" font-family="sans-serif" font-size="10px" fill="#000" opacity="1">0.6</text><text text-anchor="end" transform="translate(-7,344.46395351785094)" font-family="sans-serif" font-size="10px" fill="#000" opacity="1">0.7</text><text text-anchor="end" transform="translate(-7,307.53023259182964)" font-family="sans-serif" font-size="10px" fill="#000" opacity="1">0.8</text><text text-anchor="end" transform="translate(-7,270.5965116658083)" font-family="sans-serif" font-size="10px" fill="#000" opacity="1">0.9</text><text text-anchor="end" transform="translate(-7,233.66279073978697)" font-family="sans-serif" font-size="10px" fill="#000" opacity="1">1.0</text><text text-anchor="end" transform="translate(-7,196.72906981376568)" font-family="sans-serif" font-size="10px" fill="#000" opacity="1">1.1</text><text text-anchor="end" transform="translate(-7,159.79534888774444)" font-family="sans-serif" font-size="10px" fill="#000" opacity="1">1.2</text><text text-anchor="end" transform="translate(-7,122.86162796172309)" font-family="sans-serif" font-size="10px" fill="#000" opacity="1">1.3</text><text text-anchor="end" transform="translate(-7,85.92790703570185)" font-family="sans-serif" font-size="10px" fill="#000" opacity="1">1.4</text><text text-anchor="end" transform="translate(-7,48.99418610968049)" font-family="sans-serif" font-size="10px" fill="#000" opacity="1">1.5</text><text text-anchor="end" transform="translate(-7,12.060465183659193)" font-family="sans-serif" font-size="10px" fill="#000" opacity="1">1.6</text></g><g class="mark-rule role-axis-domain" pointer-events="none"><line transform="translate(0,600)" x2="0" y2="-600" stroke="#888" stroke-width="1" opacity="1"/></g><g class="mark-text role-axis-title" pointer-events="none"><text text-anchor="middle" transform="translate(-24.9013671875,300) rotate(-90) translate(0,-2)" font-family="sans-serif" font-size="11px" font-weight="bold" fill="#000" opacity="1">Execution Time (seconds, lower=better)</text></g></g><path class="foreground" aria-hidden="true" d="" pointer-events="none" display="none"/></g></g><g class="mark-group role-scope" role="graphics-object" aria-roledescription="group mark container"><g transform="translate(6.666666666666629,480.42508408083086)"><path class="background" aria-hidden="true" d="M6,0L114.00000000000001,0C117.31149014696402,0,120.00000000000001,2.688509853036,120.00000000000001,6L120.00000000000001,119.57491591916914C120.00000000000001,119.57491591916914,120.00000000000001,119.57491591916914,120.00000000000001,119.57491591916914L0,119.57491591916914C0,119.57491591916914,0,119.57491591916914,0,119.57491591916914L0,6C0,2.688509853036,2.688509853036,0,6,0Z"/><g clip-path="url(#clip9)"><g class="mark-group role-scope" role="graphics-object" aria-roledescription="group mark container"><g transform="translate(0,-480.42508408083086)"><path class="background" aria-hidden="true" d="M0,0h120.00000000000001v0h-120.00000000000001Z"/><g><g class="mark-rect role-mark layer_0_marks" role="graphics-object" aria-roledescription="rect mark container"><path aria-label="Implementation: c_uuid_v7.compat&#xA;0.0.6.dev24+gd7d1e44fc.d20260402; Execution Time (seconds, lower=better): 0.323755400001; implementation: c_uuid_v7.compat; Execution Time (s): 0.3238; Slowdown: 1.00" role="graphics-symbol" aria-roledescription="bar" d="M0,480.42508408083086h120.00000000000001v119.57491591916914h-120.00000000000001Z" fill="#1b9e77"/></g></g><path class="foreground" aria-hidden="true" d="" display="none"/></g></g></g><path class="foreground" aria-hidden="true" d="" display="none"/></g><g transform="translate(139.99999999999997,393.5007224064716)"><path class="background" aria-hidden="true" d="M6,0L114.00000000000001,0C117.31149014696402,0,120.00000000000001,2.688509853036,120.00000000000001,6L120.00000000000001,206.4992775935284C120.00000000000001,206.4992775935284,120.00000000000001,206.4992775935284,120.00000000000001,206.4992775935284L0,206.4992775935284C0,206.4992775935284,0,206.4992775935284,0,206.4992775935284L0,6C0,2.688509853036,2.688509853036,0,6,0Z"/><g clip-path="url(#clip10)"><g class="mark-group role-scope" role="graphics-object" aria-roledescription="group mark container"><g transform="translate(0,-393.5007224064716)"><path class="background" aria-hidden="true" d="M0,0h120.00000000000001v0h-120.00000000000001Z"/><g><g class="mark-rect role-mark layer_0_marks" role="graphics-object" aria-roledescription="rect mark container"><path aria-label="Implementation: uuid_utils.compat&#xA;0.14.1; Execution Time (seconds, lower=better): 0.559107699999; implementation: uuid_utils.compat; Execution Time (s): 0.5591; Slowdown: 1.73" role="graphics-symbol" aria-roledescription="bar" d="M0,393.5007224064716h120.00000000000001v206.4992775935284h-120.00000000000001Z" fill="#66a61e"/></g></g><path class="foreground" aria-hidden="true" d="" display="none"/></g></g></g><path class="foreground" aria-hidden="true" d="" display="none"/></g><g transform="translate(273.3333333333333,333.3893557135461)"><path class="background" aria-hidden="true" d="M6,0L114.00000000000001,0C117.31149014696402,0,120.00000000000001,2.688509853036,120.00000000000001,6L120.00000000000001,266.6106442864539C120.00000000000001,266.6106442864539,120.00000000000001,266.6106442864539,120.00000000000001,266.6106442864539L0,266.6106442864539C0,266.6106442864539,0,266.6106442864539,0,266.6106442864539L0,6C0,2.688509853036,2.688509853036,0,6,0Z"/><g clip-path="url(#clip11)"><g class="mark-group role-scope" role="graphics-object" aria-roledescription="group mark container"><g transform="translate(0,-333.3893557135461)"><path class="background" aria-hidden="true" d="M0,0h120.00000000000001v0h-120.00000000000001Z"/><g><g class="mark-rect role-mark layer_0_marks" role="graphics-object" aria-roledescription="rect mark container"><path aria-label="Implementation: lastuuid&#xA;0.5.0; Execution Time (seconds, lower=better): 0.721862400002; implementation: lastuuid; Execution Time (s): 0.7219; Slowdown: 2.23" role="graphics-symbol" aria-roledescription="bar" d="M0,333.3893557135461h120.00000000000001v266.6106442864539h-120.00000000000001Z" fill="#d95f02"/></g></g><path class="foreground" aria-hidden="true" d="" display="none"/></g></g></g><path class="foreground" aria-hidden="true" d="" display="none"/></g><g transform="translate(406.66666666666663,298.26985609272924)"><path class="background" aria-hidden="true" d="M6,0L114.00000000000001,0C117.31149014696402,0,120.00000000000001,2.688509853036,120.00000000000001,6L120.00000000000001,301.73014390727076C120.00000000000001,301.73014390727076,120.00000000000001,301.73014390727076,120.00000000000001,301.73014390727076L0,301.73014390727076C0,301.73014390727076,0,301.73014390727076,0,301.73014390727076L0,6C0,2.688509853036,2.688509853036,0,6,0Z"/><g clip-path="url(#clip12)"><g class="mark-group role-scope" role="graphics-object" aria-roledescription="group mark container"><g transform="translate(0,-298.26985609272924)"><path class="background" aria-hidden="true" d="M0,0h120.00000000000001v0h-120.00000000000001Z"/><g><g class="mark-rect role-mark layer_0_marks" role="graphics-object" aria-roledescription="rect mark container"><path aria-label="Implementation: uuid&#xA;stdlib; Execution Time (seconds, lower=better): 0.816950300003; implementation: uuid; Execution Time (s): 0.8170; Slowdown: 2.52" role="graphics-symbol" aria-roledescription="bar" d="M0,298.26985609272924h120.00000000000001v301.73014390727076h-120.00000000000001Z" fill="#7570b3"/></g></g><path class="foreground" aria-hidden="true" d="" display="none"/></g></g></g><path class="foreground" aria-hidden="true" d="" display="none"/></g><g transform="translate(540,211.0062581910304)"><path class="background" aria-hidden="true" d="M6,0L114.00000000000001,0C117.31149014696402,0,120.00000000000001,2.688509853036,120.00000000000001,6L120.00000000000001,388.9937418089696C120.00000000000001,388.9937418089696,120.00000000000001,388.9937418089696,120.00000000000001,388.9937418089696L0,388.9937418089696C0,388.9937418089696,0,388.9937418089696,0,388.9937418089696L0,6C0,2.688509853036,2.688509853036,0,6,0Z"/><g clip-path="url(#clip13)"><g class="mark-group role-scope" role="graphics-object" aria-roledescription="group mark container"><g transform="translate(0,-211.0062581910304)"><path class="background" aria-hidden="true" d="M0,0h120.00000000000001v0h-120.00000000000001Z"/><g><g class="mark-rect role-mark layer_0_marks" role="graphics-object" aria-roledescription="rect mark container"><path aria-label="Implementation: uuid6&#xA;2025.0.1; Execution Time (seconds, lower=better): 1.0532211; implementation: uuid6; Execution Time (s): 1.0532; Slowdown: 3.25" role="graphics-symbol" aria-roledescription="bar" d="M0,211.0062581910304h120.00000000000001v388.9937418089696h-120.00000000000001Z" fill="#e7298a"/></g></g><path class="foreground" aria-hidden="true" d="" display="none"/></g></g></g><path class="foreground" aria-hidden="true" d="" display="none"/></g><g transform="translate(673.3333333333334,23.076923076923062)"><path class="background" aria-hidden="true" d="M6,0L114.00000000000001,0C117.31149014696402,0,120.00000000000001,2.688509853036,120.00000000000001,6L120.00000000000001,576.9230769230769C120.00000000000001,576.9230769230769,120.00000000000001,576.9230769230769,120.00000000000001,576.9230769230769L0,576.9230769230769C0,576.9230769230769,0,576.9230769230769,0,576.9230769230769L0,6C0,2.688509853036,2.688509853036,0,6,0Z"/><g clip-path="url(#clip14)"><g class="mark-group role-scope" role="graphics-object" aria-roledescription="group mark container"><g transform="translate(0,-23.076923076923062)"><path class="background" aria-hidden="true" d="M0,0h120.00000000000001v0h-120.00000000000001Z"/><g><g class="mark-rect role-mark layer_0_marks" role="graphics-object" aria-roledescription="rect mark container"><path aria-label="Implementation: uuid_v7&#xA;1.0.0; Execution Time (seconds, lower=better): 1.5620497; implementation: uuid_v7; Execution Time (s): 1.5620; Slowdown: 4.82" role="graphics-symbol" aria-roledescription="bar" d="M0,23.076923076923062h120.00000000000001v576.9230769230769h-120.00000000000001Z" fill="#e6ab02"/></g></g><path class="foreground" aria-hidden="true" d="" display="none"/></g></g></g><path class="foreground" aria-hidden="true" d="" display="none"/></g></g><g class="mark-text role-mark layer_1_marks" role="graphics-object" aria-roledescription="text mark container"><text aria-label="Implementation: c_uuid_v7.compat&#xA;0.0.6.dev24+gd7d1e44fc.d20260402; Execution Time (seconds, lower=better): 0.323755400001; implementation: c_uuid_v7.compat; label: 0.3238s (x1.00); Execution Time (s): 0.3238; Slowdown: 1.00" role="graphics-symbol" aria-roledescription="text mark" text-anchor="middle" transform="translate(66.66666666666663,476.42508408083086)" font-family="sans-serif" font-size="9px" font-weight="bold" fill="#1b9e77">0.3238s (x1.00)</text><text aria-label="Implementation: uuid_utils.compat&#xA;0.14.1; Execution Time (seconds, lower=better): 0.559107699999; implementation: uuid_utils.compat; label: 0.5591s (x1.73); Execution Time (s): 0.5591; Slowdown: 1.73" role="graphics-symbol" aria-roledescription="text mark" text-anchor="middle" transform="translate(199.99999999999997,389.5007224064716)" font-family="sans-serif" font-size="9px" font-weight="bold" fill="#66a61e">0.5591s (x1.73)</text><text aria-label="Implementation: lastuuid&#xA;0.5.0; Execution Time (seconds, lower=better): 0.721862400002; implementation: lastuuid; label: 0.7219s (x2.23); Execution Time (s): 0.7219; Slowdown: 2.23" role="graphics-symbol" aria-roledescription="text mark" text-anchor="middle" transform="translate(333.3333333333333,329.3893557135461)" font-family="sans-serif" font-size="9px" font-weight="bold" fill="#d95f02">0.7219s (x2.23)</text><text aria-label="Implementation: uuid&#xA;stdlib; Execution Time (seconds, lower=better): 0.816950300003; implementation: uuid; label: 0.8170s (x2.52); Execution Time (s): 0.8170; Slowdown: 2.52" role="graphics-symbol" aria-roledescription="text mark" text-anchor="middle" transform="translate(466.66666666666663,294.26985609272924)" font-family="sans-serif" font-size="9px" font-weight="bold" fill="#7570b3">0.8170s (x2.52)</text><text aria-label="Implementation: uuid6&#xA;2025.0.1; Execution Time (seconds, lower=better): 1.0532211; implementation: uuid6; label: 1.0532s (x3.25); Execution Time (s): 1.0532; Slowdown: 3.25" role="graphics-symbol" aria-roledescription="text mark" text-anchor="middle" transform="translate(600,207.0062581910304)" font-family="sans-serif" font-size="9px" font-weight="bold" fill="#e7298a">1.0532s (x3.25)</text><text aria-label="Implementation: uuid_v7&#xA;1.0.0; Execution Time (seconds, lower=better): 1.5620497; implementation: uuid_v7; label: 1.5620s (x4.82); Execution Time (s): 1.5620; Slowdown: 4.82" role="graphics-symbol" aria-roledescription="text mark" text-anchor="middle" transform="translate(733.3333333333334,19.076923076923062)" font-family="sans-serif" font-size="9px" font-weight="bold" fill="#e6ab02">1.5620s (x4.82)</text></g><g class="mark-group role-title"><g transform="translate(400,-31)"><path class="background" aria-hidden="true" d="M0,0h0v0h0Z" pointer-events="none"/><g><g class="mark-text role-title-text" role="graphics-symbol" aria-roledescription="title" aria-label="Title text 'UUID v7 benchmark (uuid7() stdlib-compatible APIs)'" pointer-events="none"><text text-anchor="middle" transform="translate(0,10)" font-family="sans-serif" font-size="13px" font-weight="bold" fill="#000" opacity="1">UUID v7 benchmark (uuid7() stdlib-compatible APIs)</text></g><g class="mark-text role-title-subtitle" role="graphics-symbol" aria-roledescription="subtitle" aria-label="Subtitle text 'Python: 3.14.3 (Windows 10) | CPU: 11th Gen Intel(R) Core(TM) i5-11300H @ 3.10GHz'" pointer-events="none"><text text-anchor="middle" transform="translate(0,25)" font-family="sans-serif" font-size="12px" fill="#000" opacity="1">Python: 3.14.3 (Windows 10) | CPU: 11th Gen Intel(R) Core(TM) i5-11300H @ 3.10GHz</text></g></g><path class="foreground" aria-hidden="true" d="" pointer-events="none" display="none"/></g></g></g><path class="foreground" aria-hidden="true" d="" display="none"/></g></g></g><defs><clipPath id="clip9"><path d="M6,0L114.00000000000001,0C117.31149014696402,0,120.00000000000001,2.688509853036,120.00000000000001,6L120.00000000000001,119.57491591916914C120.00000000000001,119.57491591916914,120.00000000000001,119.57491591916914,120.00000000000001,119.57491591916914L0,119.57491591916914C0,119.57491591916914,0,119.57491591916914,0,119.57491591916914L0,6C0,2.688509853036,2.688509853036,0,6,0Z"/></clipPath><clipPath id="clip10"><path d="M6,0L114.00000000000001,0C117.31149014696402,0,120.00000000000001,2.688509853036,120.00000000000001,6L120.00000000000001,206.4992775935284C120.00000000000001,206.4992775935284,120.00000000000001,206.4992775935284,120.00000000000001,206.4992775935284L0,206.4992775935284C0,206.4992775935284,0,206.4992775935284,0,206.4992775935284L0,6C0,2.688509853036,2.688509853036,0,6,0Z"/></clipPath><clipPath id="clip11"><path d="M6,0L114.00000000000001,0C117.31149014696402,0,120.00000000000001,2.688509853036,120.00000000000001,6L120.00000000000001,266.6106442864539C120.00000000000001,266.6106442864539,120.00000000000001,266.6106442864539,120.00000000000001,266.6106442864539L0,266.6106442864539C0,266.6106442864539,0,266.6106442864539,0,266.6106442864539L0,6C0,2.688509853036,2.688509853036,0,6,0Z"/></clipPath><clipPath id="clip12"><path d="M6,0L114.00000000000001,0C117.31149014696402,0,120.00000000000001,2.688509853036,120.00000000000001,6L120.00000000000001,301.73014390727076C120.00000000000001,301.73014390727076,120.00000000000001,301.73014390727076,120.00000000000001,301.73014390727076L0,301.73014390727076C0,301.73014390727076,0,301.73014390727076,0,301.73014390727076L0,6C0,2.688509853036,2.688509853036,0,6,0Z"/></clipPath><clipPath id="clip13"><path d="M6,0L114.00000000000001,0C117.31149014696402,0,120.00000000000001,2.688509853036,120.00000000000001,6L120.00000000000001,388.9937418089696C120.00000000000001,388.9937418089696,120.00000000000001,388.9937418089696,120.00000000000001,388.9937418089696L0,388.9937418089696C0,388.9937418089696,0,388.9937418089696,0,388.9937418089696L0,6C0,2.688509853036,2.688509853036,0,6,0Z"/></clipPath><clipPath id="clip14"><path d="M6,0L114.00000000000001,0C117.31149014696402,0,120.00000000000001,2.688509853036,120.00000000000001,6L120.00000000000001,576.9230769230769C120.00000000000001,576.9230769230769,120.00000000000001,576.9230769230769,120.00000000000001,576.9230769230769L0,576.9230769230769C0,576.9230769230769,0,576.9230769230769,0,576.9230769230769L0,6C0,2.688509853036,2.688509853036,0,6,0Z"/></clipPath></defs></svg>