<svg xmlns="http://www.w3.org/2000/svg" xmlns:xlink="http://www.w3.org/1999/xlink" version="1.1" class="marks" width="846" height="687" viewBox="0 0 846 687"><rect width="846" height="687" fill="white"/><g fill="none" stroke-miterlimit="10" transform="translate(41,36)"><g class="mark-group role-frame root" role="graphics-object" aria-roledescription="group mark container"><g transform="translate(0,0)"><path class="background" aria-hidden="true" d="M0.5,0.5h800v600h-800Z" stroke="#ddd"/><g><g class="mark-group role-axis" role="graphics-symbol" aria-roledescription="axis" aria-label="X-axis titled 'Implementation' for a discrete scale with 6 values: c_uuid_v7&#xA;v0.1.dev29+geda9f2e1f.d20260323, uuid_utils&#xA;v0.14.1, UUIDv7gen&#xA;v1.0.3, lastuuid&#xA;v0.5.0, uuid6&#xA;v2025.0.1, uuid_v7&#xA;v1.0.0"><g transform="translate(0.5,600.5)"><path class="background" aria-hidden="true" d="M0,0h0v0h0Z" pointer-events="none"/><g><g class="mark-rule role-axis-tick" pointer-events="none"><line transform="translate(66,0)" x2="0" y2="5" stroke="#888" stroke-width="1" opacity="1"/><line transform="translate(199,0)" x2="0" y2="5" stroke="#888" stroke-width="1" opacity="1"/><line transform="translate(333,0)" x2="0" y2="5" stroke="#888" stroke-width="1" opacity="1"/><line transform="translate(466,0)" x2="0" y2="5" stroke="#888" stroke-width="1" opacity="1"/><line transform="translate(600,0)" x2="0" y2="5" stroke="#888" stroke-width="1" opacity="1"/><line transform="translate(733,0)" x2="0" y2="5" stroke="#888" stroke-width="1" opacity="1"/></g><g class="mark-text role-axis-label" pointer-events="none"><text text-anchor="middle" transform="translate(66.16666666666663,15)" font-family="sans-serif" font-size="10px" fill="#000" opacity="1"><tspan>c_uuid_v7</tspan><tspan x="0" dy="14">v0.1.dev29+geda9f2e1f.d20260323</tspan></text><text text-anchor="middle" transform="translate(199.49999999999997,15)" font-family="sans-serif" font-size="10px" fill="#000" opacity="1"><tspan>uuid_utils</tspan><tspan x="0" dy="14">v0.14.1</tspan></text><text text-anchor="middle" transform="translate(332.8333333333333,15)" font-family="sans-serif" font-size="10px" fill="#000" opacity="1"><tspan>UUIDv7gen</tspan><tspan x="0" dy="14">v1.0.3</tspan></text><text text-anchor="middle" transform="translate(466.16666666666663,15)" font-family="sans-serif" font-size="10px" fill="#000" opacity="1"><tspan>lastuuid</tspan><tspan x="0" dy="14">v0.5.0</tspan></text><text text-anchor="middle" transform="translate(599.5,15)" font-family="sans-serif" font-size="10px" fill="#000" opacity="1"><tspan>uuid6</tspan><tspan x="0" dy="14">v2025.0.1</tspan></text><text text-anchor="middle" transform="translate(732.8333333333334,15)" font-family="sans-serif" font-size="10px" fill="#000" opacity="1"><tspan>uuid_v7</tspan><tspan x="0" dy="14">v1.0.0</tspan></text></g><g class="mark-rule role-axis-domain" pointer-events="none"><line transform="translate(0,0)" x2="800" y2="0" stroke="#888" stroke-width="1" opacity="1"/></g><g class="mark-text role-axis-title" pointer-events="none"><text text-anchor="middle" transform="translate(400,44)" font-family="sans-serif" font-size="11px" font-weight="bold" fill="#000" opacity="1">Implementation</text></g></g><path class="foreground" aria-hidden="true" d="" pointer-events="none" display="none"/></g></g><g class="mark-group role-axis" role="graphics-symbol" aria-roledescription="axis" aria-label="Y-axis titled 'Execution Time (seconds, lower=better)' for a linear scale with values from 0.0 to 1.6"><g transform="translate(0.5,0.5)"><path class="background" aria-hidden="true" d="M0,0h0v0h0Z" pointer-events="none"/><g><g class="mark-rule role-axis-tick" pointer-events="none"><line transform="translate(0,600)" x2="-5" y2="0" stroke="#888" stroke-width="1" opacity="1"/><line transform="translate(0,563)" x2="-5" y2="0" stroke="#888" stroke-width="1" opacity="1"/><line transform="translate(0,526)" x2="-5" y2="0" stroke="#888" stroke-width="1" opacity="1"/><line transform="translate(0,490)" x2="-5" y2="0" stroke="#888" stroke-width="1" opacity="1"/><line transform="translate(0,453)" x2="-5" y2="0" stroke="#888" stroke-width="1" opacity="1"/><line transform="translate(0,416)" x2="-5" y2="0" stroke="#888" stroke-width="1" opacity="1"/><line transform="translate(0,379)" x2="-5" y2="0" stroke="#888" stroke-width="1" opacity="1"/><line transform="translate(0,343)" x2="-5" y2="0" stroke="#888" stroke-width="1" opacity="1"/><line transform="translate(0,306)" x2="-5" y2="0" stroke="#888" stroke-width="1" opacity="1"/><line transform="translate(0,269)" x2="-5" y2="0" stroke="#888" stroke-width="1" opacity="1"/><line transform="translate(0,232)" x2="-5" y2="0" stroke="#888" stroke-width="1" opacity="1"/><line transform="translate(0,195)" x2="-5" y2="0" stroke="#888" stroke-width="1" opacity="1"/><line transform="translate(0,159)" x2="-5" y2="0" stroke="#888" stroke-width="1" opacity="1"/><line transform="translate(0,122)" x2="-5" y2="0" stroke="#888" stroke-width="1" opacity="1"/><line transform="translate(0,85)" x2="-5" y2="0" stroke="#888" stroke-width="1" opacity="1"/><line transform="translate(0,48)" x2="-5" y2="0" stroke="#888" stroke-width="1" opacity="1"/><line transform="translate(0,12)" x2="-5" y2="0" stroke="#888" stroke-width="1" opacity="1"/></g><g class="mark-text role-axis-label" pointer-events="none"><text text-anchor="end" transform="translate(-7,603)" font-family="sans-serif" font-size="10px" fill="#000" opacity="1">0.0</text><text text-anchor="end" transform="translate(-7,566.2226531666364)" font-family="sans-serif" font-size="10px" fill="#000" opacity="1">0.1</text><text text-anchor="end" transform="translate(-7,529.4453063332727)" font-family="sans-serif" font-size="10px" fill="#000" opacity="1">0.2</text><text text-anchor="end" transform="translate(-7,492.66795949990905)" font-family="sans-serif" font-size="10px" fill="#000" opacity="1">0.3</text><text text-anchor="end" transform="translate(-7,455.8906126665454)" font-family="sans-serif" font-size="10px" fill="#000" opacity="1">0.4</text><text text-anchor="end" transform="translate(-7,419.11326583318174)" font-family="sans-serif" font-size="10px" fill="#000" opacity="1">0.5</text><text text-anchor="end" transform="translate(-7,382.33591899981815)" font-family="sans-serif" font-size="10px" fill="#000" opacity="1">0.6</text><text text-anchor="end" transform="translate(-7,345.55857216645444)" font-family="sans-serif" font-size="10px" fill="#000" opacity="1">0.7</text><text text-anchor="end" transform="translate(-7,308.78122533309073)" font-family="sans-serif" font-size="10px" fill="#000" opacity="1">0.8</text><text text-anchor="end" transform="translate(-7,272.00387849972714)" font-family="sans-serif" font-size="10px" fill="#000" opacity="1">0.9</text><text text-anchor="end" transform="translate(-7,235.2265316663635)" font-family="sans-serif" font-size="10px" fill="#000" opacity="1">1.0</text><text text-anchor="end" transform="translate(-7,198.44918483299983)" font-family="sans-serif" font-size="10px" fill="#000" opacity="1">1.1</text><text text-anchor="end" transform="translate(-7,161.6718379996362)" font-family="sans-serif" font-size="10px" fill="#000" opacity="1">1.2</text><text text-anchor="end" transform="translate(-7,124.89449116627257)" font-family="sans-serif" font-size="10px" fill="#000" opacity="1">1.3</text><text text-anchor="end" transform="translate(-7,88.11714433290895)" font-family="sans-serif" font-size="10px" fill="#000" opacity="1">1.4</text><text text-anchor="end" transform="translate(-7,51.33979749954527)" font-family="sans-serif" font-size="10px" fill="#000" opacity="1">1.5</text><text text-anchor="end" transform="translate(-7,14.56245066618158)" font-family="sans-serif" font-size="10px" fill="#000" opacity="1">1.6</text></g><g class="mark-rule role-axis-domain" pointer-events="none"><line transform="translate(0,600)" x2="0" y2="-600" stroke="#888" stroke-width="1" opacity="1"/></g><g class="mark-text role-axis-title" pointer-events="none"><text text-anchor="middle" transform="translate(-24.9013671875,300) rotate(-90) translate(0,-2)" font-family="sans-serif" font-size="11px" font-weight="bold" fill="#000" opacity="1">Execution Time (seconds, lower=better)</text></g></g><path class="foreground" aria-hidden="true" d="" pointer-events="none" display="none"/></g></g><g class="mark-group role-scope" role="graphics-object" aria-roledescription="group mark container"><g transform="translate(6.666666666666629,595.2802527490808)"><path class="background" aria-hidden="true" d="M2.3598736254596133,0L117.6401263745404,0C118.94257608433868,0,120.00000000000001,1.0574239156613263,120.00000000000001,2.3598736254596133L120.00000000000001,4.719747250919227C120.00000000000001,4.719747250919227,120.00000000000001,4.719747250919227,120.00000000000001,4.719747250919227L0,4.719747250919227C0,4.719747250919227,0,4.719747250919227,0,4.719747250919227L0,2.3598736254596133C0,1.0574239156613263,1.0574239156613263,0,2.3598736254596133,0Z"/><g clip-path="url(#clip1)"><g class="mark-group role-scope" role="graphics-object" aria-roledescription="group mark container"><g transform="translate(0,-595.2802527490808)"><path class="background" aria-hidden="true" d="M0,0h120.00000000000001v0h-120.00000000000001Z"/><g><g class="mark-rect role-mark layer_0_marks" role="graphics-object" aria-roledescription="rect mark container"><path aria-label="Implementation: c_uuid_v7&#xA;v0.1.dev29+geda9f2e1f.d20260323; Execution Time (seconds, lower=better): 0.0128332999993; implementation: c_uuid_v7; Execution Time (s): 0.0128; Slowdown: 1.00" role="graphics-symbol" aria-roledescription="bar" d="M0,595.2802527490808h120.00000000000001v4.719747250919227h-120.00000000000001Z" fill="#d95f02"/></g></g><path class="foreground" aria-hidden="true" d="" display="none"/></g></g></g><path class="foreground" aria-hidden="true" d="" display="none"/></g><g transform="translate(139.99999999999997,575.2032048935026)"><path class="background" aria-hidden="true" d="M6,0L114.00000000000001,0C117.31149014696402,0,120.00000000000001,2.688509853036,120.00000000000001,6L120.00000000000001,24.79679510649737C120.00000000000001,24.79679510649737,120.00000000000001,24.79679510649737,120.00000000000001,24.79679510649737L0,24.79679510649737C0,24.79679510649737,0,24.79679510649737,0,24.79679510649737L0,6C0,2.688509853036,2.688509853036,0,6,0Z"/><g clip-path="url(#clip2)"><g class="mark-group role-scope" role="graphics-object" aria-roledescription="group mark container"><g transform="translate(0,-575.2032048935026)"><path class="background" aria-hidden="true" d="M0,0h120.00000000000001v0h-120.00000000000001Z"/><g><g class="mark-rect role-mark layer_0_marks" role="graphics-object" aria-roledescription="rect mark container"><path aria-label="Implementation: uuid_utils&#xA;v0.14.1; Execution Time (seconds, lower=better): 0.0674241000006; implementation: uuid_utils; Execution Time (s): 0.0674; Slowdown: 5.25" role="graphics-symbol" aria-roledescription="bar" d="M0,575.2032048935026h120.00000000000001v24.79679510649737h-120.00000000000001Z" fill="#66a61e"/></g></g><path class="foreground" aria-hidden="true" d="" display="none"/></g></g></g><path class="foreground" aria-hidden="true" d="" display="none"/></g><g transform="translate(273.3333333333333,343.23358359009353)"><path class="background" aria-hidden="true" d="M6,0L114.00000000000001,0C117.31149014696402,0,120.00000000000001,2.688509853036,120.00000000000001,6L120.00000000000001,256.76641640990647C120.00000000000001,256.76641640990647,120.00000000000001,256.76641640990647,120.00000000000001,256.76641640990647L0,256.76641640990647C0,256.76641640990647,0,256.76641640990647,0,256.76641640990647L0,6C0,2.688509853036,2.688509853036,0,6,0Z"/><g clip-path="url(#clip3)"><g class="mark-group role-scope" role="graphics-object" aria-roledescription="group mark container"><g transform="translate(0,-343.23358359009353)"><path class="background" aria-hidden="true" d="M0,0h120.00000000000001v0h-120.00000000000001Z"/><g><g class="mark-rect role-mark layer_0_marks" role="graphics-object" aria-roledescription="rect mark container"><path aria-label="Implementation: UUIDv7gen&#xA;v1.0.3; Execution Time (seconds, lower=better): 0.6981646; implementation: UUIDv7gen; Execution Time (s): 0.6982; Slowdown: 54.40" role="graphics-symbol" aria-roledescription="bar" d="M0,343.23358359009353h120.00000000000001v256.76641640990647h-120.00000000000001Z" fill="#1b9e77"/></g></g><path class="foreground" aria-hidden="true" d="" display="none"/></g></g></g><path class="foreground" aria-hidden="true" d="" display="none"/></g><g transform="translate(406.66666666666663,341.4319349238051)"><path class="background" aria-hidden="true" d="M6,0L114.00000000000001,0C117.31149014696402,0,120.00000000000001,2.688509853036,120.00000000000001,6L120.00000000000001,258.5680650761949C120.00000000000001,258.5680650761949,120.00000000000001,258.5680650761949,120.00000000000001,258.5680650761949L0,258.5680650761949C0,258.5680650761949,0,258.5680650761949,0,258.5680650761949L0,6C0,2.688509853036,2.688509853036,0,6,0Z"/><g clip-path="url(#clip4)"><g class="mark-group role-scope" role="graphics-object" aria-roledescription="group mark container"><g transform="translate(0,-341.4319349238051)"><path class="background" aria-hidden="true" d="M0,0h120.00000000000001v0h-120.00000000000001Z"/><g><g class="mark-rect role-mark layer_0_marks" role="graphics-object" aria-roledescription="rect mark container"><path aria-label="Implementation: lastuuid&#xA;v0.5.0; Execution Time (seconds, lower=better): 0.703063399999; implementation: lastuuid; Execution Time (s): 0.7031; Slowdown: 54.78" role="graphics-symbol" aria-roledescription="bar" d="M0,341.4319349238051h120.00000000000001v258.5680650761949h-120.00000000000001Z" fill="#7570b3"/></g></g><path class="foreground" aria-hidden="true" d="" display="none"/></g></g></g><path class="foreground" aria-hidden="true" d="" display="none"/></g><g transform="translate(540,222.30562169406102)"><path class="background" aria-hidden="true" d="M6,0L114.00000000000001,0C117.31149014696402,0,120.00000000000001,2.688509853036,120.00000000000001,6L120.00000000000001,377.694378305939C120.00000000000001,377.694378305939,120.00000000000001,377.694378305939,120.00000000000001,377.694378305939L0,377.694378305939C0,377.694378305939,0,377.694378305939,0,377.694378305939L0,6C0,2.688509853036,2.688509853036,0,6,0Z"/><g clip-path="url(#clip5)"><g class="mark-group role-scope" role="graphics-object" aria-roledescription="group mark container"><g transform="translate(0,-222.30562169406102)"><path class="background" aria-hidden="true" d="M0,0h120.00000000000001v0h-120.00000000000001Z"/><g><g class="mark-rect role-mark layer_0_marks" role="graphics-object" aria-roledescription="rect mark container"><path aria-label="Implementation: uuid6&#xA;v2025.0.1; Execution Time (seconds, lower=better): 1.0269756; implementation: uuid6; Execution Time (s): 1.0270; Slowdown: 80.02" role="graphics-symbol" aria-roledescription="bar" d="M0,222.30562169406102h120.00000000000001v377.694378305939h-120.00000000000001Z" fill="#e7298a"/></g></g><path class="foreground" aria-hidden="true" d="" display="none"/></g></g></g><path class="foreground" aria-hidden="true" d="" display="none"/></g><g transform="translate(673.3333333333334,23.07692307692313)"><path class="background" aria-hidden="true" d="M6,0L114.00000000000001,0C117.31149014696402,0,120.00000000000001,2.688509853036,120.00000000000001,6L120.00000000000001,576.9230769230769C120.00000000000001,576.9230769230769,120.00000000000001,576.9230769230769,120.00000000000001,576.9230769230769L0,576.9230769230769C0,576.9230769230769,0,576.9230769230769,0,576.9230769230769L0,6C0,2.688509853036,2.688509853036,0,6,0Z"/><g clip-path="url(#clip6)"><g class="mark-group role-scope" role="graphics-object" aria-roledescription="group mark container"><g transform="translate(0,-23.07692307692313)"><path class="background" aria-hidden="true" d="M0,0h120.00000000000001v0h-120.00000000000001Z"/><g><g class="mark-rect role-mark layer_0_marks" role="graphics-object" aria-roledescription="rect mark container"><path aria-label="Implementation: uuid_v7&#xA;v1.0.0; Execution Time (seconds, lower=better): 1.5686914; implementation: uuid_v7; Execution Time (s): 1.5687; Slowdown: 122.24" role="graphics-symbol" aria-roledescription="bar" d="M0,23.07692307692313h120.00000000000001v576.9230769230769h-120.00000000000001Z" fill="#e6ab02"/></g></g><path class="foreground" aria-hidden="true" d="" display="none"/></g></g></g><path class="foreground" aria-hidden="true" d="" display="none"/></g></g><g class="mark-text role-mark layer_1_marks" role="graphics-object" aria-roledescription="text mark container"><text aria-label="Implementation: c_uuid_v7&#xA;v0.1.dev29+geda9f2e1f.d20260323; Execution Time (seconds, lower=better): 0.0128332999993; implementation: c_uuid_v7; label: 0.0128s (x1.00); Execution Time (s): 0.0128; Slowdown: 1.00" role="graphics-symbol" aria-roledescription="text mark" text-anchor="middle" transform="translate(66.66666666666663,591.2802527490808)" font-family="sans-serif" font-size="9px" font-weight="bold" fill="#d95f02">0.0128s (x1.00)</text><text aria-label="Implementation: uuid_utils&#xA;v0.14.1; Execution Time (seconds, lower=better): 0.0674241000006; implementation: uuid_utils; label: 0.0674s (x5.25); Execution Time (s): 0.0674; Slowdown: 5.25" role="graphics-symbol" aria-roledescription="text mark" text-anchor="middle" transform="translate(199.99999999999997,571.2032048935026)" font-family="sans-serif" font-size="9px" font-weight="bold" fill="#66a61e">0.0674s (x5.25)</text><text aria-label="Implementation: UUIDv7gen&#xA;v1.0.3; Execution Time (seconds, lower=better): 0.6981646; implementation: UUIDv7gen; label: 0.6982s (x54.40); Execution Time (s): 0.6982; Slowdown: 54.40" role="graphics-symbol" aria-roledescription="text mark" text-anchor="middle" transform="translate(333.3333333333333,339.23358359009353)" font-family="sans-serif" font-size="9px" font-weight="bold" fill="#1b9e77">0.6982s (x54.40)</text><text aria-label="Implementation: lastuuid&#xA;v0.5.0; Execution Time (seconds, lower=better): 0.703063399999; implementation: lastuuid; label: 0.7031s (x54.78); Execution Time (s): 0.7031; Slowdown: 54.78" role="graphics-symbol" aria-roledescription="text mark" text-anchor="middle" transform="translate(466.66666666666663,337.4319349238051)" font-family="sans-serif" font-size="9px" font-weight="bold" fill="#7570b3">0.7031s (x54.78)</text><text aria-label="Implementation: uuid6&#xA;v2025.0.1; Execution Time (seconds, lower=better): 1.0269756; implementation: uuid6; label: 1.0270s (x80.02); Execution Time (s): 1.0270; Slowdown: 80.02" role="graphics-symbol" aria-roledescription="text mark" text-anchor="middle" transform="translate(600,218.30562169406102)" font-family="sans-serif" font-size="9px" font-weight="bold" fill="#e7298a">1.0270s (x80.02)</text><text aria-label="Implementation: uuid_v7&#xA;v1.0.0; Execution Time (seconds, lower=better): 1.5686914; implementation: uuid_v7; label: 1.5687s (x122.24); Execution Time (s): 1.5687; Slowdown: 122.24" role="graphics-symbol" aria-roledescription="text mark" text-anchor="middle" transform="translate(733.3333333333334,19.07692307692313)" font-family="sans-serif" font-size="9px" font-weight="bold" fill="#e6ab02">1.5687s (x122.24)</text></g><g class="mark-group role-title"><g transform="translate(400,-31)"><path class="background" aria-hidden="true" d="M0,0h0v0h0Z" pointer-events="none"/><g><g class="mark-text role-title-text" role="graphics-symbol" aria-roledescription="title" aria-label="Title text 'UUID v7 benchmark (uuid7() default APIs)'" pointer-events="none"><text text-anchor="middle" transform="translate(0,10)" font-family="sans-serif" font-size="13px" font-weight="bold" fill="#000" opacity="1">UUID v7 benchmark (uuid7() default APIs)</text></g><g class="mark-text role-title-subtitle" role="graphics-symbol" aria-roledescription="subtitle" aria-label="Subtitle text 'Python: 3.13.8 (Windows 10) | CPU: 11th Gen Intel(R) Core(TM) i5-11300H @ 3.10GHz'" pointer-events="none"><text text-anchor="middle" transform="translate(0,25)" font-family="sans-serif" font-size="12px" fill="#000" opacity="1">Python: 3.13.8 (Windows 10) | CPU: 11th Gen Intel(R) Core(TM) i5-11300H @ 3.10GHz</text></g></g><path class="foreground" aria-hidden="true" d="" pointer-events="none" display="none"/></g></g></g><path class="foreground" aria-hidden="true" d="" display="none"/></g></g></g><defs><clipPath id="clip1"><path d="M2.3598736254596133,0L117.6401263745404,0C118.94257608433868,0,120.00000000000001,1.0574239156613263,120.00000000000001,2.3598736254596133L120.00000000000001,4.719747250919227C120.00000000000001,4.719747250919227,120.00000000000001,4.719747250919227,120.00000000000001,4.719747250919227L0,4.719747250919227C0,4.719747250919227,0,4.719747250919227,0,4.719747250919227L0,2.3598736254596133C0,1.0574239156613263,1.0574239156613263,0,2.3598736254596133,0Z"/></clipPath><clipPath id="clip2"><path d="M6,0L114.00000000000001,0C117.31149014696402,0,120.00000000000001,2.688509853036,120.00000000000001,6L120.00000000000001,24.79679510649737C120.00000000000001,24.79679510649737,120.00000000000001,24.79679510649737,120.00000000000001,24.79679510649737L0,24.79679510649737C0,24.79679510649737,0,24.79679510649737,0,24.79679510649737L0,6C0,2.688509853036,2.688509853036,0,6,0Z"/></clipPath><clipPath id="clip3"><path d="M6,0L114.00000000000001,0C117.31149014696402,0,120.00000000000001,2.688509853036,120.00000000000001,6L120.00000000000001,256.76641640990647C120.00000000000001,256.76641640990647,120.00000000000001,256.76641640990647,120.00000000000001,256.76641640990647L0,256.76641640990647C0,256.76641640990647,0,256.76641640990647,0,256.76641640990647L0,6C0,2.688509853036,2.688509853036,0,6,0Z"/></clipPath><clipPath id="clip4"><path d="M6,0L114.00000000000001,0C117.31149014696402,0,120.00000000000001,2.688509853036,120.00000000000001,6L120.00000000000001,258.5680650761949C120.00000000000001,258.5680650761949,120.00000000000001,258.5680650761949,120.00000000000001,258.5680650761949L0,258.5680650761949C0,258.5680650761949,0,258.5680650761949,0,258.5680650761949L0,6C0,2.688509853036,2.688509853036,0,6,0Z"/></clipPath><clipPath id="clip5"><path d="M6,0L114.00000000000001,0C117.31149014696402,0,120.00000000000001,2.688509853036,120.00000000000001,6L120.00000000000001,377.694378305939C120.00000000000001,377.694378305939,120.00000000000001,377.694378305939,120.00000000000001,377.694378305939L0,377.694378305939C0,377.694378305939,0,377.694378305939,0,377.694378305939L0,6C0,2.688509853036,2.688509853036,0,6,0Z"/></clipPath><clipPath id="clip6"><path d="M6,0L114.00000000000001,0C117.31149014696402,0,120.00000000000001,2.688509853036,120.00000000000001,6L120.00000000000001,576.9230769230769C120.00000000000001,576.9230769230769,120.00000000000001,576.9230769230769,120.00000000000001,576.9230769230769L0,576.9230769230769C0,576.9230769230769,0,576.9230769230769,0,576.9230769230769L0,6C0,2.688509853036,2.688509853036,0,6,0Z"/></clipPath></defs></svg>