<svg xmlns="http://www.w3.org/2000/svg" xmlns:xlink="http://www.w3.org/1999/xlink" version="1.1" class="marks" width="846" height="688" viewBox="0 0 846 688"><rect width="846" height="688" fill="white"/><g fill="none" stroke-miterlimit="10" transform="translate(41,37)"><g class="mark-group role-frame root" role="graphics-object" aria-roledescription="group mark container"><g transform="translate(0,0)"><path class="background" aria-hidden="true" d="M0.5,0.5h800v600h-800Z" stroke="#ddd"/><g><g class="mark-group role-axis" role="graphics-symbol" aria-roledescription="axis" aria-label="X-axis titled 'Implementation' for a discrete scale with 6 values: c_uuid_v7&#xA;v0.1.dev29+geda9f2e1f.d20260323, uuid_utils&#xA;v0.14.1, UUIDv7gen&#xA;v1.0.3, lastuuid&#xA;v0.5.0, uuid6&#xA;v2025.0.1, uuid_v7&#xA;v1.0.0"><g transform="translate(0.5,600.5)"><path class="background" aria-hidden="true" d="M0,0h0v0h0Z" pointer-events="none"/><g><g class="mark-rule role-axis-tick" pointer-events="none"><line transform="translate(66,0)" x2="0" y2="5" stroke="#888" stroke-width="1" opacity="1"/><line transform="translate(199,0)" x2="0" y2="5" stroke="#888" stroke-width="1" opacity="1"/><line transform="translate(333,0)" x2="0" y2="5" stroke="#888" stroke-width="1" opacity="1"/><line transform="translate(466,0)" x2="0" y2="5" stroke="#888" stroke-width="1" opacity="1"/><line transform="translate(600,0)" x2="0" y2="5" stroke="#888" stroke-width="1" opacity="1"/><line transform="translate(733,0)" x2="0" y2="5" stroke="#888" stroke-width="1" opacity="1"/></g><g class="mark-text role-axis-label" pointer-events="none"><text text-anchor="middle" transform="translate(66.16666666666663,15)" font-family="sans-serif" font-size="10px" fill="#000" opacity="1"><tspan>c_uuid_v7</tspan><tspan x="0" dy="14">v0.1.dev29+geda9f2e1f.d20260323</tspan></text><text text-anchor="middle" transform="translate(199.49999999999997,15)" font-family="sans-serif" font-size="10px" fill="#000" opacity="1"><tspan>uuid_utils</tspan><tspan x="0" dy="14">v0.14.1</tspan></text><text text-anchor="middle" transform="translate(332.8333333333333,15)" font-family="sans-serif" font-size="10px" fill="#000" opacity="1"><tspan>UUIDv7gen</tspan><tspan x="0" dy="14">v1.0.3</tspan></text><text text-anchor="middle" transform="translate(466.16666666666663,15)" font-family="sans-serif" font-size="10px" fill="#000" opacity="1"><tspan>lastuuid</tspan><tspan x="0" dy="14">v0.5.0</tspan></text><text text-anchor="middle" transform="translate(599.5,15)" font-family="sans-serif" font-size="10px" fill="#000" opacity="1"><tspan>uuid6</tspan><tspan x="0" dy="14">v2025.0.1</tspan></text><text text-anchor="middle" transform="translate(732.8333333333334,15)" font-family="sans-serif" font-size="10px" fill="#000" opacity="1"><tspan>uuid_v7</tspan><tspan x="0" dy="14">v1.0.0</tspan></text></g><g class="mark-rule role-axis-domain" pointer-events="none"><line transform="translate(0,0)" x2="800" y2="0" stroke="#888" stroke-width="1" opacity="1"/></g><g class="mark-text role-axis-title" pointer-events="none"><text text-anchor="middle" transform="translate(400,44)" font-family="sans-serif" font-size="11px" font-weight="bold" fill="#000" opacity="1">Implementation</text></g></g><path class="foreground" aria-hidden="true" d="" pointer-events="none" display="none"/></g></g><g class="mark-group role-axis" role="graphics-symbol" aria-roledescription="axis" aria-label="Y-axis titled 'Execution Time (seconds, lower=better)' for a linear scale with values from 0.0 to 1.9"><g transform="translate(0.5,0.5)"><path class="background" aria-hidden="true" d="M0,0h0v0h0Z" pointer-events="none"/><g><g class="mark-rule role-axis-tick" pointer-events="none"><line transform="translate(0,600)" x2="-5" y2="0" stroke="#888" stroke-width="1" opacity="1"/><line transform="translate(0,569)" x2="-5" y2="0" stroke="#888" stroke-width="1" opacity="1"/><line transform="translate(0,537)" x2="-5" y2="0" stroke="#888" stroke-width="1" opacity="1"/><line transform="translate(0,506)" x2="-5" y2="0" stroke="#888" stroke-width="1" opacity="1"/><line transform="translate(0,475)" x2="-5" y2="0" stroke="#888" stroke-width="1" opacity="1"/><line transform="translate(0,443)" x2="-5" y2="0" stroke="#888" stroke-width="1" opacity="1"/><line transform="translate(0,412)" x2="-5" y2="0" stroke="#888" stroke-width="1" opacity="1"/><line transform="translate(0,381)" x2="-5" y2="0" stroke="#888" stroke-width="1" opacity="1"/><line transform="translate(0,349)" x2="-5" y2="0" stroke="#888" stroke-width="1" opacity="1"/><line transform="translate(0,318)" x2="-5" y2="0" stroke="#888" stroke-width="1" opacity="1"/><line transform="translate(0,287)" x2="-5" y2="0" stroke="#888" stroke-width="1" opacity="1"/><line transform="translate(0,256)" x2="-5" y2="0" stroke="#888" stroke-width="1" opacity="1"/><line transform="translate(0,224)" x2="-5" y2="0" stroke="#888" stroke-width="1" opacity="1"/><line transform="translate(0,193)" x2="-5" y2="0" stroke="#888" stroke-width="1" opacity="1"/><line transform="translate(0,162)" x2="-5" y2="0" stroke="#888" stroke-width="1" opacity="1"/><line transform="translate(0,130)" x2="-5" y2="0" stroke="#888" stroke-width="1" opacity="1"/><line transform="translate(0,99)" x2="-5" y2="0" stroke="#888" stroke-width="1" opacity="1"/><line transform="translate(0,68)" x2="-5" y2="0" stroke="#888" stroke-width="1" opacity="1"/><line transform="translate(0,36)" x2="-5" y2="0" stroke="#888" stroke-width="1" opacity="1"/><line transform="translate(0,5)" x2="-5" y2="0" stroke="#888" stroke-width="1" opacity="1"/></g><g class="mark-text role-axis-label" pointer-events="none"><text text-anchor="end" transform="translate(-7,603)" font-family="sans-serif" font-size="10px" fill="#000" opacity="1">0.0</text><text text-anchor="end" transform="translate(-7,571.6837333444289)" font-family="sans-serif" font-size="10px" fill="#000" opacity="1">0.1</text><text text-anchor="end" transform="translate(-7,540.3674666888577)" font-family="sans-serif" font-size="10px" fill="#000" opacity="1">0.2</text><text text-anchor="end" transform="translate(-7,509.0512000332865)" font-family="sans-serif" font-size="10px" fill="#000" opacity="1">0.3</text><text text-anchor="end" transform="translate(-7,477.7349333777154)" font-family="sans-serif" font-size="10px" fill="#000" opacity="1">0.4</text><text text-anchor="end" transform="translate(-7,446.4186667221442)" font-family="sans-serif" font-size="10px" fill="#000" opacity="1">0.5</text><text text-anchor="end" transform="translate(-7,415.102400066573)" font-family="sans-serif" font-size="10px" fill="#000" opacity="1">0.6</text><text text-anchor="end" transform="translate(-7,383.78613341100186)" font-family="sans-serif" font-size="10px" fill="#000" opacity="1">0.7</text><text text-anchor="end" transform="translate(-7,352.4698667554307)" font-family="sans-serif" font-size="10px" fill="#000" opacity="1">0.8</text><text text-anchor="end" transform="translate(-7,321.1536000998595)" font-family="sans-serif" font-size="10px" fill="#000" opacity="1">0.9</text><text text-anchor="end" transform="translate(-7,289.83733344428833)" font-family="sans-serif" font-size="10px" fill="#000" opacity="1">1.0</text><text text-anchor="end" transform="translate(-7,258.5210667887171)" font-family="sans-serif" font-size="10px" fill="#000" opacity="1">1.1</text><text text-anchor="end" transform="translate(-7,227.20480013314605)" font-family="sans-serif" font-size="10px" fill="#000" opacity="1">1.2</text><text text-anchor="end" transform="translate(-7,195.88853347757484)" font-family="sans-serif" font-size="10px" fill="#000" opacity="1">1.3</text><text text-anchor="end" transform="translate(-7,164.57226682200368)" font-family="sans-serif" font-size="10px" fill="#000" opacity="1">1.4</text><text text-anchor="end" transform="translate(-7,133.25600016643247)" font-family="sans-serif" font-size="10px" fill="#000" opacity="1">1.5</text><text text-anchor="end" transform="translate(-7,101.93973351086134)" font-family="sans-serif" font-size="10px" fill="#000" opacity="1">1.6</text><text text-anchor="end" transform="translate(-7,70.62346685529019)" font-family="sans-serif" font-size="10px" fill="#000" opacity="1">1.7</text><text text-anchor="end" transform="translate(-7,39.30720019971898)" font-family="sans-serif" font-size="10px" fill="#000" opacity="1">1.8</text><text text-anchor="end" transform="translate(-7,7.990933544147902)" font-family="sans-serif" font-size="10px" fill="#000" opacity="1">1.9</text></g><g class="mark-rule role-axis-domain" pointer-events="none"><line transform="translate(0,600)" x2="0" y2="-600" stroke="#888" stroke-width="1" opacity="1"/></g><g class="mark-text role-axis-title" pointer-events="none"><text text-anchor="middle" transform="translate(-24.9013671875,300) rotate(-90) translate(0,-2)" font-family="sans-serif" font-size="11px" font-weight="bold" fill="#000" opacity="1">Execution Time (seconds, lower=better)</text></g></g><path class="foreground" aria-hidden="true" d="" pointer-events="none" display="none"/></g></g><g class="mark-group role-scope" role="graphics-object" aria-roledescription="group mark container"><g transform="translate(6.666666666666629,594.9197812744103)"><path class="background" aria-hidden="true" d="M2.5401093627948512,0L117.45989063720516,0C118.86181515838952,0,120.00000000000001,1.1381848416104923,120.00000000000001,2.5401093627948512L120.00000000000001,5.0802187255897024C120.00000000000001,5.0802187255897024,120.00000000000001,5.0802187255897024,120.00000000000001,5.0802187255897024L0,5.0802187255897024C0,5.0802187255897024,0,5.0802187255897024,0,5.0802187255897024L0,2.5401093627948512C0,1.1381848416104923,1.1381848416104923,0,2.5401093627948512,0Z"/><g clip-path="url(#clip1)"><g class="mark-group role-scope" role="graphics-object" aria-roledescription="group mark container"><g transform="translate(0,-594.9197812744103)"><path class="background" aria-hidden="true" d="M0,0h120.00000000000001v0h-120.00000000000001Z"/><g><g class="mark-rect role-mark layer_0_marks" role="graphics-object" aria-roledescription="rect mark container"><path aria-label="Implementation: c_uuid_v7&#xA;v0.1.dev29+geda9f2e1f.d20260323; Execution Time (seconds, lower=better): 0.0162222999998; implementation: c_uuid_v7; Execution Time (s): 0.0162; Slowdown: 1.00" role="graphics-symbol" aria-roledescription="bar" d="M0,594.9197812744103h120.00000000000001v5.0802187255897024h-120.00000000000001Z" fill="#d95f02"/></g></g><path class="foreground" aria-hidden="true" d="" display="none"/></g></g></g><path class="foreground" aria-hidden="true" d="" display="none"/></g><g transform="translate(139.99999999999997,571.8147023684598)"><path class="background" aria-hidden="true" d="M6,0L114.00000000000001,0C117.31149014696402,0,120.00000000000001,2.688509853036,120.00000000000001,6L120.00000000000001,28.185297631540152C120.00000000000001,28.185297631540152,120.00000000000001,28.185297631540152,120.00000000000001,28.185297631540152L0,28.185297631540152C0,28.185297631540152,0,28.185297631540152,0,28.185297631540152L0,6C0,2.688509853036,2.688509853036,0,6,0Z"/><g clip-path="url(#clip2)"><g class="mark-group role-scope" role="graphics-object" aria-roledescription="group mark container"><g transform="translate(0,-571.8147023684598)"><path class="background" aria-hidden="true" d="M0,0h120.00000000000001v0h-120.00000000000001Z"/><g><g class="mark-rect role-mark layer_0_marks" role="graphics-object" aria-roledescription="rect mark container"><path aria-label="Implementation: uuid_utils&#xA;v0.14.1; Execution Time (seconds, lower=better): 0.0900020999998; implementation: uuid_utils; Execution Time (s): 0.0900; Slowdown: 5.55" role="graphics-symbol" aria-roledescription="bar" d="M0,571.8147023684598h120.00000000000001v28.185297631540152h-120.00000000000001Z" fill="#66a61e"/></g></g><path class="foreground" aria-hidden="true" d="" display="none"/></g></g></g><path class="foreground" aria-hidden="true" d="" display="none"/></g><g transform="translate(273.3333333333333,351.83931812304513)"><path class="background" aria-hidden="true" d="M6,0L114.00000000000001,0C117.31149014696402,0,120.00000000000001,2.688509853036,120.00000000000001,6L120.00000000000001,248.16068187695487C120.00000000000001,248.16068187695487,120.00000000000001,248.16068187695487,120.00000000000001,248.16068187695487L0,248.16068187695487C0,248.16068187695487,0,248.16068187695487,0,248.16068187695487L0,6C0,2.688509853036,2.688509853036,0,6,0Z"/><g clip-path="url(#clip3)"><g class="mark-group role-scope" role="graphics-object" aria-roledescription="group mark container"><g transform="translate(0,-351.83931812304513)"><path class="background" aria-hidden="true" d="M0,0h120.00000000000001v0h-120.00000000000001Z"/><g><g class="mark-rect role-mark layer_0_marks" role="graphics-object" aria-roledescription="rect mark container"><path aria-label="Implementation: UUIDv7gen&#xA;v1.0.3; Execution Time (seconds, lower=better): 0.7924338; implementation: UUIDv7gen; Execution Time (s): 0.7924; Slowdown: 48.85" role="graphics-symbol" aria-roledescription="bar" d="M0,351.83931812304513h120.00000000000001v248.16068187695487h-120.00000000000001Z" fill="#1b9e77"/></g></g><path class="foreground" aria-hidden="true" d="" display="none"/></g></g></g><path class="foreground" aria-hidden="true" d="" display="none"/></g><g transform="translate(406.66666666666663,341.08011365349887)"><path class="background" aria-hidden="true" d="M6,0L114.00000000000001,0C117.31149014696402,0,120.00000000000001,2.688509853036,120.00000000000001,6L120.00000000000001,258.91988634650113C120.00000000000001,258.91988634650113,120.00000000000001,258.91988634650113,120.00000000000001,258.91988634650113L0,258.91988634650113C0,258.91988634650113,0,258.91988634650113,0,258.91988634650113L0,6C0,2.688509853036,2.688509853036,0,6,0Z"/><g clip-path="url(#clip4)"><g class="mark-group role-scope" role="graphics-object" aria-roledescription="group mark container"><g transform="translate(0,-341.08011365349887)"><path class="background" aria-hidden="true" d="M0,0h120.00000000000001v0h-120.00000000000001Z"/><g><g class="mark-rect role-mark layer_0_marks" role="graphics-object" aria-roledescription="rect mark container"><path aria-label="Implementation: lastuuid&#xA;v0.5.0; Execution Time (seconds, lower=better): 0.826790399999; implementation: lastuuid; Execution Time (s): 0.8268; Slowdown: 50.97" role="graphics-symbol" aria-roledescription="bar" d="M0,341.08011365349887h120.00000000000001v258.91988634650113h-120.00000000000001Z" fill="#7570b3"/></g></g><path class="foreground" aria-hidden="true" d="" display="none"/></g></g></g><path class="foreground" aria-hidden="true" d="" display="none"/></g><g transform="translate(540,237.13519268637936)"><path class="background" aria-hidden="true" d="M6,0L114.00000000000001,0C117.31149014696402,0,120.00000000000001,2.688509853036,120.00000000000001,6L120.00000000000001,362.86480731362064C120.00000000000001,362.86480731362064,120.00000000000001,362.86480731362064,120.00000000000001,362.86480731362064L0,362.86480731362064C0,362.86480731362064,0,362.86480731362064,0,362.86480731362064L0,6C0,2.688509853036,2.688509853036,0,6,0Z"/><g clip-path="url(#clip5)"><g class="mark-group role-scope" role="graphics-object" aria-roledescription="group mark container"><g transform="translate(0,-237.13519268637936)"><path class="background" aria-hidden="true" d="M0,0h120.00000000000001v0h-120.00000000000001Z"/><g><g class="mark-rect role-mark layer_0_marks" role="graphics-object" aria-roledescription="rect mark container"><path aria-label="Implementation: uuid6&#xA;v2025.0.1; Execution Time (seconds, lower=better): 1.1587103; implementation: uuid6; Execution Time (s): 1.1587; Slowdown: 71.43" role="graphics-symbol" aria-roledescription="bar" d="M0,237.13519268637936h120.00000000000001v362.86480731362064h-120.00000000000001Z" fill="#e7298a"/></g></g><path class="foreground" aria-hidden="true" d="" display="none"/></g></g></g><path class="foreground" aria-hidden="true" d="" display="none"/></g><g transform="translate(673.3333333333334,23.076923076923062)"><path class="background" aria-hidden="true" d="M6,0L114.00000000000001,0C117.31149014696402,0,120.00000000000001,2.688509853036,120.00000000000001,6L120.00000000000001,576.9230769230769C120.00000000000001,576.9230769230769,120.00000000000001,576.9230769230769,120.00000000000001,576.9230769230769L0,576.9230769230769C0,576.9230769230769,0,576.9230769230769,0,576.9230769230769L0,6C0,2.688509853036,2.688509853036,0,6,0Z"/><g clip-path="url(#clip6)"><g class="mark-group role-scope" role="graphics-object" aria-roledescription="group mark container"><g transform="translate(0,-23.076923076923062)"><path class="background" aria-hidden="true" d="M0,0h120.00000000000001v0h-120.00000000000001Z"/><g><g class="mark-rect role-mark layer_0_marks" role="graphics-object" aria-roledescription="rect mark container"><path aria-label="Implementation: uuid_v7&#xA;v1.0.0; Execution Time (seconds, lower=better): 1.8422473; implementation: uuid_v7; Execution Time (s): 1.8422; Slowdown: 113.56" role="graphics-symbol" aria-roledescription="bar" d="M0,23.076923076923062h120.00000000000001v576.9230769230769h-120.00000000000001Z" fill="#e6ab02"/></g></g><path class="foreground" aria-hidden="true" d="" display="none"/></g></g></g><path class="foreground" aria-hidden="true" d="" display="none"/></g></g><g class="mark-text role-mark layer_1_marks" role="graphics-object" aria-roledescription="text mark container"><text aria-label="Implementation: c_uuid_v7&#xA;v0.1.dev29+geda9f2e1f.d20260323; Execution Time (seconds, lower=better): 0.0162222999998; implementation: c_uuid_v7; label: 0.0162s (x1.00); Execution Time (s): 0.0162; Slowdown: 1.00" role="graphics-symbol" aria-roledescription="text mark" text-anchor="middle" transform="translate(66.66666666666663,590.9197812744103)" font-family="sans-serif" font-size="9px" font-weight="bold" fill="#d95f02">0.0162s (x1.00)</text><text aria-label="Implementation: uuid_utils&#xA;v0.14.1; Execution Time (seconds, lower=better): 0.0900020999998; implementation: uuid_utils; label: 0.0900s (x5.55); Execution Time (s): 0.0900; Slowdown: 5.55" role="graphics-symbol" aria-roledescription="text mark" text-anchor="middle" transform="translate(199.99999999999997,567.8147023684598)" font-family="sans-serif" font-size="9px" font-weight="bold" fill="#66a61e">0.0900s (x5.55)</text><text aria-label="Implementation: UUIDv7gen&#xA;v1.0.3; Execution Time (seconds, lower=better): 0.7924338; implementation: UUIDv7gen; label: 0.7924s (x48.85); Execution Time (s): 0.7924; Slowdown: 48.85" role="graphics-symbol" aria-roledescription="text mark" text-anchor="middle" transform="translate(333.3333333333333,347.83931812304513)" font-family="sans-serif" font-size="9px" font-weight="bold" fill="#1b9e77">0.7924s (x48.85)</text><text aria-label="Implementation: lastuuid&#xA;v0.5.0; Execution Time (seconds, lower=better): 0.826790399999; implementation: lastuuid; label: 0.8268s (x50.97); Execution Time (s): 0.8268; Slowdown: 50.97" role="graphics-symbol" aria-roledescription="text mark" text-anchor="middle" transform="translate(466.66666666666663,337.08011365349887)" font-family="sans-serif" font-size="9px" font-weight="bold" fill="#7570b3">0.8268s (x50.97)</text><text aria-label="Implementation: uuid6&#xA;v2025.0.1; Execution Time (seconds, lower=better): 1.1587103; implementation: uuid6; label: 1.1587s (x71.43); Execution Time (s): 1.1587; Slowdown: 71.43" role="graphics-symbol" aria-roledescription="text mark" text-anchor="middle" transform="translate(600,233.13519268637936)" font-family="sans-serif" font-size="9px" font-weight="bold" fill="#e7298a">1.1587s (x71.43)</text><text aria-label="Implementation: uuid_v7&#xA;v1.0.0; Execution Time (seconds, lower=better): 1.8422473; implementation: uuid_v7; label: 1.8422s (x113.56); Execution Time (s): 1.8422; Slowdown: 113.56" role="graphics-symbol" aria-roledescription="text mark" text-anchor="middle" transform="translate(733.3333333333334,19.076923076923062)" font-family="sans-serif" font-size="9px" font-weight="bold" fill="#e6ab02">1.8422s (x113.56)</text></g><g class="mark-group role-title"><g transform="translate(400,-31.0090664558521)"><path class="background" aria-hidden="true" d="M0,0h0v0h0Z" pointer-events="none"/><g><g class="mark-text role-title-text" role="graphics-symbol" aria-roledescription="title" aria-label="Title text 'UUID v7 benchmark (uuid7() default APIs)'" pointer-events="none"><text text-anchor="middle" transform="translate(0,10)" font-family="sans-serif" font-size="13px" font-weight="bold" fill="#000" opacity="1">UUID v7 benchmark (uuid7() default APIs)</text></g><g class="mark-text role-title-subtitle" role="graphics-symbol" aria-roledescription="subtitle" aria-label="Subtitle text 'Python: 3.13.8 (Windows 10) | CPU: 11th Gen Intel(R) Core(TM) i5-11300H @ 3.10GHz'" pointer-events="none"><text text-anchor="middle" transform="translate(0,25)" font-family="sans-serif" font-size="12px" fill="#000" opacity="1">Python: 3.13.8 (Windows 10) | CPU: 11th Gen Intel(R) Core(TM) i5-11300H @ 3.10GHz</text></g></g><path class="foreground" aria-hidden="true" d="" pointer-events="none" display="none"/></g></g></g><path class="foreground" aria-hidden="true" d="" display="none"/></g></g></g><defs><clipPath id="clip1"><path d="M2.5401093627948512,0L117.45989063720516,0C118.86181515838952,0,120.00000000000001,1.1381848416104923,120.00000000000001,2.5401093627948512L120.00000000000001,5.0802187255897024C120.00000000000001,5.0802187255897024,120.00000000000001,5.0802187255897024,120.00000000000001,5.0802187255897024L0,5.0802187255897024C0,5.0802187255897024,0,5.0802187255897024,0,5.0802187255897024L0,2.5401093627948512C0,1.1381848416104923,1.1381848416104923,0,2.5401093627948512,0Z"/></clipPath><clipPath id="clip2"><path d="M6,0L114.00000000000001,0C117.31149014696402,0,120.00000000000001,2.688509853036,120.00000000000001,6L120.00000000000001,28.185297631540152C120.00000000000001,28.185297631540152,120.00000000000001,28.185297631540152,120.00000000000001,28.185297631540152L0,28.185297631540152C0,28.185297631540152,0,28.185297631540152,0,28.185297631540152L0,6C0,2.688509853036,2.688509853036,0,6,0Z"/></clipPath><clipPath id="clip3"><path d="M6,0L114.00000000000001,0C117.31149014696402,0,120.00000000000001,2.688509853036,120.00000000000001,6L120.00000000000001,248.16068187695487C120.00000000000001,248.16068187695487,120.00000000000001,248.16068187695487,120.00000000000001,248.16068187695487L0,248.16068187695487C0,248.16068187695487,0,248.16068187695487,0,248.16068187695487L0,6C0,2.688509853036,2.688509853036,0,6,0Z"/></clipPath><clipPath id="clip4"><path d="M6,0L114.00000000000001,0C117.31149014696402,0,120.00000000000001,2.688509853036,120.00000000000001,6L120.00000000000001,258.91988634650113C120.00000000000001,258.91988634650113,120.00000000000001,258.91988634650113,120.00000000000001,258.91988634650113L0,258.91988634650113C0,258.91988634650113,0,258.91988634650113,0,258.91988634650113L0,6C0,2.688509853036,2.688509853036,0,6,0Z"/></clipPath><clipPath id="clip5"><path d="M6,0L114.00000000000001,0C117.31149014696402,0,120.00000000000001,2.688509853036,120.00000000000001,6L120.00000000000001,362.86480731362064C120.00000000000001,362.86480731362064,120.00000000000001,362.86480731362064,120.00000000000001,362.86480731362064L0,362.86480731362064C0,362.86480731362064,0,362.86480731362064,0,362.86480731362064L0,6C0,2.688509853036,2.688509853036,0,6,0Z"/></clipPath><clipPath id="clip6"><path d="M6,0L114.00000000000001,0C117.31149014696402,0,120.00000000000001,2.688509853036,120.00000000000001,6L120.00000000000001,576.9230769230769C120.00000000000001,576.9230769230769,120.00000000000001,576.9230769230769,120.00000000000001,576.9230769230769L0,576.9230769230769C0,576.9230769230769,0,576.9230769230769,0,576.9230769230769L0,6C0,2.688509853036,2.688509853036,0,6,0Z"/></clipPath></defs></svg>