<svg xmlns="http://www.w3.org/2000/svg" xmlns:xlink="http://www.w3.org/1999/xlink" version="1.1" class="marks" width="846" height="687" viewBox="0 0 846 687"><rect width="846" height="687" fill="white"/><g fill="none" stroke-miterlimit="10" transform="translate(41,36)"><g class="mark-group role-frame root" role="graphics-object" aria-roledescription="group mark container"><g transform="translate(0,0)"><path class="background" aria-hidden="true" d="M0.5,0.5h800v600h-800Z" stroke="#ddd"/><g><g class="mark-group role-axis" role="graphics-symbol" aria-roledescription="axis" aria-label="X-axis titled 'Implementation' for a discrete scale with 8 values: c_uuid_v7&#xA;0.0.3.dev14+gb44d7fca0.d20260324, fastuuid&#xA;0.14.0, uuid_utils&#xA;0.14.1, UUIDv7gen&#xA;1.0.3, lastuuid&#xA;0.5.0, ending with uuid_v7&#xA;1.0.0"><g transform="translate(0.5,600.5)"><path class="background" aria-hidden="true" d="M0,0h0v0h0Z" pointer-events="none"/><g><g class="mark-rule role-axis-tick" pointer-events="none"><line transform="translate(50,0)" x2="0" y2="5" stroke="#888" stroke-width="1" opacity="1"/><line transform="translate(150,0)" x2="0" y2="5" stroke="#888" stroke-width="1" opacity="1"/><line transform="translate(250,0)" x2="0" y2="5" stroke="#888" stroke-width="1" opacity="1"/><line transform="translate(350,0)" x2="0" y2="5" stroke="#888" stroke-width="1" opacity="1"/><line transform="translate(450,0)" x2="0" y2="5" stroke="#888" stroke-width="1" opacity="1"/><line transform="translate(550,0)" x2="0" y2="5" stroke="#888" stroke-width="1" opacity="1"/><line transform="translate(650,0)" x2="0" y2="5" stroke="#888" stroke-width="1" opacity="1"/><line transform="translate(750,0)" x2="0" y2="5" stroke="#888" stroke-width="1" opacity="1"/></g><g class="mark-text role-axis-label" pointer-events="none"><text text-anchor="middle" transform="translate(49.5,15)" font-family="sans-serif" font-size="10px" fill="#000" opacity="1"><tspan>c_uuid_v7</tspan><tspan x="0" dy="14">0.0.3.dev14+gb44d7fca0.d20260324</tspan></text><text text-anchor="middle" transform="translate(149.5,15)" font-family="sans-serif" font-size="10px" fill="#000" opacity="1"><tspan>fastuuid</tspan><tspan x="0" dy="14">0.14.0</tspan></text><text text-anchor="middle" transform="translate(249.5,15)" font-family="sans-serif" font-size="10px" fill="#000" opacity="1"><tspan>uuid_utils</tspan><tspan x="0" dy="14">0.14.1</tspan></text><text text-anchor="middle" transform="translate(349.5,15)" font-family="sans-serif" font-size="10px" fill="#000" opacity="1"><tspan>UUIDv7gen</tspan><tspan x="0" dy="14">1.0.3</tspan></text><text text-anchor="middle" transform="translate(449.5,15)" font-family="sans-serif" font-size="10px" fill="#000" opacity="1"><tspan>lastuuid</tspan><tspan x="0" dy="14">0.5.0</tspan></text><text text-anchor="middle" transform="translate(549.5,15)" font-family="sans-serif" font-size="10px" fill="#000" opacity="1"><tspan>uuid</tspan><tspan x="0" dy="14">stdlib</tspan></text><text text-anchor="middle" transform="translate(649.5,15)" font-family="sans-serif" font-size="10px" fill="#000" opacity="1"><tspan>uuid6</tspan><tspan x="0" dy="14">2025.0.1</tspan></text><text text-anchor="middle" transform="translate(749.5,15)" font-family="sans-serif" font-size="10px" fill="#000" opacity="1"><tspan>uuid_v7</tspan><tspan x="0" dy="14">1.0.0</tspan></text></g><g class="mark-rule role-axis-domain" pointer-events="none"><line transform="translate(0,0)" x2="800" y2="0" stroke="#888" stroke-width="1" opacity="1"/></g><g class="mark-text role-axis-title" pointer-events="none"><text text-anchor="middle" transform="translate(400,44)" font-family="sans-serif" font-size="11px" font-weight="bold" fill="#000" opacity="1">Implementation</text></g></g><path class="foreground" aria-hidden="true" d="" pointer-events="none" display="none"/></g></g><g class="mark-group role-axis" role="graphics-symbol" aria-roledescription="axis" aria-label="Y-axis titled 'Execution Time (seconds, lower=better)' for a linear scale with values from 0.0 to 1.6"><g transform="translate(0.5,0.5)"><path class="background" aria-hidden="true" d="M0,0h0v0h0Z" pointer-events="none"/><g><g class="mark-rule role-axis-tick" pointer-events="none"><line transform="translate(0,600)" x2="-5" y2="0" stroke="#888" stroke-width="1" opacity="1"/><line transform="translate(0,563)" x2="-5" y2="0" stroke="#888" stroke-width="1" opacity="1"/><line transform="translate(0,526)" x2="-5" y2="0" stroke="#888" stroke-width="1" opacity="1"/><line transform="translate(0,490)" x2="-5" y2="0" stroke="#888" stroke-width="1" opacity="1"/><line transform="translate(0,453)" x2="-5" y2="0" stroke="#888" stroke-width="1" opacity="1"/><line transform="translate(0,416)" x2="-5" y2="0" stroke="#888" stroke-width="1" opacity="1"/><line transform="translate(0,379)" x2="-5" y2="0" stroke="#888" stroke-width="1" opacity="1"/><line transform="translate(0,342)" x2="-5" y2="0" stroke="#888" stroke-width="1" opacity="1"/><line transform="translate(0,306)" x2="-5" y2="0" stroke="#888" stroke-width="1" opacity="1"/><line transform="translate(0,269)" x2="-5" y2="0" stroke="#888" stroke-width="1" opacity="1"/><line transform="translate(0,232)" x2="-5" y2="0" stroke="#888" stroke-width="1" opacity="1"/><line transform="translate(0,195)" x2="-5" y2="0" stroke="#888" stroke-width="1" opacity="1"/><line transform="translate(0,158)" x2="-5" y2="0" stroke="#888" stroke-width="1" opacity="1"/><line transform="translate(0,122)" x2="-5" y2="0" stroke="#888" stroke-width="1" opacity="1"/><line transform="translate(0,85)" x2="-5" y2="0" stroke="#888" stroke-width="1" opacity="1"/><line transform="translate(0,48)" x2="-5" y2="0" stroke="#888" stroke-width="1" opacity="1"/><line transform="translate(0,11)" x2="-5" y2="0" stroke="#888" stroke-width="1" opacity="1"/></g><g class="mark-text role-axis-label" pointer-events="none"><text text-anchor="end" transform="translate(-7,603)" font-family="sans-serif" font-size="10px" fill="#000" opacity="1">0.0</text><text text-anchor="end" transform="translate(-7,566.1967403578803)" font-family="sans-serif" font-size="10px" fill="#000" opacity="1">0.1</text><text text-anchor="end" transform="translate(-7,529.3934807157608)" font-family="sans-serif" font-size="10px" fill="#000" opacity="1">0.2</text><text text-anchor="end" transform="translate(-7,492.59022107364115)" font-family="sans-serif" font-size="10px" fill="#000" opacity="1">0.3</text><text text-anchor="end" transform="translate(-7,455.78696143152155)" font-family="sans-serif" font-size="10px" fill="#000" opacity="1">0.4</text><text text-anchor="end" transform="translate(-7,418.98370178940195)" font-family="sans-serif" font-size="10px" fill="#000" opacity="1">0.5</text><text text-anchor="end" transform="translate(-7,382.18044214728235)" font-family="sans-serif" font-size="10px" fill="#000" opacity="1">0.6</text><text text-anchor="end" transform="translate(-7,345.3771825051627)" font-family="sans-serif" font-size="10px" fill="#000" opacity="1">0.7</text><text text-anchor="end" transform="translate(-7,308.57392286304304)" font-family="sans-serif" font-size="10px" fill="#000" opacity="1">0.8</text><text text-anchor="end" transform="translate(-7,271.7706632209235)" font-family="sans-serif" font-size="10px" fill="#000" opacity="1">0.9</text><text text-anchor="end" transform="translate(-7,234.96740357880387)" font-family="sans-serif" font-size="10px" fill="#000" opacity="1">1.0</text><text text-anchor="end" transform="translate(-7,198.1641439366842)" font-family="sans-serif" font-size="10px" fill="#000" opacity="1">1.1</text><text text-anchor="end" transform="translate(-7,161.36088429456464)" font-family="sans-serif" font-size="10px" fill="#000" opacity="1">1.2</text><text text-anchor="end" transform="translate(-7,124.55762465244501)" font-family="sans-serif" font-size="10px" fill="#000" opacity="1">1.3</text><text text-anchor="end" transform="translate(-7,87.75436501032544)" font-family="sans-serif" font-size="10px" fill="#000" opacity="1">1.4</text><text text-anchor="end" transform="translate(-7,50.951105368205816)" font-family="sans-serif" font-size="10px" fill="#000" opacity="1">1.5</text><text text-anchor="end" transform="translate(-7,14.147845726086182)" font-family="sans-serif" font-size="10px" fill="#000" opacity="1">1.6</text></g><g class="mark-rule role-axis-domain" pointer-events="none"><line transform="translate(0,600)" x2="0" y2="-600" stroke="#888" stroke-width="1" opacity="1"/></g><g class="mark-text role-axis-title" pointer-events="none"><text text-anchor="middle" transform="translate(-24.9013671875,300) rotate(-90) translate(0,-2)" font-family="sans-serif" font-size="11px" font-weight="bold" fill="#000" opacity="1">Execution Time (seconds, lower=better)</text></g></g><path class="foreground" aria-hidden="true" d="" pointer-events="none" display="none"/></g></g><g class="mark-group role-scope" role="graphics-object" aria-roledescription="group mark container"><g transform="translate(5,592.3932446746886)"><path class="background" aria-hidden="true" d="M3.8033776626556914,0L86.19662233734431,0C88.29576361318885,0,90,1.7042363868111432,90,3.8033776626556914L90,7.606755325311383C90,7.606755325311383,90,7.606755325311383,90,7.606755325311383L0,7.606755325311383C0,7.606755325311383,0,7.606755325311383,0,7.606755325311383L0,3.8033776626556914C0,1.7042363868111432,1.7042363868111432,0,3.8033776626556914,0Z"/><g clip-path="url(#clip1)"><g class="mark-group role-scope" role="graphics-object" aria-roledescription="group mark container"><g transform="translate(0,-592.3932446746886)"><path class="background" aria-hidden="true" d="M0,0h90v0h-90Z"/><g><g class="mark-rect role-mark layer_0_marks" role="graphics-object" aria-roledescription="rect mark container"><path aria-label="Implementation: c_uuid_v7&#xA;0.0.3.dev14+gb44d7fca0.d20260324; Execution Time (seconds, lower=better): 0.0206686999991; implementation: c_uuid_v7; Execution Time (s): 0.0207; Slowdown: 1.00" role="graphics-symbol" aria-roledescription="bar" d="M0,592.3932446746886h90v7.606755325311383h-90Z" fill="#d95f02"/></g></g><path class="foreground" aria-hidden="true" d="" display="none"/></g></g></g><path class="foreground" aria-hidden="true" d="" display="none"/></g><g transform="translate(105,574.2399264456106)"><path class="background" aria-hidden="true" d="M6,0L84,0C87.311490146964,0,90,2.688509853036,90,6L90,25.76007355438935C90,25.76007355438935,90,25.76007355438935,90,25.76007355438935L0,25.76007355438935C0,25.76007355438935,0,25.76007355438935,0,25.76007355438935L0,6C0,2.688509853036,2.688509853036,0,6,0Z"/><g clip-path="url(#clip2)"><g class="mark-group role-scope" role="graphics-object" aria-roledescription="group mark container"><g transform="translate(0,-574.2399264456106)"><path class="background" aria-hidden="true" d="M0,0h90v0h-90Z"/><g><g class="mark-rect role-mark layer_0_marks" role="graphics-object" aria-roledescription="rect mark container"><path aria-label="Implementation: fastuuid&#xA;0.14.0; Execution Time (seconds, lower=better): 0.0699940000013; implementation: fastuuid; Execution Time (s): 0.0700; Slowdown: 3.39" role="graphics-symbol" aria-roledescription="bar" d="M0,574.2399264456106h90v25.76007355438935h-90Z" fill="#7570b3"/></g></g><path class="foreground" aria-hidden="true" d="" display="none"/></g></g></g><path class="foreground" aria-hidden="true" d="" display="none"/></g><g transform="translate(205,570.8985217006951)"><path class="background" aria-hidden="true" d="M6,0L84,0C87.311490146964,0,90,2.688509853036,90,6L90,29.10147829930486C90,29.10147829930486,90,29.10147829930486,90,29.10147829930486L0,29.10147829930486C0,29.10147829930486,0,29.10147829930486,0,29.10147829930486L0,6C0,2.688509853036,2.688509853036,0,6,0Z"/><g clip-path="url(#clip3)"><g class="mark-group role-scope" role="graphics-object" aria-roledescription="group mark container"><g transform="translate(0,-570.8985217006951)"><path class="background" aria-hidden="true" d="M0,0h90v0h-90Z"/><g><g class="mark-rect role-mark layer_0_marks" role="graphics-object" aria-roledescription="rect mark container"><path aria-label="Implementation: uuid_utils&#xA;0.14.1; Execution Time (seconds, lower=better): 0.0790730999979; implementation: uuid_utils; Execution Time (s): 0.0791; Slowdown: 3.83" role="graphics-symbol" aria-roledescription="bar" d="M0,570.8985217006951h90v29.10147829930486h-90Z" fill="#a6761d"/></g></g><path class="foreground" aria-hidden="true" d="" display="none"/></g></g></g><path class="foreground" aria-hidden="true" d="" display="none"/></g><g transform="translate(305,346.84594470110807)"><path class="background" aria-hidden="true" d="M6,0L84,0C87.311490146964,0,90,2.688509853036,90,6L90,253.15405529889193C90,253.15405529889193,90,253.15405529889193,90,253.15405529889193L0,253.15405529889193C0,253.15405529889193,0,253.15405529889193,0,253.15405529889193L0,6C0,2.688509853036,2.688509853036,0,6,0Z"/><g clip-path="url(#clip4)"><g class="mark-group role-scope" role="graphics-object" aria-roledescription="group mark container"><g transform="translate(0,-346.84594470110807)"><path class="background" aria-hidden="true" d="M0,0h90v0h-90Z"/><g><g class="mark-rect role-mark layer_0_marks" role="graphics-object" aria-roledescription="rect mark container"><path aria-label="Implementation: UUIDv7gen&#xA;1.0.3; Execution Time (seconds, lower=better): 0.687857699999; implementation: UUIDv7gen; Execution Time (s): 0.6879; Slowdown: 33.28" role="graphics-symbol" aria-roledescription="bar" d="M0,346.84594470110807h90v253.15405529889193h-90Z" fill="#1b9e77"/></g></g><path class="foreground" aria-hidden="true" d="" display="none"/></g></g></g><path class="foreground" aria-hidden="true" d="" display="none"/></g><g transform="translate(405,332.056775633213)"><path class="background" aria-hidden="true" d="M6,0L84,0C87.311490146964,0,90,2.688509853036,90,6L90,267.943224366787C90,267.943224366787,90,267.943224366787,90,267.943224366787L0,267.943224366787C0,267.943224366787,0,267.943224366787,0,267.943224366787L0,6C0,2.688509853036,2.688509853036,0,6,0Z"/><g clip-path="url(#clip5)"><g class="mark-group role-scope" role="graphics-object" aria-roledescription="group mark container"><g transform="translate(0,-332.056775633213)"><path class="background" aria-hidden="true" d="M0,0h90v0h-90Z"/><g><g class="mark-rect role-mark layer_0_marks" role="graphics-object" aria-roledescription="rect mark container"><path aria-label="Implementation: lastuuid&#xA;0.5.0; Execution Time (seconds, lower=better): 0.7280421; implementation: lastuuid; Execution Time (s): 0.7280; Slowdown: 35.22" role="graphics-symbol" aria-roledescription="bar" d="M0,332.056775633213h90v267.943224366787h-90Z" fill="#e7298a"/></g></g><path class="foreground" aria-hidden="true" d="" display="none"/></g></g></g><path class="foreground" aria-hidden="true" d="" display="none"/></g><g transform="translate(505,308.5766640142981)"><path class="background" aria-hidden="true" d="M6,0L84,0C87.311490146964,0,90,2.688509853036,90,6L90,291.4233359857019C90,291.4233359857019,90,291.4233359857019,90,291.4233359857019L0,291.4233359857019C0,291.4233359857019,0,291.4233359857019,0,291.4233359857019L0,6C0,2.688509853036,2.688509853036,0,6,0Z"/><g clip-path="url(#clip6)"><g class="mark-group role-scope" role="graphics-object" aria-roledescription="group mark container"><g transform="translate(0,-308.5766640142981)"><path class="background" aria-hidden="true" d="M0,0h90v0h-90Z"/><g><g class="mark-rect role-mark layer_0_marks" role="graphics-object" aria-roledescription="rect mark container"><path aria-label="Implementation: uuid&#xA;stdlib; Execution Time (seconds, lower=better): 0.791841099999; implementation: uuid; Execution Time (s): 0.7918; Slowdown: 38.31" role="graphics-symbol" aria-roledescription="bar" d="M0,308.5766640142981h90v291.4233359857019h-90Z" fill="#66a61e"/></g></g><path class="foreground" aria-hidden="true" d="" display="none"/></g></g></g><path class="foreground" aria-hidden="true" d="" display="none"/></g><g transform="translate(605,168.59366260429346)"><path class="background" aria-hidden="true" d="M6,0L84,0C87.311490146964,0,90,2.688509853036,90,6L90,431.40633739570654C90,431.40633739570654,90,431.40633739570654,90,431.40633739570654L0,431.40633739570654C0,431.40633739570654,0,431.40633739570654,0,431.40633739570654L0,6C0,2.688509853036,2.688509853036,0,6,0Z"/><g clip-path="url(#clip7)"><g class="mark-group role-scope" role="graphics-object" aria-roledescription="group mark container"><g transform="translate(0,-168.59366260429346)"><path class="background" aria-hidden="true" d="M0,0h90v0h-90Z"/><g><g class="mark-rect role-mark layer_0_marks" role="graphics-object" aria-roledescription="rect mark container"><path aria-label="Implementation: uuid6&#xA;2025.0.1; Execution Time (seconds, lower=better): 1.172196; implementation: uuid6; Execution Time (s): 1.1722; Slowdown: 56.71" role="graphics-symbol" aria-roledescription="bar" d="M0,168.59366260429346h90v431.40633739570654h-90Z" fill="#e6ab02"/></g></g><path class="foreground" aria-hidden="true" d="" display="none"/></g></g></g><path class="foreground" aria-hidden="true" d="" display="none"/></g><g transform="translate(705,23.076923076923062)"><path class="background" aria-hidden="true" d="M6,0L84,0C87.311490146964,0,90,2.688509853036,90,6L90,576.9230769230769C90,576.9230769230769,90,576.9230769230769,90,576.9230769230769L0,576.9230769230769C0,576.9230769230769,0,576.9230769230769,0,576.9230769230769L0,6C0,2.688509853036,2.688509853036,0,6,0Z"/><g clip-path="url(#clip8)"><g class="mark-group role-scope" role="graphics-object" aria-roledescription="group mark container"><g transform="translate(0,-23.076923076923062)"><path class="background" aria-hidden="true" d="M0,0h90v0h-90Z"/><g><g class="mark-rect role-mark layer_0_marks" role="graphics-object" aria-roledescription="rect mark container"><path aria-label="Implementation: uuid_v7&#xA;1.0.0; Execution Time (seconds, lower=better): 1.5675869; implementation: uuid_v7; Execution Time (s): 1.5676; Slowdown: 75.84" role="graphics-symbol" aria-roledescription="bar" d="M0,23.076923076923062h90v576.9230769230769h-90Z" fill="#666666"/></g></g><path class="foreground" aria-hidden="true" d="" display="none"/></g></g></g><path class="foreground" aria-hidden="true" d="" display="none"/></g></g><g class="mark-text role-mark layer_1_marks" role="graphics-object" aria-roledescription="text mark container"><text aria-label="Implementation: c_uuid_v7&#xA;0.0.3.dev14+gb44d7fca0.d20260324; Execution Time (seconds, lower=better): 0.0206686999991; implementation: c_uuid_v7; label: 0.0207s (x1.00); Execution Time (s): 0.0207; Slowdown: 1.00" role="graphics-symbol" aria-roledescription="text mark" text-anchor="middle" transform="translate(50,588.3932446746886)" font-family="sans-serif" font-size="9px" font-weight="bold" fill="#d95f02">0.0207s (x1.00)</text><text aria-label="Implementation: fastuuid&#xA;0.14.0; Execution Time (seconds, lower=better): 0.0699940000013; implementation: fastuuid; label: 0.0700s (x3.39); Execution Time (s): 0.0700; Slowdown: 3.39" role="graphics-symbol" aria-roledescription="text mark" text-anchor="middle" transform="translate(150,570.2399264456106)" font-family="sans-serif" font-size="9px" font-weight="bold" fill="#7570b3">0.0700s (x3.39)</text><text aria-label="Implementation: uuid_utils&#xA;0.14.1; Execution Time (seconds, lower=better): 0.0790730999979; implementation: uuid_utils; label: 0.0791s (x3.83); Execution Time (s): 0.0791; Slowdown: 3.83" role="graphics-symbol" aria-roledescription="text mark" text-anchor="middle" transform="translate(250,566.8985217006951)" font-family="sans-serif" font-size="9px" font-weight="bold" fill="#a6761d">0.0791s (x3.83)</text><text aria-label="Implementation: UUIDv7gen&#xA;1.0.3; Execution Time (seconds, lower=better): 0.687857699999; implementation: UUIDv7gen; label: 0.6879s (x33.28); Execution Time (s): 0.6879; Slowdown: 33.28" role="graphics-symbol" aria-roledescription="text mark" text-anchor="middle" transform="translate(350,342.84594470110807)" font-family="sans-serif" font-size="9px" font-weight="bold" fill="#1b9e77">0.6879s (x33.28)</text><text aria-label="Implementation: lastuuid&#xA;0.5.0; Execution Time (seconds, lower=better): 0.7280421; implementation: lastuuid; label: 0.7280s (x35.22); Execution Time (s): 0.7280; Slowdown: 35.22" role="graphics-symbol" aria-roledescription="text mark" text-anchor="middle" transform="translate(450,328.056775633213)" font-family="sans-serif" font-size="9px" font-weight="bold" fill="#e7298a">0.7280s (x35.22)</text><text aria-label="Implementation: uuid&#xA;stdlib; Execution Time (seconds, lower=better): 0.791841099999; implementation: uuid; label: 0.7918s (x38.31); Execution Time (s): 0.7918; Slowdown: 38.31" role="graphics-symbol" aria-roledescription="text mark" text-anchor="middle" transform="translate(550,304.5766640142981)" font-family="sans-serif" font-size="9px" font-weight="bold" fill="#66a61e">0.7918s (x38.31)</text><text aria-label="Implementation: uuid6&#xA;2025.0.1; Execution Time (seconds, lower=better): 1.172196; implementation: uuid6; label: 1.1722s (x56.71); Execution Time (s): 1.1722; Slowdown: 56.71" role="graphics-symbol" aria-roledescription="text mark" text-anchor="middle" transform="translate(650,164.59366260429346)" font-family="sans-serif" font-size="9px" font-weight="bold" fill="#e6ab02">1.1722s (x56.71)</text><text aria-label="Implementation: uuid_v7&#xA;1.0.0; Execution Time (seconds, lower=better): 1.5675869; implementation: uuid_v7; label: 1.5676s (x75.84); Execution Time (s): 1.5676; Slowdown: 75.84" role="graphics-symbol" aria-roledescription="text mark" text-anchor="middle" transform="translate(750,19.076923076923062)" font-family="sans-serif" font-size="9px" font-weight="bold" fill="#666666">1.5676s (x75.84)</text></g><g class="mark-group role-title"><g transform="translate(400,-31)"><path class="background" aria-hidden="true" d="M0,0h0v0h0Z" pointer-events="none"/><g><g class="mark-text role-title-text" role="graphics-symbol" aria-roledescription="title" aria-label="Title text 'UUID v7 benchmark (uuid7() default APIs)'" pointer-events="none"><text text-anchor="middle" transform="translate(0,10)" font-family="sans-serif" font-size="13px" font-weight="bold" fill="#000" opacity="1">UUID v7 benchmark (uuid7() default APIs)</text></g><g class="mark-text role-title-subtitle" role="graphics-symbol" aria-roledescription="subtitle" aria-label="Subtitle text 'Python: 3.14.3 (Windows 10) | CPU: 11th Gen Intel(R) Core(TM) i5-11300H @ 3.10GHz'" pointer-events="none"><text text-anchor="middle" transform="translate(0,25)" font-family="sans-serif" font-size="12px" fill="#000" opacity="1">Python: 3.14.3 (Windows 10) | CPU: 11th Gen Intel(R) Core(TM) i5-11300H @ 3.10GHz</text></g></g><path class="foreground" aria-hidden="true" d="" pointer-events="none" display="none"/></g></g></g><path class="foreground" aria-hidden="true" d="" display="none"/></g></g></g><defs><clipPath id="clip1"><path d="M3.8033776626556914,0L86.19662233734431,0C88.29576361318885,0,90,1.7042363868111432,90,3.8033776626556914L90,7.606755325311383C90,7.606755325311383,90,7.606755325311383,90,7.606755325311383L0,7.606755325311383C0,7.606755325311383,0,7.606755325311383,0,7.606755325311383L0,3.8033776626556914C0,1.7042363868111432,1.7042363868111432,0,3.8033776626556914,0Z"/></clipPath><clipPath id="clip2"><path d="M6,0L84,0C87.311490146964,0,90,2.688509853036,90,6L90,25.76007355438935C90,25.76007355438935,90,25.76007355438935,90,25.76007355438935L0,25.76007355438935C0,25.76007355438935,0,25.76007355438935,0,25.76007355438935L0,6C0,2.688509853036,2.688509853036,0,6,0Z"/></clipPath><clipPath id="clip3"><path d="M6,0L84,0C87.311490146964,0,90,2.688509853036,90,6L90,29.10147829930486C90,29.10147829930486,90,29.10147829930486,90,29.10147829930486L0,29.10147829930486C0,29.10147829930486,0,29.10147829930486,0,29.10147829930486L0,6C0,2.688509853036,2.688509853036,0,6,0Z"/></clipPath><clipPath id="clip4"><path d="M6,0L84,0C87.311490146964,0,90,2.688509853036,90,6L90,253.15405529889193C90,253.15405529889193,90,253.15405529889193,90,253.15405529889193L0,253.15405529889193C0,253.15405529889193,0,253.15405529889193,0,253.15405529889193L0,6C0,2.688509853036,2.688509853036,0,6,0Z"/></clipPath><clipPath id="clip5"><path d="M6,0L84,0C87.311490146964,0,90,2.688509853036,90,6L90,267.943224366787C90,267.943224366787,90,267.943224366787,90,267.943224366787L0,267.943224366787C0,267.943224366787,0,267.943224366787,0,267.943224366787L0,6C0,2.688509853036,2.688509853036,0,6,0Z"/></clipPath><clipPath id="clip6"><path d="M6,0L84,0C87.311490146964,0,90,2.688509853036,90,6L90,291.4233359857019C90,291.4233359857019,90,291.4233359857019,90,291.4233359857019L0,291.4233359857019C0,291.4233359857019,0,291.4233359857019,0,291.4233359857019L0,6C0,2.688509853036,2.688509853036,0,6,0Z"/></clipPath><clipPath id="clip7"><path d="M6,0L84,0C87.311490146964,0,90,2.688509853036,90,6L90,431.40633739570654C90,431.40633739570654,90,431.40633739570654,90,431.40633739570654L0,431.40633739570654C0,431.40633739570654,0,431.40633739570654,0,431.40633739570654L0,6C0,2.688509853036,2.688509853036,0,6,0Z"/></clipPath><clipPath id="clip8"><path d="M6,0L84,0C87.311490146964,0,90,2.688509853036,90,6L90,576.9230769230769C90,576.9230769230769,90,576.9230769230769,90,576.9230769230769L0,576.9230769230769C0,576.9230769230769,0,576.9230769230769,0,576.9230769230769L0,6C0,2.688509853036,2.688509853036,0,6,0Z"/></clipPath></defs></svg>