<svg xmlns="http://www.w3.org/2000/svg" xmlns:xlink="http://www.w3.org/1999/xlink" version="1.1" class="marks" width="846" height="687" viewBox="0 0 846 687"><rect width="846" height="687" fill="white"/><g fill="none" stroke-miterlimit="10" transform="translate(41,36)"><g class="mark-group role-frame root" role="graphics-object" aria-roledescription="group mark container"><g transform="translate(0,0)"><path class="background" aria-hidden="true" d="M0.5,0.5h800v600h-800Z" stroke="#ddd"/><g><g class="mark-group role-axis" role="graphics-symbol" aria-roledescription="axis" aria-label="X-axis titled 'Implementation' for a discrete scale with 5 values: c_uuid_v7.compat&#xA;v0.1.dev29+geda9f2e1f.d20260323, uuid_utils.compat&#xA;v0.14.1, lastuuid&#xA;v0.5.0, uuid6&#xA;v2025.0.1, uuid_v7&#xA;v1.0.0"><g transform="translate(0.5,600.5)"><path class="background" aria-hidden="true" d="M0,0h0v0h0Z" pointer-events="none"/><g><g class="mark-rule role-axis-tick" pointer-events="none"><line transform="translate(80,0)" x2="0" y2="5" stroke="#888" stroke-width="1" opacity="1"/><line transform="translate(240,0)" x2="0" y2="5" stroke="#888" stroke-width="1" opacity="1"/><line transform="translate(400,0)" x2="0" y2="5" stroke="#888" stroke-width="1" opacity="1"/><line transform="translate(560,0)" x2="0" y2="5" stroke="#888" stroke-width="1" opacity="1"/><line transform="translate(720,0)" x2="0" y2="5" stroke="#888" stroke-width="1" opacity="1"/></g><g class="mark-text role-axis-label" pointer-events="none"><text text-anchor="middle" transform="translate(79.5,15)" font-family="sans-serif" font-size="10px" fill="#000" opacity="1"><tspan>c_uuid_v7.compat</tspan><tspan x="0" dy="14">v0.1.dev29+geda9f2e1f.d20260323</tspan></text><text text-anchor="middle" transform="translate(239.5,15)" font-family="sans-serif" font-size="10px" fill="#000" opacity="1"><tspan>uuid_utils.compat</tspan><tspan x="0" dy="14">v0.14.1</tspan></text><text text-anchor="middle" transform="translate(399.5,15)" font-family="sans-serif" font-size="10px" fill="#000" opacity="1"><tspan>lastuuid</tspan><tspan x="0" dy="14">v0.5.0</tspan></text><text text-anchor="middle" transform="translate(559.5,15)" font-family="sans-serif" font-size="10px" fill="#000" opacity="1"><tspan>uuid6</tspan><tspan x="0" dy="14">v2025.0.1</tspan></text><text text-anchor="middle" transform="translate(719.5,15)" font-family="sans-serif" font-size="10px" fill="#000" opacity="1"><tspan>uuid_v7</tspan><tspan x="0" dy="14">v1.0.0</tspan></text></g><g class="mark-rule role-axis-domain" pointer-events="none"><line transform="translate(0,0)" x2="800" y2="0" stroke="#888" stroke-width="1" opacity="1"/></g><g class="mark-text role-axis-title" pointer-events="none"><text text-anchor="middle" transform="translate(400,44)" font-family="sans-serif" font-size="11px" font-weight="bold" fill="#000" opacity="1">Implementation</text></g></g><path class="foreground" aria-hidden="true" d="" pointer-events="none" display="none"/></g></g><g class="mark-group role-axis" role="graphics-symbol" aria-roledescription="axis" aria-label="Y-axis titled 'Execution Time (seconds, lower=better)' for a linear scale with values from 0.0 to 1.6"><g transform="translate(0.5,0.5)"><path class="background" aria-hidden="true" d="M0,0h0v0h0Z" pointer-events="none"/><g><g class="mark-rule role-axis-tick" pointer-events="none"><line transform="translate(0,600)" x2="-5" y2="0" stroke="#888" stroke-width="1" opacity="1"/><line transform="translate(0,564)" x2="-5" y2="0" stroke="#888" stroke-width="1" opacity="1"/><line transform="translate(0,527)" x2="-5" y2="0" stroke="#888" stroke-width="1" opacity="1"/><line transform="translate(0,491)" x2="-5" y2="0" stroke="#888" stroke-width="1" opacity="1"/><line transform="translate(0,454)" x2="-5" y2="0" stroke="#888" stroke-width="1" opacity="1"/><line transform="translate(0,418)" x2="-5" y2="0" stroke="#888" stroke-width="1" opacity="1"/><line transform="translate(0,382)" x2="-5" y2="0" stroke="#888" stroke-width="1" opacity="1"/><line transform="translate(0,345)" x2="-5" y2="0" stroke="#888" stroke-width="1" opacity="1"/><line transform="translate(0,309)" x2="-5" y2="0" stroke="#888" stroke-width="1" opacity="1"/><line transform="translate(0,273)" x2="-5" y2="0" stroke="#888" stroke-width="1" opacity="1"/><line transform="translate(0,236)" x2="-5" y2="0" stroke="#888" stroke-width="1" opacity="1"/><line transform="translate(0,200)" x2="-5" y2="0" stroke="#888" stroke-width="1" opacity="1"/><line transform="translate(0,163)" x2="-5" y2="0" stroke="#888" stroke-width="1" opacity="1"/><line transform="translate(0,127)" x2="-5" y2="0" stroke="#888" stroke-width="1" opacity="1"/><line transform="translate(0,91)" x2="-5" y2="0" stroke="#888" stroke-width="1" opacity="1"/><line transform="translate(0,54)" x2="-5" y2="0" stroke="#888" stroke-width="1" opacity="1"/><line transform="translate(0,18)" x2="-5" y2="0" stroke="#888" stroke-width="1" opacity="1"/></g><g class="mark-text role-axis-label" pointer-events="none"><text text-anchor="end" transform="translate(-7,603)" font-family="sans-serif" font-size="10px" fill="#000" opacity="1">0.0</text><text text-anchor="end" transform="translate(-7,566.6230201192118)" font-family="sans-serif" font-size="10px" fill="#000" opacity="1">0.1</text><text text-anchor="end" transform="translate(-7,530.2460402384236)" font-family="sans-serif" font-size="10px" fill="#000" opacity="1">0.2</text><text text-anchor="end" transform="translate(-7,493.86906035763536)" font-family="sans-serif" font-size="10px" fill="#000" opacity="1">0.3</text><text text-anchor="end" transform="translate(-7,457.4920804768471)" font-family="sans-serif" font-size="10px" fill="#000" opacity="1">0.4</text><text text-anchor="end" transform="translate(-7,421.11510059605894)" font-family="sans-serif" font-size="10px" fill="#000" opacity="1">0.5</text><text text-anchor="end" transform="translate(-7,384.73812071527067)" font-family="sans-serif" font-size="10px" fill="#000" opacity="1">0.6</text><text text-anchor="end" transform="translate(-7,348.36114083448246)" font-family="sans-serif" font-size="10px" fill="#000" opacity="1">0.7</text><text text-anchor="end" transform="translate(-7,311.9841609536942)" font-family="sans-serif" font-size="10px" fill="#000" opacity="1">0.8</text><text text-anchor="end" transform="translate(-7,275.6071810729061)" font-family="sans-serif" font-size="10px" fill="#000" opacity="1">0.9</text><text text-anchor="end" transform="translate(-7,239.23020119211787)" font-family="sans-serif" font-size="10px" fill="#000" opacity="1">1.0</text><text text-anchor="end" transform="translate(-7,202.85322131132958)" font-family="sans-serif" font-size="10px" fill="#000" opacity="1">1.1</text><text text-anchor="end" transform="translate(-7,166.4762414305414)" font-family="sans-serif" font-size="10px" fill="#000" opacity="1">1.2</text><text text-anchor="end" transform="translate(-7,130.09926154975318)" font-family="sans-serif" font-size="10px" fill="#000" opacity="1">1.3</text><text text-anchor="end" transform="translate(-7,93.72228166896497)" font-family="sans-serif" font-size="10px" fill="#000" opacity="1">1.4</text><text text-anchor="end" transform="translate(-7,57.345301788176755)" font-family="sans-serif" font-size="10px" fill="#000" opacity="1">1.5</text><text text-anchor="end" transform="translate(-7,20.968321907388486)" font-family="sans-serif" font-size="10px" fill="#000" opacity="1">1.6</text></g><g class="mark-rule role-axis-domain" pointer-events="none"><line transform="translate(0,600)" x2="0" y2="-600" stroke="#888" stroke-width="1" opacity="1"/></g><g class="mark-text role-axis-title" pointer-events="none"><text text-anchor="middle" transform="translate(-24.9013671875,300) rotate(-90) translate(0,-2)" font-family="sans-serif" font-size="11px" font-weight="bold" fill="#000" opacity="1">Execution Time (seconds, lower=better)</text></g></g><path class="foreground" aria-hidden="true" d="" pointer-events="none" display="none"/></g></g><g class="mark-group role-scope" role="graphics-object" aria-roledescription="group mark container"><g transform="translate(8,437.546009907531)"><path class="background" aria-hidden="true" d="M6,0L138,0C141.311490146964,0,144,2.688509853036,144,6L144,162.45399009246898C144,162.45399009246898,144,162.45399009246898,144,162.45399009246898L0,162.45399009246898C0,162.45399009246898,0,162.45399009246898,0,162.45399009246898L0,6C0,2.688509853036,2.688509853036,0,6,0Z"/><g clip-path="url(#clip7)"><g class="mark-group role-scope" role="graphics-object" aria-roledescription="group mark container"><g transform="translate(0,-437.546009907531)"><path class="background" aria-hidden="true" d="M0,0h144v0h-144Z"/><g><g class="mark-rect role-mark layer_0_marks" role="graphics-object" aria-roledescription="rect mark container"><path aria-label="Implementation: c_uuid_v7.compat&#xA;v0.1.dev29+geda9f2e1f.d20260323; Execution Time (seconds, lower=better): 0.446584599999; implementation: c_uuid_v7.compat; Execution Time (s): 0.4466; Slowdown: 1.00" role="graphics-symbol" aria-roledescription="bar" d="M0,437.546009907531h144v162.45399009246898h-144Z" fill="#1b9e77"/></g></g><path class="foreground" aria-hidden="true" d="" display="none"/></g></g></g><path class="foreground" aria-hidden="true" d="" display="none"/></g><g transform="translate(168,395.9089551126557)"><path class="background" aria-hidden="true" d="M6,0L138,0C141.311490146964,0,144,2.688509853036,144,6L144,204.0910448873443C144,204.0910448873443,144,204.0910448873443,144,204.0910448873443L0,204.0910448873443C0,204.0910448873443,0,204.0910448873443,0,204.0910448873443L0,6C0,2.688509853036,2.688509853036,0,6,0Z"/><g clip-path="url(#clip8)"><g class="mark-group role-scope" role="graphics-object" aria-roledescription="group mark container"><g transform="translate(0,-395.9089551126557)"><path class="background" aria-hidden="true" d="M0,0h144v0h-144Z"/><g><g class="mark-rect role-mark layer_0_marks" role="graphics-object" aria-roledescription="rect mark container"><path aria-label="Implementation: uuid_utils.compat&#xA;v0.14.1; Execution Time (seconds, lower=better): 0.5610445; implementation: uuid_utils.compat; Execution Time (s): 0.5610; Slowdown: 1.26" role="graphics-symbol" aria-roledescription="bar" d="M0,395.9089551126557h144v204.0910448873443h-144Z" fill="#e7298a"/></g></g><path class="foreground" aria-hidden="true" d="" display="none"/></g></g></g><path class="foreground" aria-hidden="true" d="" display="none"/></g><g transform="translate(328,329.70419767794596)"><path class="background" aria-hidden="true" d="M6,0L138,0C141.311490146964,0,144,2.688509853036,144,6L144,270.29580232205404C144,270.29580232205404,144,270.29580232205404,144,270.29580232205404L0,270.29580232205404C0,270.29580232205404,0,270.29580232205404,0,270.29580232205404L0,6C0,2.688509853036,2.688509853036,0,6,0Z"/><g clip-path="url(#clip9)"><g class="mark-group role-scope" role="graphics-object" aria-roledescription="group mark container"><g transform="translate(0,-329.70419767794596)"><path class="background" aria-hidden="true" d="M0,0h144v0h-144Z"/><g><g class="mark-rect role-mark layer_0_marks" role="graphics-object" aria-roledescription="rect mark container"><path aria-label="Implementation: lastuuid&#xA;v0.5.0; Execution Time (seconds, lower=better): 0.7430408; implementation: lastuuid; Execution Time (s): 0.7430; Slowdown: 1.66" role="graphics-symbol" aria-roledescription="bar" d="M0,329.70419767794596h144v270.29580232205404h-144Z" fill="#d95f02"/></g></g><path class="foreground" aria-hidden="true" d="" display="none"/></g></g></g><path class="foreground" aria-hidden="true" d="" display="none"/></g><g transform="translate(488,219.82338297241716)"><path class="background" aria-hidden="true" d="M6,0L138,0C141.311490146964,0,144,2.688509853036,144,6L144,380.17661702758284C144,380.17661702758284,144,380.17661702758284,144,380.17661702758284L0,380.17661702758284C0,380.17661702758284,0,380.17661702758284,0,380.17661702758284L0,6C0,2.688509853036,2.688509853036,0,6,0Z"/><g clip-path="url(#clip10)"><g class="mark-group role-scope" role="graphics-object" aria-roledescription="group mark container"><g transform="translate(0,-219.82338297241716)"><path class="background" aria-hidden="true" d="M0,0h144v0h-144Z"/><g><g class="mark-rect role-mark layer_0_marks" role="graphics-object" aria-roledescription="rect mark container"><path aria-label="Implementation: uuid6&#xA;v2025.0.1; Execution Time (seconds, lower=better): 1.0451022; implementation: uuid6; Execution Time (s): 1.0451; Slowdown: 2.34" role="graphics-symbol" aria-roledescription="bar" d="M0,219.82338297241716h144v380.17661702758284h-144Z" fill="#7570b3"/></g></g><path class="foreground" aria-hidden="true" d="" display="none"/></g></g></g><path class="foreground" aria-hidden="true" d="" display="none"/></g><g transform="translate(648,23.07692307692313)"><path class="background" aria-hidden="true" d="M6,0L138,0C141.311490146964,0,144,2.688509853036,144,6L144,576.9230769230769C144,576.9230769230769,144,576.9230769230769,144,576.9230769230769L0,576.9230769230769C0,576.9230769230769,0,576.9230769230769,0,576.9230769230769L0,6C0,2.688509853036,2.688509853036,0,6,0Z"/><g clip-path="url(#clip11)"><g class="mark-group role-scope" role="graphics-object" aria-roledescription="group mark container"><g transform="translate(0,-23.07692307692313)"><path class="background" aria-hidden="true" d="M0,0h144v0h-144Z"/><g><g class="mark-rect role-mark layer_0_marks" role="graphics-object" aria-roledescription="rect mark container"><path aria-label="Implementation: uuid_v7&#xA;v1.0.0; Execution Time (seconds, lower=better): 1.5859565; implementation: uuid_v7; Execution Time (s): 1.5860; Slowdown: 3.55" role="graphics-symbol" aria-roledescription="bar" d="M0,23.07692307692313h144v576.9230769230769h-144Z" fill="#66a61e"/></g></g><path class="foreground" aria-hidden="true" d="" display="none"/></g></g></g><path class="foreground" aria-hidden="true" d="" display="none"/></g></g><g class="mark-text role-mark layer_1_marks" role="graphics-object" aria-roledescription="text mark container"><text aria-label="Implementation: c_uuid_v7.compat&#xA;v0.1.dev29+geda9f2e1f.d20260323; Execution Time (seconds, lower=better): 0.446584599999; implementation: c_uuid_v7.compat; label: 0.4466s (x1.00); Execution Time (s): 0.4466; Slowdown: 1.00" role="graphics-symbol" aria-roledescription="text mark" text-anchor="middle" transform="translate(80,433.546009907531)" font-family="sans-serif" font-size="9px" font-weight="bold" fill="#1b9e77">0.4466s (x1.00)</text><text aria-label="Implementation: uuid_utils.compat&#xA;v0.14.1; Execution Time (seconds, lower=better): 0.5610445; implementation: uuid_utils.compat; label: 0.5610s (x1.26); Execution Time (s): 0.5610; Slowdown: 1.26" role="graphics-symbol" aria-roledescription="text mark" text-anchor="middle" transform="translate(240,391.9089551126557)" font-family="sans-serif" font-size="9px" font-weight="bold" fill="#e7298a">0.5610s (x1.26)</text><text aria-label="Implementation: lastuuid&#xA;v0.5.0; Execution Time (seconds, lower=better): 0.7430408; implementation: lastuuid; label: 0.7430s (x1.66); Execution Time (s): 0.7430; Slowdown: 1.66" role="graphics-symbol" aria-roledescription="text mark" text-anchor="middle" transform="translate(400,325.70419767794596)" font-family="sans-serif" font-size="9px" font-weight="bold" fill="#d95f02">0.7430s (x1.66)</text><text aria-label="Implementation: uuid6&#xA;v2025.0.1; Execution Time (seconds, lower=better): 1.0451022; implementation: uuid6; label: 1.0451s (x2.34); Execution Time (s): 1.0451; Slowdown: 2.34" role="graphics-symbol" aria-roledescription="text mark" text-anchor="middle" transform="translate(560,215.82338297241716)" font-family="sans-serif" font-size="9px" font-weight="bold" fill="#7570b3">1.0451s (x2.34)</text><text aria-label="Implementation: uuid_v7&#xA;v1.0.0; Execution Time (seconds, lower=better): 1.5859565; implementation: uuid_v7; label: 1.5860s (x3.55); Execution Time (s): 1.5860; Slowdown: 3.55" role="graphics-symbol" aria-roledescription="text mark" text-anchor="middle" transform="translate(720,19.07692307692313)" font-family="sans-serif" font-size="9px" font-weight="bold" fill="#66a61e">1.5860s (x3.55)</text></g><g class="mark-group role-title"><g transform="translate(400,-31)"><path class="background" aria-hidden="true" d="M0,0h0v0h0Z" pointer-events="none"/><g><g class="mark-text role-title-text" role="graphics-symbol" aria-roledescription="title" aria-label="Title text 'UUID v7 benchmark (uuid7() compact / stdlib-compatible APIs)'" pointer-events="none"><text text-anchor="middle" transform="translate(0,10)" font-family="sans-serif" font-size="13px" font-weight="bold" fill="#000" opacity="1">UUID v7 benchmark (uuid7() compact / stdlib-compatible APIs)</text></g><g class="mark-text role-title-subtitle" role="graphics-symbol" aria-roledescription="subtitle" aria-label="Subtitle text 'Python: 3.13.8 (Windows 10) | CPU: 11th Gen Intel(R) Core(TM) i5-11300H @ 3.10GHz'" pointer-events="none"><text text-anchor="middle" transform="translate(0,25)" font-family="sans-serif" font-size="12px" fill="#000" opacity="1">Python: 3.13.8 (Windows 10) | CPU: 11th Gen Intel(R) Core(TM) i5-11300H @ 3.10GHz</text></g></g><path class="foreground" aria-hidden="true" d="" pointer-events="none" display="none"/></g></g></g><path class="foreground" aria-hidden="true" d="" display="none"/></g></g></g><defs><clipPath id="clip7"><path d="M6,0L138,0C141.311490146964,0,144,2.688509853036,144,6L144,162.45399009246898C144,162.45399009246898,144,162.45399009246898,144,162.45399009246898L0,162.45399009246898C0,162.45399009246898,0,162.45399009246898,0,162.45399009246898L0,6C0,2.688509853036,2.688509853036,0,6,0Z"/></clipPath><clipPath id="clip8"><path d="M6,0L138,0C141.311490146964,0,144,2.688509853036,144,6L144,204.0910448873443C144,204.0910448873443,144,204.0910448873443,144,204.0910448873443L0,204.0910448873443C0,204.0910448873443,0,204.0910448873443,0,204.0910448873443L0,6C0,2.688509853036,2.688509853036,0,6,0Z"/></clipPath><clipPath id="clip9"><path d="M6,0L138,0C141.311490146964,0,144,2.688509853036,144,6L144,270.29580232205404C144,270.29580232205404,144,270.29580232205404,144,270.29580232205404L0,270.29580232205404C0,270.29580232205404,0,270.29580232205404,0,270.29580232205404L0,6C0,2.688509853036,2.688509853036,0,6,0Z"/></clipPath><clipPath id="clip10"><path d="M6,0L138,0C141.311490146964,0,144,2.688509853036,144,6L144,380.17661702758284C144,380.17661702758284,144,380.17661702758284,144,380.17661702758284L0,380.17661702758284C0,380.17661702758284,0,380.17661702758284,0,380.17661702758284L0,6C0,2.688509853036,2.688509853036,0,6,0Z"/></clipPath><clipPath id="clip11"><path d="M6,0L138,0C141.311490146964,0,144,2.688509853036,144,6L144,576.9230769230769C144,576.9230769230769,144,576.9230769230769,144,576.9230769230769L0,576.9230769230769C0,576.9230769230769,0,576.9230769230769,0,576.9230769230769L0,6C0,2.688509853036,2.688509853036,0,6,0Z"/></clipPath></defs></svg>