<svg xmlns="http://www.w3.org/2000/svg" xmlns:xlink="http://www.w3.org/1999/xlink" version="1.1" class="marks" width="846" height="687" viewBox="0 0 846 687"><rect width="846" height="687" fill="white"/><g fill="none" stroke-miterlimit="10" transform="translate(41,36)"><g class="mark-group role-frame root" role="graphics-object" aria-roledescription="group mark container"><g transform="translate(0,0)"><path class="background" aria-hidden="true" d="M0.5,0.5h800v600h-800Z" stroke="#ddd"/><g><g class="mark-group role-axis" role="graphics-symbol" aria-roledescription="axis" aria-label="X-axis titled 'Implementation' for a discrete scale with 7 values: c_uuid_v7&#xA;v0.1.dev29+geda9f2e1f.d20260323, uuid_utils&#xA;v0.14.1, fastuuid&#xA;v0.14.0, lastuuid&#xA;v0.5.0, UUIDv7gen&#xA;v1.0.3, uuid6&#xA;v2025.0.1, uuid_v7&#xA;v1.0.0"><g transform="translate(0.5,600.5)"><path class="background" aria-hidden="true" d="M0,0h0v0h0Z" pointer-events="none"/><g><g class="mark-rule role-axis-tick" pointer-events="none"><line transform="translate(57,0)" x2="0" y2="5" stroke="#888" stroke-width="1" opacity="1"/><line transform="translate(171,0)" x2="0" y2="5" stroke="#888" stroke-width="1" opacity="1"/><line transform="translate(285,0)" x2="0" y2="5" stroke="#888" stroke-width="1" opacity="1"/><line transform="translate(400,0)" x2="0" y2="5" stroke="#888" stroke-width="1" opacity="1"/><line transform="translate(514,0)" x2="0" y2="5" stroke="#888" stroke-width="1" opacity="1"/><line transform="translate(628,0)" x2="0" y2="5" stroke="#888" stroke-width="1" opacity="1"/><line transform="translate(742,0)" x2="0" y2="5" stroke="#888" stroke-width="1" opacity="1"/></g><g class="mark-text role-axis-label" pointer-events="none"><text text-anchor="middle" transform="translate(56.642857142857096,15)" font-family="sans-serif" font-size="10px" fill="#000" opacity="1"><tspan>c_uuid_v7</tspan><tspan x="0" dy="14">v0.1.dev29+geda9f2e1f.d20260323</tspan></text><text text-anchor="middle" transform="translate(170.9285714285714,15)" font-family="sans-serif" font-size="10px" fill="#000" opacity="1"><tspan>uuid_utils</tspan><tspan x="0" dy="14">v0.14.1</tspan></text><text text-anchor="middle" transform="translate(285.21428571428567,15)" font-family="sans-serif" font-size="10px" fill="#000" opacity="1"><tspan>fastuuid</tspan><tspan x="0" dy="14">v0.14.0</tspan></text><text text-anchor="middle" transform="translate(399.5,15)" font-family="sans-serif" font-size="10px" fill="#000" opacity="1"><tspan>lastuuid</tspan><tspan x="0" dy="14">v0.5.0</tspan></text><text text-anchor="middle" transform="translate(513.7857142857142,15)" font-family="sans-serif" font-size="10px" fill="#000" opacity="1"><tspan>UUIDv7gen</tspan><tspan x="0" dy="14">v1.0.3</tspan></text><text text-anchor="middle" transform="translate(628.0714285714286,15)" font-family="sans-serif" font-size="10px" fill="#000" opacity="1"><tspan>uuid6</tspan><tspan x="0" dy="14">v2025.0.1</tspan></text><text text-anchor="middle" transform="translate(742.3571428571429,15)" font-family="sans-serif" font-size="10px" fill="#000" opacity="1"><tspan>uuid_v7</tspan><tspan x="0" dy="14">v1.0.0</tspan></text></g><g class="mark-rule role-axis-domain" pointer-events="none"><line transform="translate(0,0)" x2="800" y2="0" stroke="#888" stroke-width="1" opacity="1"/></g><g class="mark-text role-axis-title" pointer-events="none"><text text-anchor="middle" transform="translate(400,44)" font-family="sans-serif" font-size="11px" font-weight="bold" fill="#000" opacity="1">Implementation</text></g></g><path class="foreground" aria-hidden="true" d="" pointer-events="none" display="none"/></g></g><g class="mark-group role-axis" role="graphics-symbol" aria-roledescription="axis" aria-label="Y-axis titled 'Execution Time (seconds, lower=better)' for a linear scale with values from 0.0 to 1.7"><g transform="translate(0.5,0.5)"><path class="background" aria-hidden="true" d="M0,0h0v0h0Z" pointer-events="none"/><g><g class="mark-rule role-axis-tick" pointer-events="none"><line transform="translate(0,600)" x2="-5" y2="0" stroke="#888" stroke-width="1" opacity="1"/><line transform="translate(0,564)" x2="-5" y2="0" stroke="#888" stroke-width="1" opacity="1"/><line transform="translate(0,528)" x2="-5" y2="0" stroke="#888" stroke-width="1" opacity="1"/><line transform="translate(0,492)" x2="-5" y2="0" stroke="#888" stroke-width="1" opacity="1"/><line transform="translate(0,456)" x2="-5" y2="0" stroke="#888" stroke-width="1" opacity="1"/><line transform="translate(0,420)" x2="-5" y2="0" stroke="#888" stroke-width="1" opacity="1"/><line transform="translate(0,384)" x2="-5" y2="0" stroke="#888" stroke-width="1" opacity="1"/><line transform="translate(0,348)" x2="-5" y2="0" stroke="#888" stroke-width="1" opacity="1"/><line transform="translate(0,312)" x2="-5" y2="0" stroke="#888" stroke-width="1" opacity="1"/><line transform="translate(0,276)" x2="-5" y2="0" stroke="#888" stroke-width="1" opacity="1"/><line transform="translate(0,240)" x2="-5" y2="0" stroke="#888" stroke-width="1" opacity="1"/><line transform="translate(0,205)" x2="-5" y2="0" stroke="#888" stroke-width="1" opacity="1"/><line transform="translate(0,169)" x2="-5" y2="0" stroke="#888" stroke-width="1" opacity="1"/><line transform="translate(0,133)" x2="-5" y2="0" stroke="#888" stroke-width="1" opacity="1"/><line transform="translate(0,97)" x2="-5" y2="0" stroke="#888" stroke-width="1" opacity="1"/><line transform="translate(0,61)" x2="-5" y2="0" stroke="#888" stroke-width="1" opacity="1"/><line transform="translate(0,25)" x2="-5" y2="0" stroke="#888" stroke-width="1" opacity="1"/></g><g class="mark-text role-axis-label" pointer-events="none"><text text-anchor="end" transform="translate(-7,603)" font-family="sans-serif" font-size="10px" fill="#000" opacity="1">0.0</text><text text-anchor="end" transform="translate(-7,567.0474173148273)" font-family="sans-serif" font-size="10px" fill="#000" opacity="1">0.1</text><text text-anchor="end" transform="translate(-7,531.0948346296547)" font-family="sans-serif" font-size="10px" fill="#000" opacity="1">0.2</text><text text-anchor="end" transform="translate(-7,495.142251944482)" font-family="sans-serif" font-size="10px" fill="#000" opacity="1">0.3</text><text text-anchor="end" transform="translate(-7,459.18966925930926)" font-family="sans-serif" font-size="10px" fill="#000" opacity="1">0.4</text><text text-anchor="end" transform="translate(-7,423.2370865741366)" font-family="sans-serif" font-size="10px" fill="#000" opacity="1">0.5</text><text text-anchor="end" transform="translate(-7,387.28450388896397)" font-family="sans-serif" font-size="10px" fill="#000" opacity="1">0.6</text><text text-anchor="end" transform="translate(-7,351.33192120379135)" font-family="sans-serif" font-size="10px" fill="#000" opacity="1">0.7</text><text text-anchor="end" transform="translate(-7,315.37933851861857)" font-family="sans-serif" font-size="10px" fill="#000" opacity="1">0.8</text><text text-anchor="end" transform="translate(-7,279.42675583344595)" font-family="sans-serif" font-size="10px" fill="#000" opacity="1">0.9</text><text text-anchor="end" transform="translate(-7,243.47417314827325)" font-family="sans-serif" font-size="10px" fill="#000" opacity="1">1.0</text><text text-anchor="end" transform="translate(-7,207.52159046310055)" font-family="sans-serif" font-size="10px" fill="#000" opacity="1">1.1</text><text text-anchor="end" transform="translate(-7,171.5690077779279)" font-family="sans-serif" font-size="10px" fill="#000" opacity="1">1.2</text><text text-anchor="end" transform="translate(-7,135.6164250927552)" font-family="sans-serif" font-size="10px" fill="#000" opacity="1">1.3</text><text text-anchor="end" transform="translate(-7,99.66384240758259)" font-family="sans-serif" font-size="10px" fill="#000" opacity="1">1.4</text><text text-anchor="end" transform="translate(-7,63.71125972240989)" font-family="sans-serif" font-size="10px" fill="#000" opacity="1">1.5</text><text text-anchor="end" transform="translate(-7,27.75867703723713)" font-family="sans-serif" font-size="10px" fill="#000" opacity="1">1.6</text></g><g class="mark-rule role-axis-domain" pointer-events="none"><line transform="translate(0,600)" x2="0" y2="-600" stroke="#888" stroke-width="1" opacity="1"/></g><g class="mark-text role-axis-title" pointer-events="none"><text text-anchor="middle" transform="translate(-24.9013671875,300) rotate(-90) translate(0,-2)" font-family="sans-serif" font-size="11px" font-weight="bold" fill="#000" opacity="1">Execution Time (seconds, lower=better)</text></g></g><path class="foreground" aria-hidden="true" d="" pointer-events="none" display="none"/></g></g><g class="mark-group role-scope" role="graphics-object" aria-roledescription="group mark container"><g transform="translate(5.714285714285666,594.7287042319066)"><path class="background" aria-hidden="true" d="M2.635647884046705,0L100.22149497309616,0C101.67614863957735,0,102.85714285714286,1.1809942175655086,102.85714285714286,2.635647884046705L102.85714285714286,5.27129576809341C102.85714285714286,5.27129576809341,102.85714285714286,5.27129576809341,102.85714285714286,5.27129576809341L0,5.27129576809341C0,5.27129576809341,0,5.27129576809341,0,5.27129576809341L0,2.635647884046705C0,1.1809942175655086,1.1809942175655086,0,2.635647884046705,0Z"/><g clip-path="url(#clip1)"><g class="mark-group role-scope" role="graphics-object" aria-roledescription="group mark container"><g transform="translate(0,-594.7287042319066)"><path class="background" aria-hidden="true" d="M0,0h102.85714285714286v0h-102.85714285714286Z"/><g><g class="mark-rect role-mark layer_0_marks" role="graphics-object" aria-roledescription="rect mark container"><path aria-label="Implementation: c_uuid_v7&#xA;v0.1.dev29+geda9f2e1f.d20260323; Execution Time (seconds, lower=better): 0.0146617999999; implementation: c_uuid_v7; Execution Time (s): 0.0147; Slowdown: 1.00" role="graphics-symbol" aria-roledescription="bar" d="M0,594.7287042319066h102.85714285714286v5.27129576809341h-102.85714285714286Z" fill="#d95f02"/></g></g><path class="foreground" aria-hidden="true" d="" display="none"/></g></g></g><path class="foreground" aria-hidden="true" d="" display="none"/></g><g transform="translate(119.99999999999996,577.1237311634997)"><path class="background" aria-hidden="true" d="M6,0L96.85714285714286,0C100.16863300410687,0,102.85714285714286,2.688509853036,102.85714285714286,6L102.85714285714286,22.876268836500344C102.85714285714286,22.876268836500344,102.85714285714286,22.876268836500344,102.85714285714286,22.876268836500344L0,22.876268836500344C0,22.876268836500344,0,22.876268836500344,0,22.876268836500344L0,6C0,2.688509853036,2.688509853036,0,6,0Z"/><g clip-path="url(#clip2)"><g class="mark-group role-scope" role="graphics-object" aria-roledescription="group mark container"><g transform="translate(0,-577.1237311634997)"><path class="background" aria-hidden="true" d="M0,0h102.85714285714286v0h-102.85714285714286Z"/><g><g class="mark-rect role-mark layer_0_marks" role="graphics-object" aria-roledescription="rect mark container"><path aria-label="Implementation: uuid_utils&#xA;v0.14.1; Execution Time (seconds, lower=better): 0.0636289999993; implementation: uuid_utils; Execution Time (s): 0.0636; Slowdown: 4.34" role="graphics-symbol" aria-roledescription="bar" d="M0,577.1237311634997h102.85714285714286v22.876268836500344h-102.85714285714286Z" fill="#e6ab02"/></g></g><path class="foreground" aria-hidden="true" d="" display="none"/></g></g></g><path class="foreground" aria-hidden="true" d="" display="none"/></g><g transform="translate(234.28571428571425,575.9650153758644)"><path class="background" aria-hidden="true" d="M6,0L96.85714285714286,0C100.16863300410687,0,102.85714285714286,2.688509853036,102.85714285714286,6L102.85714285714286,24.03498462413563C102.85714285714286,24.03498462413563,102.85714285714286,24.03498462413563,102.85714285714286,24.03498462413563L0,24.03498462413563C0,24.03498462413563,0,24.03498462413563,0,24.03498462413563L0,6C0,2.688509853036,2.688509853036,0,6,0Z"/><g clip-path="url(#clip3)"><g class="mark-group role-scope" role="graphics-object" aria-roledescription="group mark container"><g transform="translate(0,-575.9650153758644)"><path class="background" aria-hidden="true" d="M0,0h102.85714285714286v0h-102.85714285714286Z"/><g><g class="mark-rect role-mark layer_0_marks" role="graphics-object" aria-roledescription="rect mark container"><path aria-label="Implementation: fastuuid&#xA;v0.14.0; Execution Time (seconds, lower=better): 0.0668519000001; implementation: fastuuid; Execution Time (s): 0.0669; Slowdown: 4.56" role="graphics-symbol" aria-roledescription="bar" d="M0,575.9650153758644h102.85714285714286v24.03498462413563h-102.85714285714286Z" fill="#7570b3"/></g></g><path class="foreground" aria-hidden="true" d="" display="none"/></g></g></g><path class="foreground" aria-hidden="true" d="" display="none"/></g><g transform="translate(348.57142857142856,337.59345999713963)"><path class="background" aria-hidden="true" d="M6,0L96.85714285714286,0C100.16863300410687,0,102.85714285714286,2.688509853036,102.85714285714286,6L102.85714285714286,262.40654000286037C102.85714285714286,262.40654000286037,102.85714285714286,262.40654000286037,102.85714285714286,262.40654000286037L0,262.40654000286037C0,262.40654000286037,0,262.40654000286037,0,262.40654000286037L0,6C0,2.688509853036,2.688509853036,0,6,0Z"/><g clip-path="url(#clip4)"><g class="mark-group role-scope" role="graphics-object" aria-roledescription="group mark container"><g transform="translate(0,-337.59345999713963)"><path class="background" aria-hidden="true" d="M0,0h102.85714285714286v0h-102.85714285714286Z"/><g><g class="mark-rect role-mark layer_0_marks" role="graphics-object" aria-roledescription="rect mark container"><path aria-label="Implementation: lastuuid&#xA;v0.5.0; Execution Time (seconds, lower=better): 0.7298684; implementation: lastuuid; Execution Time (s): 0.7299; Slowdown: 49.78" role="graphics-symbol" aria-roledescription="bar" d="M0,337.59345999713963h102.85714285714286v262.40654000286037h-102.85714285714286Z" fill="#e7298a"/></g></g><path class="foreground" aria-hidden="true" d="" display="none"/></g></g></g><path class="foreground" aria-hidden="true" d="" display="none"/></g><g transform="translate(462.85714285714283,329.5746319075407)"><path class="background" aria-hidden="true" d="M6,0L96.85714285714286,0C100.16863300410687,0,102.85714285714286,2.688509853036,102.85714285714286,6L102.85714285714286,270.4253680924593C102.85714285714286,270.4253680924593,102.85714285714286,270.4253680924593,102.85714285714286,270.4253680924593L0,270.4253680924593C0,270.4253680924593,0,270.4253680924593,0,270.4253680924593L0,6C0,2.688509853036,2.688509853036,0,6,0Z"/><g clip-path="url(#clip5)"><g class="mark-group role-scope" role="graphics-object" aria-roledescription="group mark container"><g transform="translate(0,-329.5746319075407)"><path class="background" aria-hidden="true" d="M0,0h102.85714285714286v0h-102.85714285714286Z"/><g><g class="mark-rect role-mark layer_0_marks" role="graphics-object" aria-roledescription="rect mark container"><path aria-label="Implementation: UUIDv7gen&#xA;v1.0.3; Execution Time (seconds, lower=better): 0.7521723; implementation: UUIDv7gen; Execution Time (s): 0.7522; Slowdown: 51.30" role="graphics-symbol" aria-roledescription="bar" d="M0,329.5746319075407h102.85714285714286v270.4253680924593h-102.85714285714286Z" fill="#1b9e77"/></g></g><path class="foreground" aria-hidden="true" d="" display="none"/></g></g></g><path class="foreground" aria-hidden="true" d="" display="none"/></g><g transform="translate(577.1428571428571,225.5702097589307)"><path class="background" aria-hidden="true" d="M6,0L96.85714285714286,0C100.16863300410687,0,102.85714285714286,2.688509853036,102.85714285714286,6L102.85714285714286,374.4297902410693C102.85714285714286,374.4297902410693,102.85714285714286,374.4297902410693,102.85714285714286,374.4297902410693L0,374.4297902410693C0,374.4297902410693,0,374.4297902410693,0,374.4297902410693L0,6C0,2.688509853036,2.688509853036,0,6,0Z"/><g clip-path="url(#clip6)"><g class="mark-group role-scope" role="graphics-object" aria-roledescription="group mark container"><g transform="translate(0,-225.5702097589307)"><path class="background" aria-hidden="true" d="M0,0h102.85714285714286v0h-102.85714285714286Z"/><g><g class="mark-rect role-mark layer_0_marks" role="graphics-object" aria-roledescription="rect mark container"><path aria-label="Implementation: uuid6&#xA;v2025.0.1; Execution Time (seconds, lower=better): 1.0414545; implementation: uuid6; Execution Time (s): 1.0415; Slowdown: 71.03" role="graphics-symbol" aria-roledescription="bar" d="M0,225.5702097589307h102.85714285714286v374.4297902410693h-102.85714285714286Z" fill="#66a61e"/></g></g><path class="foreground" aria-hidden="true" d="" display="none"/></g></g></g><path class="foreground" aria-hidden="true" d="" display="none"/></g><g transform="translate(691.4285714285714,23.07692307692313)"><path class="background" aria-hidden="true" d="M6,0L96.85714285714286,0C100.16863300410687,0,102.85714285714286,2.688509853036,102.85714285714286,6L102.85714285714286,576.9230769230769C102.85714285714286,576.9230769230769,102.85714285714286,576.9230769230769,102.85714285714286,576.9230769230769L0,576.9230769230769C0,576.9230769230769,0,576.9230769230769,0,576.9230769230769L0,6C0,2.688509853036,2.688509853036,0,6,0Z"/><g clip-path="url(#clip7)"><g class="mark-group role-scope" role="graphics-object" aria-roledescription="group mark container"><g transform="translate(0,-23.07692307692313)"><path class="background" aria-hidden="true" d="M0,0h102.85714285714286v0h-102.85714285714286Z"/><g><g class="mark-rect role-mark layer_0_marks" role="graphics-object" aria-roledescription="rect mark container"><path aria-label="Implementation: uuid_v7&#xA;v1.0.0; Execution Time (seconds, lower=better): 1.6046777; implementation: uuid_v7; Execution Time (s): 1.6047; Slowdown: 109.45" role="graphics-symbol" aria-roledescription="bar" d="M0,23.07692307692313h102.85714285714286v576.9230769230769h-102.85714285714286Z" fill="#a6761d"/></g></g><path class="foreground" aria-hidden="true" d="" display="none"/></g></g></g><path class="foreground" aria-hidden="true" d="" display="none"/></g></g><g class="mark-text role-mark layer_1_marks" role="graphics-object" aria-roledescription="text mark container"><text aria-label="Implementation: c_uuid_v7&#xA;v0.1.dev29+geda9f2e1f.d20260323; Execution Time (seconds, lower=better): 0.0146617999999; implementation: c_uuid_v7; label: 0.0147s (x1.00); Execution Time (s): 0.0147; Slowdown: 1.00" role="graphics-symbol" aria-roledescription="text mark" text-anchor="middle" transform="translate(57.142857142857096,590.7287042319066)" font-family="sans-serif" font-size="9px" font-weight="bold" fill="#d95f02">0.0147s (x1.00)</text><text aria-label="Implementation: uuid_utils&#xA;v0.14.1; Execution Time (seconds, lower=better): 0.0636289999993; implementation: uuid_utils; label: 0.0636s (x4.34); Execution Time (s): 0.0636; Slowdown: 4.34" role="graphics-symbol" aria-roledescription="text mark" text-anchor="middle" transform="translate(171.4285714285714,573.1237311634997)" font-family="sans-serif" font-size="9px" font-weight="bold" fill="#e6ab02">0.0636s (x4.34)</text><text aria-label="Implementation: fastuuid&#xA;v0.14.0; Execution Time (seconds, lower=better): 0.0668519000001; implementation: fastuuid; label: 0.0669s (x4.56); Execution Time (s): 0.0669; Slowdown: 4.56" role="graphics-symbol" aria-roledescription="text mark" text-anchor="middle" transform="translate(285.71428571428567,571.9650153758644)" font-family="sans-serif" font-size="9px" font-weight="bold" fill="#7570b3">0.0669s (x4.56)</text><text aria-label="Implementation: lastuuid&#xA;v0.5.0; Execution Time (seconds, lower=better): 0.7298684; implementation: lastuuid; label: 0.7299s (x49.78); Execution Time (s): 0.7299; Slowdown: 49.78" role="graphics-symbol" aria-roledescription="text mark" text-anchor="middle" transform="translate(400,333.59345999713963)" font-family="sans-serif" font-size="9px" font-weight="bold" fill="#e7298a">0.7299s (x49.78)</text><text aria-label="Implementation: UUIDv7gen&#xA;v1.0.3; Execution Time (seconds, lower=better): 0.7521723; implementation: UUIDv7gen; label: 0.7522s (x51.30); Execution Time (s): 0.7522; Slowdown: 51.30" role="graphics-symbol" aria-roledescription="text mark" text-anchor="middle" transform="translate(514.2857142857142,325.5746319075407)" font-family="sans-serif" font-size="9px" font-weight="bold" fill="#1b9e77">0.7522s (x51.30)</text><text aria-label="Implementation: uuid6&#xA;v2025.0.1; Execution Time (seconds, lower=better): 1.0414545; implementation: uuid6; label: 1.0415s (x71.03); Execution Time (s): 1.0415; Slowdown: 71.03" role="graphics-symbol" aria-roledescription="text mark" text-anchor="middle" transform="translate(628.5714285714286,221.5702097589307)" font-family="sans-serif" font-size="9px" font-weight="bold" fill="#66a61e">1.0415s (x71.03)</text><text aria-label="Implementation: uuid_v7&#xA;v1.0.0; Execution Time (seconds, lower=better): 1.6046777; implementation: uuid_v7; label: 1.6047s (x109.45); Execution Time (s): 1.6047; Slowdown: 109.45" role="graphics-symbol" aria-roledescription="text mark" text-anchor="middle" transform="translate(742.8571428571429,19.07692307692313)" font-family="sans-serif" font-size="9px" font-weight="bold" fill="#a6761d">1.6047s (x109.45)</text></g><g class="mark-group role-title"><g transform="translate(400,-31)"><path class="background" aria-hidden="true" d="M0,0h0v0h0Z" pointer-events="none"/><g><g class="mark-text role-title-text" role="graphics-symbol" aria-roledescription="title" aria-label="Title text 'UUID v7 benchmark (uuid7() default APIs)'" pointer-events="none"><text text-anchor="middle" transform="translate(0,10)" font-family="sans-serif" font-size="13px" font-weight="bold" fill="#000" opacity="1">UUID v7 benchmark (uuid7() default APIs)</text></g><g class="mark-text role-title-subtitle" role="graphics-symbol" aria-roledescription="subtitle" aria-label="Subtitle text 'Python: 3.13.8 (Windows 10) | CPU: 11th Gen Intel(R) Core(TM) i5-11300H @ 3.10GHz'" pointer-events="none"><text text-anchor="middle" transform="translate(0,25)" font-family="sans-serif" font-size="12px" fill="#000" opacity="1">Python: 3.13.8 (Windows 10) | CPU: 11th Gen Intel(R) Core(TM) i5-11300H @ 3.10GHz</text></g></g><path class="foreground" aria-hidden="true" d="" pointer-events="none" display="none"/></g></g></g><path class="foreground" aria-hidden="true" d="" display="none"/></g></g></g><defs><clipPath id="clip1"><path d="M2.635647884046705,0L100.22149497309616,0C101.67614863957735,0,102.85714285714286,1.1809942175655086,102.85714285714286,2.635647884046705L102.85714285714286,5.27129576809341C102.85714285714286,5.27129576809341,102.85714285714286,5.27129576809341,102.85714285714286,5.27129576809341L0,5.27129576809341C0,5.27129576809341,0,5.27129576809341,0,5.27129576809341L0,2.635647884046705C0,1.1809942175655086,1.1809942175655086,0,2.635647884046705,0Z"/></clipPath><clipPath id="clip2"><path d="M6,0L96.85714285714286,0C100.16863300410687,0,102.85714285714286,2.688509853036,102.85714285714286,6L102.85714285714286,22.876268836500344C102.85714285714286,22.876268836500344,102.85714285714286,22.876268836500344,102.85714285714286,22.876268836500344L0,22.876268836500344C0,22.876268836500344,0,22.876268836500344,0,22.876268836500344L0,6C0,2.688509853036,2.688509853036,0,6,0Z"/></clipPath><clipPath id="clip3"><path d="M6,0L96.85714285714286,0C100.16863300410687,0,102.85714285714286,2.688509853036,102.85714285714286,6L102.85714285714286,24.03498462413563C102.85714285714286,24.03498462413563,102.85714285714286,24.03498462413563,102.85714285714286,24.03498462413563L0,24.03498462413563C0,24.03498462413563,0,24.03498462413563,0,24.03498462413563L0,6C0,2.688509853036,2.688509853036,0,6,0Z"/></clipPath><clipPath id="clip4"><path d="M6,0L96.85714285714286,0C100.16863300410687,0,102.85714285714286,2.688509853036,102.85714285714286,6L102.85714285714286,262.40654000286037C102.85714285714286,262.40654000286037,102.85714285714286,262.40654000286037,102.85714285714286,262.40654000286037L0,262.40654000286037C0,262.40654000286037,0,262.40654000286037,0,262.40654000286037L0,6C0,2.688509853036,2.688509853036,0,6,0Z"/></clipPath><clipPath id="clip5"><path d="M6,0L96.85714285714286,0C100.16863300410687,0,102.85714285714286,2.688509853036,102.85714285714286,6L102.85714285714286,270.4253680924593C102.85714285714286,270.4253680924593,102.85714285714286,270.4253680924593,102.85714285714286,270.4253680924593L0,270.4253680924593C0,270.4253680924593,0,270.4253680924593,0,270.4253680924593L0,6C0,2.688509853036,2.688509853036,0,6,0Z"/></clipPath><clipPath id="clip6"><path d="M6,0L96.85714285714286,0C100.16863300410687,0,102.85714285714286,2.688509853036,102.85714285714286,6L102.85714285714286,374.4297902410693C102.85714285714286,374.4297902410693,102.85714285714286,374.4297902410693,102.85714285714286,374.4297902410693L0,374.4297902410693C0,374.4297902410693,0,374.4297902410693,0,374.4297902410693L0,6C0,2.688509853036,2.688509853036,0,6,0Z"/></clipPath><clipPath id="clip7"><path d="M6,0L96.85714285714286,0C100.16863300410687,0,102.85714285714286,2.688509853036,102.85714285714286,6L102.85714285714286,576.9230769230769C102.85714285714286,576.9230769230769,102.85714285714286,576.9230769230769,102.85714285714286,576.9230769230769L0,576.9230769230769C0,576.9230769230769,0,576.9230769230769,0,576.9230769230769L0,6C0,2.688509853036,2.688509853036,0,6,0Z"/></clipPath></defs></svg>