<svg xmlns="http://www.w3.org/2000/svg" xmlns:xlink="http://www.w3.org/1999/xlink" version="1.1" class="marks" width="846" height="687" viewBox="0 0 846 687"><rect width="846" height="687" fill="white"/><g fill="none" stroke-miterlimit="10" transform="translate(41,36)"><g class="mark-group role-frame root" role="graphics-object" aria-roledescription="group mark container"><g transform="translate(0,0)"><path class="background" aria-hidden="true" d="M0.5,0.5h800v600h-800Z" stroke="#ddd"/><g><g class="mark-group role-axis" role="graphics-symbol" aria-roledescription="axis" aria-label="X-axis titled 'Implementation' for a discrete scale with 8 values: c_uuid_v7&#xA;0.0.4.dev3+g9d03d357f, fastuuid&#xA;0.14.0, uuid_utils&#xA;0.14.1, UUIDv7gen&#xA;1.0.3, lastuuid&#xA;0.5.0, ending with uuid_v7&#xA;1.0.0"><g transform="translate(0.5,600.5)"><path class="background" aria-hidden="true" d="M0,0h0v0h0Z" pointer-events="none"/><g><g class="mark-rule role-axis-tick" pointer-events="none"><line transform="translate(50,0)" x2="0" y2="5" stroke="#888" stroke-width="1" opacity="1"/><line transform="translate(150,0)" x2="0" y2="5" stroke="#888" stroke-width="1" opacity="1"/><line transform="translate(250,0)" x2="0" y2="5" stroke="#888" stroke-width="1" opacity="1"/><line transform="translate(350,0)" x2="0" y2="5" stroke="#888" stroke-width="1" opacity="1"/><line transform="translate(450,0)" x2="0" y2="5" stroke="#888" stroke-width="1" opacity="1"/><line transform="translate(550,0)" x2="0" y2="5" stroke="#888" stroke-width="1" opacity="1"/><line transform="translate(650,0)" x2="0" y2="5" stroke="#888" stroke-width="1" opacity="1"/><line transform="translate(750,0)" x2="0" y2="5" stroke="#888" stroke-width="1" opacity="1"/></g><g class="mark-text role-axis-label" pointer-events="none"><text text-anchor="middle" transform="translate(49.5,15)" font-family="sans-serif" font-size="10px" fill="#000" opacity="1"><tspan>c_uuid_v7</tspan><tspan x="0" dy="14">0.0.4.dev3+g9d03d357f</tspan></text><text text-anchor="middle" transform="translate(149.5,15)" font-family="sans-serif" font-size="10px" fill="#000" opacity="1"><tspan>fastuuid</tspan><tspan x="0" dy="14">0.14.0</tspan></text><text text-anchor="middle" transform="translate(249.5,15)" font-family="sans-serif" font-size="10px" fill="#000" opacity="1"><tspan>uuid_utils</tspan><tspan x="0" dy="14">0.14.1</tspan></text><text text-anchor="middle" transform="translate(349.5,15)" font-family="sans-serif" font-size="10px" fill="#000" opacity="1"><tspan>UUIDv7gen</tspan><tspan x="0" dy="14">1.0.3</tspan></text><text text-anchor="middle" transform="translate(449.5,15)" font-family="sans-serif" font-size="10px" fill="#000" opacity="1"><tspan>lastuuid</tspan><tspan x="0" dy="14">0.5.0</tspan></text><text text-anchor="middle" transform="translate(549.5,15)" font-family="sans-serif" font-size="10px" fill="#000" opacity="1"><tspan>uuid</tspan><tspan x="0" dy="14">stdlib</tspan></text><text text-anchor="middle" transform="translate(649.5,15)" font-family="sans-serif" font-size="10px" fill="#000" opacity="1"><tspan>uuid6</tspan><tspan x="0" dy="14">2025.0.1</tspan></text><text text-anchor="middle" transform="translate(749.5,15)" font-family="sans-serif" font-size="10px" fill="#000" opacity="1"><tspan>uuid_v7</tspan><tspan x="0" dy="14">1.0.0</tspan></text></g><g class="mark-rule role-axis-domain" pointer-events="none"><line transform="translate(0,0)" x2="800" y2="0" stroke="#888" stroke-width="1" opacity="1"/></g><g class="mark-text role-axis-title" pointer-events="none"><text text-anchor="middle" transform="translate(400,44)" font-family="sans-serif" font-size="11px" font-weight="bold" fill="#000" opacity="1">Implementation</text></g></g><path class="foreground" aria-hidden="true" d="" pointer-events="none" display="none"/></g></g><g class="mark-group role-axis" role="graphics-symbol" aria-roledescription="axis" aria-label="Y-axis titled 'Execution Time (seconds, lower=better)' for a linear scale with values from 0.0 to 1.6"><g transform="translate(0.5,0.5)"><path class="background" aria-hidden="true" d="M0,0h0v0h0Z" pointer-events="none"/><g><g class="mark-rule role-axis-tick" pointer-events="none"><line transform="translate(0,600)" x2="-5" y2="0" stroke="#888" stroke-width="1" opacity="1"/><line transform="translate(0,562)" x2="-5" y2="0" stroke="#888" stroke-width="1" opacity="1"/><line transform="translate(0,523)" x2="-5" y2="0" stroke="#888" stroke-width="1" opacity="1"/><line transform="translate(0,485)" x2="-5" y2="0" stroke="#888" stroke-width="1" opacity="1"/><line transform="translate(0,447)" x2="-5" y2="0" stroke="#888" stroke-width="1" opacity="1"/><line transform="translate(0,408)" x2="-5" y2="0" stroke="#888" stroke-width="1" opacity="1"/><line transform="translate(0,370)" x2="-5" y2="0" stroke="#888" stroke-width="1" opacity="1"/><line transform="translate(0,332)" x2="-5" y2="0" stroke="#888" stroke-width="1" opacity="1"/><line transform="translate(0,293)" x2="-5" y2="0" stroke="#888" stroke-width="1" opacity="1"/><line transform="translate(0,255)" x2="-5" y2="0" stroke="#888" stroke-width="1" opacity="1"/><line transform="translate(0,217)" x2="-5" y2="0" stroke="#888" stroke-width="1" opacity="1"/><line transform="translate(0,179)" x2="-5" y2="0" stroke="#888" stroke-width="1" opacity="1"/><line transform="translate(0,140)" x2="-5" y2="0" stroke="#888" stroke-width="1" opacity="1"/><line transform="translate(0,102)" x2="-5" y2="0" stroke="#888" stroke-width="1" opacity="1"/><line transform="translate(0,64)" x2="-5" y2="0" stroke="#888" stroke-width="1" opacity="1"/><line transform="translate(0,25)" x2="-5" y2="0" stroke="#888" stroke-width="1" opacity="1"/></g><g class="mark-text role-axis-label" pointer-events="none"><text text-anchor="end" transform="translate(-7,603)" font-family="sans-serif" font-size="10px" fill="#000" opacity="1">0.0</text><text text-anchor="end" transform="translate(-7,564.6833393866823)" font-family="sans-serif" font-size="10px" fill="#000" opacity="1">0.1</text><text text-anchor="end" transform="translate(-7,526.3666787733647)" font-family="sans-serif" font-size="10px" fill="#000" opacity="1">0.2</text><text text-anchor="end" transform="translate(-7,488.050018160047)" font-family="sans-serif" font-size="10px" fill="#000" opacity="1">0.3</text><text text-anchor="end" transform="translate(-7,449.73335754672934)" font-family="sans-serif" font-size="10px" fill="#000" opacity="1">0.4</text><text text-anchor="end" transform="translate(-7,411.4166969334117)" font-family="sans-serif" font-size="10px" fill="#000" opacity="1">0.5</text><text text-anchor="end" transform="translate(-7,373.100036320094)" font-family="sans-serif" font-size="10px" fill="#000" opacity="1">0.6</text><text text-anchor="end" transform="translate(-7,334.7833757067764)" font-family="sans-serif" font-size="10px" fill="#000" opacity="1">0.7</text><text text-anchor="end" transform="translate(-7,296.46671509345873)" font-family="sans-serif" font-size="10px" fill="#000" opacity="1">0.8</text><text text-anchor="end" transform="translate(-7,258.1500544801411)" font-family="sans-serif" font-size="10px" fill="#000" opacity="1">0.9</text><text text-anchor="end" transform="translate(-7,219.8333938668234)" font-family="sans-serif" font-size="10px" fill="#000" opacity="1">1.0</text><text text-anchor="end" transform="translate(-7,181.51673325350575)" font-family="sans-serif" font-size="10px" fill="#000" opacity="1">1.1</text><text text-anchor="end" transform="translate(-7,143.20007264018807)" font-family="sans-serif" font-size="10px" fill="#000" opacity="1">1.2</text><text text-anchor="end" transform="translate(-7,104.88341202687042)" font-family="sans-serif" font-size="10px" fill="#000" opacity="1">1.3</text><text text-anchor="end" transform="translate(-7,66.56675141355282)" font-family="sans-serif" font-size="10px" fill="#000" opacity="1">1.4</text><text text-anchor="end" transform="translate(-7,28.250090800235082)" font-family="sans-serif" font-size="10px" fill="#000" opacity="1">1.5</text></g><g class="mark-rule role-axis-domain" pointer-events="none"><line transform="translate(0,600)" x2="0" y2="-600" stroke="#888" stroke-width="1" opacity="1"/></g><g class="mark-text role-axis-title" pointer-events="none"><text text-anchor="middle" transform="translate(-24.9013671875,300) rotate(-90) translate(0,-2)" font-family="sans-serif" font-size="11px" font-weight="bold" fill="#000" opacity="1">Execution Time (seconds, lower=better)</text></g></g><path class="foreground" aria-hidden="true" d="" pointer-events="none" display="none"/></g></g><g class="mark-group role-scope" role="graphics-object" aria-roledescription="group mark container"><g transform="translate(5,592.1901832847941)"><path class="background" aria-hidden="true" d="M3.904908357602949,0L86.09509164239705,0C88.2502692342303,0,90,1.749730765769692,90,3.904908357602949L90,7.809816715205898C90,7.809816715205898,90,7.809816715205898,90,7.809816715205898L0,7.809816715205898C0,7.809816715205898,0,7.809816715205898,0,7.809816715205898L0,3.904908357602949C0,1.749730765769692,1.749730765769692,0,3.904908357602949,0Z"/><g clip-path="url(#clip1)"><g class="mark-group role-scope" role="graphics-object" aria-roledescription="group mark container"><g transform="translate(0,-592.1901832847941)"><path class="background" aria-hidden="true" d="M0,0h90v0h-90Z"/><g><g class="mark-rect role-mark layer_0_marks" role="graphics-object" aria-roledescription="rect mark container"><path aria-label="Implementation: c_uuid_v7&#xA;0.0.4.dev3+g9d03d357f; Execution Time (seconds, lower=better): 0.0203822999974; implementation: c_uuid_v7; Execution Time (s): 0.0204; Slowdown: 1.00" role="graphics-symbol" aria-roledescription="bar" d="M0,592.1901832847941h90v7.809816715205898h-90Z" fill="#d95f02"/></g></g><path class="foreground" aria-hidden="true" d="" display="none"/></g></g></g><path class="foreground" aria-hidden="true" d="" display="none"/></g><g transform="translate(105,573.8058495213717)"><path class="background" aria-hidden="true" d="M6,0L84,0C87.311490146964,0,90,2.688509853036,90,6L90,26.19415047862833C90,26.19415047862833,90,26.19415047862833,90,26.19415047862833L0,26.19415047862833C0,26.19415047862833,0,26.19415047862833,0,26.19415047862833L0,6C0,2.688509853036,2.688509853036,0,6,0Z"/><g clip-path="url(#clip2)"><g class="mark-group role-scope" role="graphics-object" aria-roledescription="group mark container"><g transform="translate(0,-573.8058495213717)"><path class="background" aria-hidden="true" d="M0,0h90v0h-90Z"/><g><g class="mark-rect role-mark layer_0_marks" role="graphics-object" aria-roledescription="rect mark container"><path aria-label="Implementation: fastuuid&#xA;0.14.0; Execution Time (seconds, lower=better): 0.0683623000004; implementation: fastuuid; Execution Time (s): 0.0684; Slowdown: 3.35" role="graphics-symbol" aria-roledescription="bar" d="M0,573.8058495213717h90v26.19415047862833h-90Z" fill="#7570b3"/></g></g><path class="foreground" aria-hidden="true" d="" display="none"/></g></g></g><path class="foreground" aria-hidden="true" d="" display="none"/></g><g transform="translate(205,570.4693879811172)"><path class="background" aria-hidden="true" d="M6,0L84,0C87.311490146964,0,90,2.688509853036,90,6L90,29.530612018882834C90,29.530612018882834,90,29.530612018882834,90,29.530612018882834L0,29.530612018882834C0,29.530612018882834,0,29.530612018882834,0,29.530612018882834L0,6C0,2.688509853036,2.688509853036,0,6,0Z"/><g clip-path="url(#clip3)"><g class="mark-group role-scope" role="graphics-object" aria-roledescription="group mark container"><g transform="translate(0,-570.4693879811172)"><path class="background" aria-hidden="true" d="M0,0h90v0h-90Z"/><g><g class="mark-rect role-mark layer_0_marks" role="graphics-object" aria-roledescription="rect mark container"><path aria-label="Implementation: uuid_utils&#xA;0.14.1; Execution Time (seconds, lower=better): 0.0770699000022; implementation: uuid_utils; Execution Time (s): 0.0771; Slowdown: 3.78" role="graphics-symbol" aria-roledescription="bar" d="M0,570.4693879811172h90v29.530612018882834h-90Z" fill="#a6761d"/></g></g><path class="foreground" aria-hidden="true" d="" display="none"/></g></g></g><path class="foreground" aria-hidden="true" d="" display="none"/></g><g transform="translate(305,331.9651116288131)"><path class="background" aria-hidden="true" d="M6,0L84,0C87.311490146964,0,90,2.688509853036,90,6L90,268.0348883711869C90,268.0348883711869,90,268.0348883711869,90,268.0348883711869L0,268.0348883711869C0,268.0348883711869,0,268.0348883711869,0,268.0348883711869L0,6C0,2.688509853036,2.688509853036,0,6,0Z"/><g clip-path="url(#clip4)"><g class="mark-group role-scope" role="graphics-object" aria-roledescription="group mark container"><g transform="translate(0,-331.9651116288131)"><path class="background" aria-hidden="true" d="M0,0h90v0h-90Z"/><g><g class="mark-rect role-mark layer_0_marks" role="graphics-object" aria-roledescription="rect mark container"><path aria-label="Implementation: UUIDv7gen&#xA;1.0.3; Execution Time (seconds, lower=better): 0.699525699998; implementation: UUIDv7gen; Execution Time (s): 0.6995; Slowdown: 34.32" role="graphics-symbol" aria-roledescription="bar" d="M0,331.9651116288131h90v268.0348883711869h-90Z" fill="#1b9e77"/></g></g><path class="foreground" aria-hidden="true" d="" display="none"/></g></g></g><path class="foreground" aria-hidden="true" d="" display="none"/></g><g transform="translate(405,323.4347884263436)"><path class="background" aria-hidden="true" d="M6,0L84,0C87.311490146964,0,90,2.688509853036,90,6L90,276.5652115736564C90,276.5652115736564,90,276.5652115736564,90,276.5652115736564L0,276.5652115736564C0,276.5652115736564,0,276.5652115736564,0,276.5652115736564L0,6C0,2.688509853036,2.688509853036,0,6,0Z"/><g clip-path="url(#clip5)"><g class="mark-group role-scope" role="graphics-object" aria-roledescription="group mark container"><g transform="translate(0,-323.4347884263436)"><path class="background" aria-hidden="true" d="M0,0h90v0h-90Z"/><g><g class="mark-rect role-mark layer_0_marks" role="graphics-object" aria-roledescription="rect mark container"><path aria-label="Implementation: lastuuid&#xA;0.5.0; Execution Time (seconds, lower=better): 0.721788399998; implementation: lastuuid; Execution Time (s): 0.7218; Slowdown: 35.41" role="graphics-symbol" aria-roledescription="bar" d="M0,323.4347884263436h90v276.5652115736564h-90Z" fill="#e7298a"/></g></g><path class="foreground" aria-hidden="true" d="" display="none"/></g></g></g><path class="foreground" aria-hidden="true" d="" display="none"/></g><g transform="translate(505,300.35593572135963)"><path class="background" aria-hidden="true" d="M6,0L84,0C87.311490146964,0,90,2.688509853036,90,6L90,299.64406427864037C90,299.64406427864037,90,299.64406427864037,90,299.64406427864037L0,299.64406427864037C0,299.64406427864037,0,299.64406427864037,0,299.64406427864037L0,6C0,2.688509853036,2.688509853036,0,6,0Z"/><g clip-path="url(#clip6)"><g class="mark-group role-scope" role="graphics-object" aria-roledescription="group mark container"><g transform="translate(0,-300.35593572135963)"><path class="background" aria-hidden="true" d="M0,0h90v0h-90Z"/><g><g class="mark-rect role-mark layer_0_marks" role="graphics-object" aria-roledescription="rect mark container"><path aria-label="Implementation: uuid&#xA;stdlib; Execution Time (seconds, lower=better): 0.782020300001; implementation: uuid; Execution Time (s): 0.7820; Slowdown: 38.37" role="graphics-symbol" aria-roledescription="bar" d="M0,300.35593572135963h90v299.64406427864037h-90Z" fill="#66a61e"/></g></g><path class="foreground" aria-hidden="true" d="" display="none"/></g></g></g><path class="foreground" aria-hidden="true" d="" display="none"/></g><g transform="translate(605,193.91416837130268)"><path class="background" aria-hidden="true" d="M6,0L84,0C87.311490146964,0,90,2.688509853036,90,6L90,406.0858316286973C90,406.0858316286973,90,406.0858316286973,90,406.0858316286973L0,406.0858316286973C0,406.0858316286973,0,406.0858316286973,0,406.0858316286973L0,6C0,2.688509853036,2.688509853036,0,6,0Z"/><g clip-path="url(#clip7)"><g class="mark-group role-scope" role="graphics-object" aria-roledescription="group mark container"><g transform="translate(0,-193.91416837130268)"><path class="background" aria-hidden="true" d="M0,0h90v0h-90Z"/><g><g class="mark-rect role-mark layer_0_marks" role="graphics-object" aria-roledescription="rect mark container"><path aria-label="Implementation: uuid6&#xA;2025.0.1; Execution Time (seconds, lower=better): 1.0598153; implementation: uuid6; Execution Time (s): 1.0598; Slowdown: 52.00" role="graphics-symbol" aria-roledescription="bar" d="M0,193.91416837130268h90v406.0858316286973h-90Z" fill="#e6ab02"/></g></g><path class="foreground" aria-hidden="true" d="" display="none"/></g></g></g><path class="foreground" aria-hidden="true" d="" display="none"/></g><g transform="translate(705,23.076923076923062)"><path class="background" aria-hidden="true" d="M6,0L84,0C87.311490146964,0,90,2.688509853036,90,6L90,576.9230769230769C90,576.9230769230769,90,576.9230769230769,90,576.9230769230769L0,576.9230769230769C0,576.9230769230769,0,576.9230769230769,0,576.9230769230769L0,6C0,2.688509853036,2.688509853036,0,6,0Z"/><g clip-path="url(#clip8)"><g class="mark-group role-scope" role="graphics-object" aria-roledescription="group mark container"><g transform="translate(0,-23.076923076923062)"><path class="background" aria-hidden="true" d="M0,0h90v0h-90Z"/><g><g class="mark-rect role-mark layer_0_marks" role="graphics-object" aria-roledescription="rect mark container"><path aria-label="Implementation: uuid_v7&#xA;1.0.0; Execution Time (seconds, lower=better): 1.5056716; implementation: uuid_v7; Execution Time (s): 1.5057; Slowdown: 73.87" role="graphics-symbol" aria-roledescription="bar" d="M0,23.076923076923062h90v576.9230769230769h-90Z" fill="#666666"/></g></g><path class="foreground" aria-hidden="true" d="" display="none"/></g></g></g><path class="foreground" aria-hidden="true" d="" display="none"/></g></g><g class="mark-text role-mark layer_1_marks" role="graphics-object" aria-roledescription="text mark container"><text aria-label="Implementation: c_uuid_v7&#xA;0.0.4.dev3+g9d03d357f; Execution Time (seconds, lower=better): 0.0203822999974; implementation: c_uuid_v7; label: 0.0204s (x1.00); Execution Time (s): 0.0204; Slowdown: 1.00" role="graphics-symbol" aria-roledescription="text mark" text-anchor="middle" transform="translate(50,588.1901832847941)" font-family="sans-serif" font-size="9px" font-weight="bold" fill="#d95f02">0.0204s (x1.00)</text><text aria-label="Implementation: fastuuid&#xA;0.14.0; Execution Time (seconds, lower=better): 0.0683623000004; implementation: fastuuid; label: 0.0684s (x3.35); Execution Time (s): 0.0684; Slowdown: 3.35" role="graphics-symbol" aria-roledescription="text mark" text-anchor="middle" transform="translate(150,569.8058495213717)" font-family="sans-serif" font-size="9px" font-weight="bold" fill="#7570b3">0.0684s (x3.35)</text><text aria-label="Implementation: uuid_utils&#xA;0.14.1; Execution Time (seconds, lower=better): 0.0770699000022; implementation: uuid_utils; label: 0.0771s (x3.78); Execution Time (s): 0.0771; Slowdown: 3.78" role="graphics-symbol" aria-roledescription="text mark" text-anchor="middle" transform="translate(250,566.4693879811172)" font-family="sans-serif" font-size="9px" font-weight="bold" fill="#a6761d">0.0771s (x3.78)</text><text aria-label="Implementation: UUIDv7gen&#xA;1.0.3; Execution Time (seconds, lower=better): 0.699525699998; implementation: UUIDv7gen; label: 0.6995s (x34.32); Execution Time (s): 0.6995; Slowdown: 34.32" role="graphics-symbol" aria-roledescription="text mark" text-anchor="middle" transform="translate(350,327.9651116288131)" font-family="sans-serif" font-size="9px" font-weight="bold" fill="#1b9e77">0.6995s (x34.32)</text><text aria-label="Implementation: lastuuid&#xA;0.5.0; Execution Time (seconds, lower=better): 0.721788399998; implementation: lastuuid; label: 0.7218s (x35.41); Execution Time (s): 0.7218; Slowdown: 35.41" role="graphics-symbol" aria-roledescription="text mark" text-anchor="middle" transform="translate(450,319.4347884263436)" font-family="sans-serif" font-size="9px" font-weight="bold" fill="#e7298a">0.7218s (x35.41)</text><text aria-label="Implementation: uuid&#xA;stdlib; Execution Time (seconds, lower=better): 0.782020300001; implementation: uuid; label: 0.7820s (x38.37); Execution Time (s): 0.7820; Slowdown: 38.37" role="graphics-symbol" aria-roledescription="text mark" text-anchor="middle" transform="translate(550,296.35593572135963)" font-family="sans-serif" font-size="9px" font-weight="bold" fill="#66a61e">0.7820s (x38.37)</text><text aria-label="Implementation: uuid6&#xA;2025.0.1; Execution Time (seconds, lower=better): 1.0598153; implementation: uuid6; label: 1.0598s (x52.00); Execution Time (s): 1.0598; Slowdown: 52.00" role="graphics-symbol" aria-roledescription="text mark" text-anchor="middle" transform="translate(650,189.91416837130268)" font-family="sans-serif" font-size="9px" font-weight="bold" fill="#e6ab02">1.0598s (x52.00)</text><text aria-label="Implementation: uuid_v7&#xA;1.0.0; Execution Time (seconds, lower=better): 1.5056716; implementation: uuid_v7; label: 1.5057s (x73.87); Execution Time (s): 1.5057; Slowdown: 73.87" role="graphics-symbol" aria-roledescription="text mark" text-anchor="middle" transform="translate(750,19.076923076923062)" font-family="sans-serif" font-size="9px" font-weight="bold" fill="#666666">1.5057s (x73.87)</text></g><g class="mark-group role-title"><g transform="translate(400,-31)"><path class="background" aria-hidden="true" d="M0,0h0v0h0Z" pointer-events="none"/><g><g class="mark-text role-title-text" role="graphics-symbol" aria-roledescription="title" aria-label="Title text 'UUID v7 benchmark (uuid7() default APIs)'" pointer-events="none"><text text-anchor="middle" transform="translate(0,10)" font-family="sans-serif" font-size="13px" font-weight="bold" fill="#000" opacity="1">UUID v7 benchmark (uuid7() default APIs)</text></g><g class="mark-text role-title-subtitle" role="graphics-symbol" aria-roledescription="subtitle" aria-label="Subtitle text 'Python: 3.14.3 (Windows 10) | CPU: 11th Gen Intel(R) Core(TM) i5-11300H @ 3.10GHz'" pointer-events="none"><text text-anchor="middle" transform="translate(0,25)" font-family="sans-serif" font-size="12px" fill="#000" opacity="1">Python: 3.14.3 (Windows 10) | CPU: 11th Gen Intel(R) Core(TM) i5-11300H @ 3.10GHz</text></g></g><path class="foreground" aria-hidden="true" d="" pointer-events="none" display="none"/></g></g></g><path class="foreground" aria-hidden="true" d="" display="none"/></g></g></g><defs><clipPath id="clip1"><path d="M3.904908357602949,0L86.09509164239705,0C88.2502692342303,0,90,1.749730765769692,90,3.904908357602949L90,7.809816715205898C90,7.809816715205898,90,7.809816715205898,90,7.809816715205898L0,7.809816715205898C0,7.809816715205898,0,7.809816715205898,0,7.809816715205898L0,3.904908357602949C0,1.749730765769692,1.749730765769692,0,3.904908357602949,0Z"/></clipPath><clipPath id="clip2"><path d="M6,0L84,0C87.311490146964,0,90,2.688509853036,90,6L90,26.19415047862833C90,26.19415047862833,90,26.19415047862833,90,26.19415047862833L0,26.19415047862833C0,26.19415047862833,0,26.19415047862833,0,26.19415047862833L0,6C0,2.688509853036,2.688509853036,0,6,0Z"/></clipPath><clipPath id="clip3"><path d="M6,0L84,0C87.311490146964,0,90,2.688509853036,90,6L90,29.530612018882834C90,29.530612018882834,90,29.530612018882834,90,29.530612018882834L0,29.530612018882834C0,29.530612018882834,0,29.530612018882834,0,29.530612018882834L0,6C0,2.688509853036,2.688509853036,0,6,0Z"/></clipPath><clipPath id="clip4"><path d="M6,0L84,0C87.311490146964,0,90,2.688509853036,90,6L90,268.0348883711869C90,268.0348883711869,90,268.0348883711869,90,268.0348883711869L0,268.0348883711869C0,268.0348883711869,0,268.0348883711869,0,268.0348883711869L0,6C0,2.688509853036,2.688509853036,0,6,0Z"/></clipPath><clipPath id="clip5"><path d="M6,0L84,0C87.311490146964,0,90,2.688509853036,90,6L90,276.5652115736564C90,276.5652115736564,90,276.5652115736564,90,276.5652115736564L0,276.5652115736564C0,276.5652115736564,0,276.5652115736564,0,276.5652115736564L0,6C0,2.688509853036,2.688509853036,0,6,0Z"/></clipPath><clipPath id="clip6"><path d="M6,0L84,0C87.311490146964,0,90,2.688509853036,90,6L90,299.64406427864037C90,299.64406427864037,90,299.64406427864037,90,299.64406427864037L0,299.64406427864037C0,299.64406427864037,0,299.64406427864037,0,299.64406427864037L0,6C0,2.688509853036,2.688509853036,0,6,0Z"/></clipPath><clipPath id="clip7"><path d="M6,0L84,0C87.311490146964,0,90,2.688509853036,90,6L90,406.0858316286973C90,406.0858316286973,90,406.0858316286973,90,406.0858316286973L0,406.0858316286973C0,406.0858316286973,0,406.0858316286973,0,406.0858316286973L0,6C0,2.688509853036,2.688509853036,0,6,0Z"/></clipPath><clipPath id="clip8"><path d="M6,0L84,0C87.311490146964,0,90,2.688509853036,90,6L90,576.9230769230769C90,576.9230769230769,90,576.9230769230769,90,576.9230769230769L0,576.9230769230769C0,576.9230769230769,0,576.9230769230769,0,576.9230769230769L0,6C0,2.688509853036,2.688509853036,0,6,0Z"/></clipPath></defs></svg>