<svg xmlns="http://www.w3.org/2000/svg" xmlns:xlink="http://www.w3.org/1999/xlink" version="1.1" class="marks" width="846" height="687" viewBox="0 0 846 687"><rect width="846" height="687" fill="white"/><g fill="none" stroke-miterlimit="10" transform="translate(41,36)"><g class="mark-group role-frame root" role="graphics-object" aria-roledescription="group mark container"><g transform="translate(0,0)"><path class="background" aria-hidden="true" d="M0.5,0.5h800v600h-800Z" stroke="#ddd"/><g><g class="mark-group role-axis" role="graphics-symbol" aria-roledescription="axis" aria-label="X-axis titled 'Implementation' for a discrete scale with 6 values: c_uuid_v7.compat&#xA;0.0.4.dev3+g9d03d357f, uuid_utils.compat&#xA;0.14.1, lastuuid&#xA;0.5.0, uuid&#xA;stdlib, uuid6&#xA;2025.0.1, uuid_v7&#xA;1.0.0"><g transform="translate(0.5,600.5)"><path class="background" aria-hidden="true" d="M0,0h0v0h0Z" pointer-events="none"/><g><g class="mark-rule role-axis-tick" pointer-events="none"><line transform="translate(66,0)" x2="0" y2="5" stroke="#888" stroke-width="1" opacity="1"/><line transform="translate(199,0)" x2="0" y2="5" stroke="#888" stroke-width="1" opacity="1"/><line transform="translate(333,0)" x2="0" y2="5" stroke="#888" stroke-width="1" opacity="1"/><line transform="translate(466,0)" x2="0" y2="5" stroke="#888" stroke-width="1" opacity="1"/><line transform="translate(600,0)" x2="0" y2="5" stroke="#888" stroke-width="1" opacity="1"/><line transform="translate(733,0)" x2="0" y2="5" stroke="#888" stroke-width="1" opacity="1"/></g><g class="mark-text role-axis-label" pointer-events="none"><text text-anchor="middle" transform="translate(66.16666666666663,15)" font-family="sans-serif" font-size="10px" fill="#000" opacity="1"><tspan>c_uuid_v7.compat</tspan><tspan x="0" dy="14">0.0.4.dev3+g9d03d357f</tspan></text><text text-anchor="middle" transform="translate(199.49999999999997,15)" font-family="sans-serif" font-size="10px" fill="#000" opacity="1"><tspan>uuid_utils.compat</tspan><tspan x="0" dy="14">0.14.1</tspan></text><text text-anchor="middle" transform="translate(332.8333333333333,15)" font-family="sans-serif" font-size="10px" fill="#000" opacity="1"><tspan>lastuuid</tspan><tspan x="0" dy="14">0.5.0</tspan></text><text text-anchor="middle" transform="translate(466.16666666666663,15)" font-family="sans-serif" font-size="10px" fill="#000" opacity="1"><tspan>uuid</tspan><tspan x="0" dy="14">stdlib</tspan></text><text text-anchor="middle" transform="translate(599.5,15)" font-family="sans-serif" font-size="10px" fill="#000" opacity="1"><tspan>uuid6</tspan><tspan x="0" dy="14">2025.0.1</tspan></text><text text-anchor="middle" transform="translate(732.8333333333334,15)" font-family="sans-serif" font-size="10px" fill="#000" opacity="1"><tspan>uuid_v7</tspan><tspan x="0" dy="14">1.0.0</tspan></text></g><g class="mark-rule role-axis-domain" pointer-events="none"><line transform="translate(0,0)" x2="800" y2="0" stroke="#888" stroke-width="1" opacity="1"/></g><g class="mark-text role-axis-title" pointer-events="none"><text text-anchor="middle" transform="translate(400,44)" font-family="sans-serif" font-size="11px" font-weight="bold" fill="#000" opacity="1">Implementation</text></g></g><path class="foreground" aria-hidden="true" d="" pointer-events="none" display="none"/></g></g><g class="mark-group role-axis" role="graphics-symbol" aria-roledescription="axis" aria-label="Y-axis titled 'Execution Time (seconds, lower=better)' for a linear scale with values from 0.0 to 1.6"><g transform="translate(0.5,0.5)"><path class="background" aria-hidden="true" d="M0,0h0v0h0Z" pointer-events="none"/><g><g class="mark-rule role-axis-tick" pointer-events="none"><line transform="translate(0,600)" x2="-5" y2="0" stroke="#888" stroke-width="1" opacity="1"/><line transform="translate(0,562)" x2="-5" y2="0" stroke="#888" stroke-width="1" opacity="1"/><line transform="translate(0,524)" x2="-5" y2="0" stroke="#888" stroke-width="1" opacity="1"/><line transform="translate(0,486)" x2="-5" y2="0" stroke="#888" stroke-width="1" opacity="1"/><line transform="translate(0,448)" x2="-5" y2="0" stroke="#888" stroke-width="1" opacity="1"/><line transform="translate(0,409)" x2="-5" y2="0" stroke="#888" stroke-width="1" opacity="1"/><line transform="translate(0,371)" x2="-5" y2="0" stroke="#888" stroke-width="1" opacity="1"/><line transform="translate(0,333)" x2="-5" y2="0" stroke="#888" stroke-width="1" opacity="1"/><line transform="translate(0,295)" x2="-5" y2="0" stroke="#888" stroke-width="1" opacity="1"/><line transform="translate(0,257)" x2="-5" y2="0" stroke="#888" stroke-width="1" opacity="1"/><line transform="translate(0,219)" x2="-5" y2="0" stroke="#888" stroke-width="1" opacity="1"/><line transform="translate(0,181)" x2="-5" y2="0" stroke="#888" stroke-width="1" opacity="1"/><line transform="translate(0,143)" x2="-5" y2="0" stroke="#888" stroke-width="1" opacity="1"/><line transform="translate(0,104)" x2="-5" y2="0" stroke="#888" stroke-width="1" opacity="1"/><line transform="translate(0,66)" x2="-5" y2="0" stroke="#888" stroke-width="1" opacity="1"/><line transform="translate(0,28)" x2="-5" y2="0" stroke="#888" stroke-width="1" opacity="1"/></g><g class="mark-text role-axis-label" pointer-events="none"><text text-anchor="end" transform="translate(-7,603)" font-family="sans-serif" font-size="10px" fill="#000" opacity="1">0.0</text><text text-anchor="end" transform="translate(-7,564.880245795946)" font-family="sans-serif" font-size="10px" fill="#000" opacity="1">0.1</text><text text-anchor="end" transform="translate(-7,526.7604915918922)" font-family="sans-serif" font-size="10px" fill="#000" opacity="1">0.2</text><text text-anchor="end" transform="translate(-7,488.6407373878383)" font-family="sans-serif" font-size="10px" fill="#000" opacity="1">0.3</text><text text-anchor="end" transform="translate(-7,450.5209831837844)" font-family="sans-serif" font-size="10px" fill="#000" opacity="1">0.4</text><text text-anchor="end" transform="translate(-7,412.40122897973043)" font-family="sans-serif" font-size="10px" fill="#000" opacity="1">0.5</text><text text-anchor="end" transform="translate(-7,374.2814747756766)" font-family="sans-serif" font-size="10px" fill="#000" opacity="1">0.6</text><text text-anchor="end" transform="translate(-7,336.1617205716227)" font-family="sans-serif" font-size="10px" fill="#000" opacity="1">0.7</text><text text-anchor="end" transform="translate(-7,298.04196636756876)" font-family="sans-serif" font-size="10px" fill="#000" opacity="1">0.8</text><text text-anchor="end" transform="translate(-7,259.92221216351487)" font-family="sans-serif" font-size="10px" fill="#000" opacity="1">0.9</text><text text-anchor="end" transform="translate(-7,221.80245795946098)" font-family="sans-serif" font-size="10px" fill="#000" opacity="1">1.0</text><text text-anchor="end" transform="translate(-7,183.68270375540706)" font-family="sans-serif" font-size="10px" fill="#000" opacity="1">1.1</text><text text-anchor="end" transform="translate(-7,145.56294955135317)" font-family="sans-serif" font-size="10px" fill="#000" opacity="1">1.2</text><text text-anchor="end" transform="translate(-7,107.44319534729925)" font-family="sans-serif" font-size="10px" fill="#000" opacity="1">1.3</text><text text-anchor="end" transform="translate(-7,69.32344114324538)" font-family="sans-serif" font-size="10px" fill="#000" opacity="1">1.4</text><text text-anchor="end" transform="translate(-7,31.203686939191442)" font-family="sans-serif" font-size="10px" fill="#000" opacity="1">1.5</text></g><g class="mark-rule role-axis-domain" pointer-events="none"><line transform="translate(0,600)" x2="0" y2="-600" stroke="#888" stroke-width="1" opacity="1"/></g><g class="mark-text role-axis-title" pointer-events="none"><text text-anchor="middle" transform="translate(-24.9013671875,300) rotate(-90) translate(0,-2)" font-family="sans-serif" font-size="11px" font-weight="bold" fill="#000" opacity="1">Execution Time (seconds, lower=better)</text></g></g><path class="foreground" aria-hidden="true" d="" pointer-events="none" display="none"/></g></g><g class="mark-group role-scope" role="graphics-object" aria-roledescription="group mark container"><g transform="translate(6.666666666666629,476.6480205335767)"><path class="background" aria-hidden="true" d="M6,0L114.00000000000001,0C117.31149014696402,0,120.00000000000001,2.688509853036,120.00000000000001,6L120.00000000000001,123.3519794664233C120.00000000000001,123.3519794664233,120.00000000000001,123.3519794664233,120.00000000000001,123.3519794664233L0,123.3519794664233C0,123.3519794664233,0,123.3519794664233,0,123.3519794664233L0,6C0,2.688509853036,2.688509853036,0,6,0Z"/><g clip-path="url(#clip9)"><g class="mark-group role-scope" role="graphics-object" aria-roledescription="group mark container"><g transform="translate(0,-476.6480205335767)"><path class="background" aria-hidden="true" d="M0,0h120.00000000000001v0h-120.00000000000001Z"/><g><g class="mark-rect role-mark layer_0_marks" role="graphics-object" aria-roledescription="rect mark container"><path aria-label="Implementation: c_uuid_v7.compat&#xA;0.0.4.dev3+g9d03d357f; Execution Time (seconds, lower=better): 0.323590699998; implementation: c_uuid_v7.compat; Execution Time (s): 0.3236; Slowdown: 1.00" role="graphics-symbol" aria-roledescription="bar" d="M0,476.6480205335767h120.00000000000001v123.3519794664233h-120.00000000000001Z" fill="#1b9e77"/></g></g><path class="foreground" aria-hidden="true" d="" display="none"/></g></g></g><path class="foreground" aria-hidden="true" d="" display="none"/></g><g transform="translate(139.99999999999997,393.50917969144945)"><path class="background" aria-hidden="true" d="M6,0L114.00000000000001,0C117.31149014696402,0,120.00000000000001,2.688509853036,120.00000000000001,6L120.00000000000001,206.49082030855055C120.00000000000001,206.49082030855055,120.00000000000001,206.49082030855055,120.00000000000001,206.49082030855055L0,206.49082030855055C0,206.49082030855055,0,206.49082030855055,0,206.49082030855055L0,6C0,2.688509853036,2.688509853036,0,6,0Z"/><g clip-path="url(#clip10)"><g class="mark-group role-scope" role="graphics-object" aria-roledescription="group mark container"><g transform="translate(0,-393.50917969144945)"><path class="background" aria-hidden="true" d="M0,0h120.00000000000001v0h-120.00000000000001Z"/><g><g class="mark-rect role-mark layer_0_marks" role="graphics-object" aria-roledescription="rect mark container"><path aria-label="Implementation: uuid_utils.compat&#xA;0.14.1; Execution Time (seconds, lower=better): 0.5416898; implementation: uuid_utils.compat; Execution Time (s): 0.5417; Slowdown: 1.67" role="graphics-symbol" aria-roledescription="bar" d="M0,393.50917969144945h120.00000000000001v206.49082030855055h-120.00000000000001Z" fill="#66a61e"/></g></g><path class="foreground" aria-hidden="true" d="" display="none"/></g></g></g><path class="foreground" aria-hidden="true" d="" display="none"/></g><g transform="translate(273.3333333333333,325.67465776856966)"><path class="background" aria-hidden="true" d="M6,0L114.00000000000001,0C117.31149014696402,0,120.00000000000001,2.688509853036,120.00000000000001,6L120.00000000000001,274.32534223143034C120.00000000000001,274.32534223143034,120.00000000000001,274.32534223143034,120.00000000000001,274.32534223143034L0,274.32534223143034C0,274.32534223143034,0,274.32534223143034,0,274.32534223143034L0,6C0,2.688509853036,2.688509853036,0,6,0Z"/><g clip-path="url(#clip11)"><g class="mark-group role-scope" role="graphics-object" aria-roledescription="group mark container"><g transform="translate(0,-325.67465776856966)"><path class="background" aria-hidden="true" d="M0,0h120.00000000000001v0h-120.00000000000001Z"/><g><g class="mark-rect role-mark layer_0_marks" role="graphics-object" aria-roledescription="rect mark container"><path aria-label="Implementation: lastuuid&#xA;0.5.0; Execution Time (seconds, lower=better): 0.719640899999; implementation: lastuuid; Execution Time (s): 0.7196; Slowdown: 2.22" role="graphics-symbol" aria-roledescription="bar" d="M0,325.67465776856966h120.00000000000001v274.32534223143034h-120.00000000000001Z" fill="#d95f02"/></g></g><path class="foreground" aria-hidden="true" d="" display="none"/></g></g></g><path class="foreground" aria-hidden="true" d="" display="none"/></g><g transform="translate(406.66666666666663,289.7760654027809)"><path class="background" aria-hidden="true" d="M6,0L114.00000000000001,0C117.31149014696402,0,120.00000000000001,2.688509853036,120.00000000000001,6L120.00000000000001,310.2239345972191C120.00000000000001,310.2239345972191,120.00000000000001,310.2239345972191,120.00000000000001,310.2239345972191L0,310.2239345972191C0,310.2239345972191,0,310.2239345972191,0,310.2239345972191L0,6C0,2.688509853036,2.688509853036,0,6,0Z"/><g clip-path="url(#clip12)"><g class="mark-group role-scope" role="graphics-object" aria-roledescription="group mark container"><g transform="translate(0,-289.7760654027809)"><path class="background" aria-hidden="true" d="M0,0h120.00000000000001v0h-120.00000000000001Z"/><g><g class="mark-rect role-mark layer_0_marks" role="graphics-object" aria-roledescription="rect mark container"><path aria-label="Implementation: uuid&#xA;stdlib; Execution Time (seconds, lower=better): 0.813814099998; implementation: uuid; Execution Time (s): 0.8138; Slowdown: 2.51" role="graphics-symbol" aria-roledescription="bar" d="M0,289.7760654027809h120.00000000000001v310.2239345972191h-120.00000000000001Z" fill="#7570b3"/></g></g><path class="foreground" aria-hidden="true" d="" display="none"/></g></g></g><path class="foreground" aria-hidden="true" d="" display="none"/></g><g transform="translate(540,192.7460811697821)"><path class="background" aria-hidden="true" d="M6,0L114.00000000000001,0C117.31149014696402,0,120.00000000000001,2.688509853036,120.00000000000001,6L120.00000000000001,407.2539188302179C120.00000000000001,407.2539188302179,120.00000000000001,407.2539188302179,120.00000000000001,407.2539188302179L0,407.2539188302179C0,407.2539188302179,0,407.2539188302179,0,407.2539188302179L0,6C0,2.688509853036,2.688509853036,0,6,0Z"/><g clip-path="url(#clip13)"><g class="mark-group role-scope" role="graphics-object" aria-roledescription="group mark container"><g transform="translate(0,-192.7460811697821)"><path class="background" aria-hidden="true" d="M0,0h120.00000000000001v0h-120.00000000000001Z"/><g><g class="mark-rect role-mark layer_0_marks" role="graphics-object" aria-roledescription="rect mark container"><path aria-label="Implementation: uuid6&#xA;2025.0.1; Execution Time (seconds, lower=better): 1.068354; implementation: uuid6; Execution Time (s): 1.0684; Slowdown: 3.30" role="graphics-symbol" aria-roledescription="bar" d="M0,192.7460811697821h120.00000000000001v407.2539188302179h-120.00000000000001Z" fill="#e7298a"/></g></g><path class="foreground" aria-hidden="true" d="" display="none"/></g></g></g><path class="foreground" aria-hidden="true" d="" display="none"/></g><g transform="translate(673.3333333333334,23.07692307692313)"><path class="background" aria-hidden="true" d="M6,0L114.00000000000001,0C117.31149014696402,0,120.00000000000001,2.688509853036,120.00000000000001,6L120.00000000000001,576.9230769230769C120.00000000000001,576.9230769230769,120.00000000000001,576.9230769230769,120.00000000000001,576.9230769230769L0,576.9230769230769C0,576.9230769230769,0,576.9230769230769,0,576.9230769230769L0,6C0,2.688509853036,2.688509853036,0,6,0Z"/><g clip-path="url(#clip14)"><g class="mark-group role-scope" role="graphics-object" aria-roledescription="group mark container"><g transform="translate(0,-23.07692307692313)"><path class="background" aria-hidden="true" d="M0,0h120.00000000000001v0h-120.00000000000001Z"/><g><g class="mark-rect role-mark layer_0_marks" role="graphics-object" aria-roledescription="rect mark container"><path aria-label="Implementation: uuid_v7&#xA;1.0.0; Execution Time (seconds, lower=better): 1.5134491; implementation: uuid_v7; Execution Time (s): 1.5134; Slowdown: 4.68" role="graphics-symbol" aria-roledescription="bar" d="M0,23.07692307692313h120.00000000000001v576.9230769230769h-120.00000000000001Z" fill="#e6ab02"/></g></g><path class="foreground" aria-hidden="true" d="" display="none"/></g></g></g><path class="foreground" aria-hidden="true" d="" display="none"/></g></g><g class="mark-text role-mark layer_1_marks" role="graphics-object" aria-roledescription="text mark container"><text aria-label="Implementation: c_uuid_v7.compat&#xA;0.0.4.dev3+g9d03d357f; Execution Time (seconds, lower=better): 0.323590699998; implementation: c_uuid_v7.compat; label: 0.3236s (x1.00); Execution Time (s): 0.3236; Slowdown: 1.00" role="graphics-symbol" aria-roledescription="text mark" text-anchor="middle" transform="translate(66.66666666666663,472.6480205335767)" font-family="sans-serif" font-size="9px" font-weight="bold" fill="#1b9e77">0.3236s (x1.00)</text><text aria-label="Implementation: uuid_utils.compat&#xA;0.14.1; Execution Time (seconds, lower=better): 0.5416898; implementation: uuid_utils.compat; label: 0.5417s (x1.67); Execution Time (s): 0.5417; Slowdown: 1.67" role="graphics-symbol" aria-roledescription="text mark" text-anchor="middle" transform="translate(199.99999999999997,389.50917969144945)" font-family="sans-serif" font-size="9px" font-weight="bold" fill="#66a61e">0.5417s (x1.67)</text><text aria-label="Implementation: lastuuid&#xA;0.5.0; Execution Time (seconds, lower=better): 0.719640899999; implementation: lastuuid; label: 0.7196s (x2.22); Execution Time (s): 0.7196; Slowdown: 2.22" role="graphics-symbol" aria-roledescription="text mark" text-anchor="middle" transform="translate(333.3333333333333,321.67465776856966)" font-family="sans-serif" font-size="9px" font-weight="bold" fill="#d95f02">0.7196s (x2.22)</text><text aria-label="Implementation: uuid&#xA;stdlib; Execution Time (seconds, lower=better): 0.813814099998; implementation: uuid; label: 0.8138s (x2.51); Execution Time (s): 0.8138; Slowdown: 2.51" role="graphics-symbol" aria-roledescription="text mark" text-anchor="middle" transform="translate(466.66666666666663,285.7760654027809)" font-family="sans-serif" font-size="9px" font-weight="bold" fill="#7570b3">0.8138s (x2.51)</text><text aria-label="Implementation: uuid6&#xA;2025.0.1; Execution Time (seconds, lower=better): 1.068354; implementation: uuid6; label: 1.0684s (x3.30); Execution Time (s): 1.0684; Slowdown: 3.30" role="graphics-symbol" aria-roledescription="text mark" text-anchor="middle" transform="translate(600,188.7460811697821)" font-family="sans-serif" font-size="9px" font-weight="bold" fill="#e7298a">1.0684s (x3.30)</text><text aria-label="Implementation: uuid_v7&#xA;1.0.0; Execution Time (seconds, lower=better): 1.5134491; implementation: uuid_v7; label: 1.5134s (x4.68); Execution Time (s): 1.5134; Slowdown: 4.68" role="graphics-symbol" aria-roledescription="text mark" text-anchor="middle" transform="translate(733.3333333333334,19.07692307692313)" font-family="sans-serif" font-size="9px" font-weight="bold" fill="#e6ab02">1.5134s (x4.68)</text></g><g class="mark-group role-title"><g transform="translate(400,-31)"><path class="background" aria-hidden="true" d="M0,0h0v0h0Z" pointer-events="none"/><g><g class="mark-text role-title-text" role="graphics-symbol" aria-roledescription="title" aria-label="Title text 'UUID v7 benchmark (uuid7() stdlib-compatible APIs)'" pointer-events="none"><text text-anchor="middle" transform="translate(0,10)" font-family="sans-serif" font-size="13px" font-weight="bold" fill="#000" opacity="1">UUID v7 benchmark (uuid7() stdlib-compatible APIs)</text></g><g class="mark-text role-title-subtitle" role="graphics-symbol" aria-roledescription="subtitle" aria-label="Subtitle text 'Python: 3.14.3 (Windows 10) | CPU: 11th Gen Intel(R) Core(TM) i5-11300H @ 3.10GHz'" pointer-events="none"><text text-anchor="middle" transform="translate(0,25)" font-family="sans-serif" font-size="12px" fill="#000" opacity="1">Python: 3.14.3 (Windows 10) | CPU: 11th Gen Intel(R) Core(TM) i5-11300H @ 3.10GHz</text></g></g><path class="foreground" aria-hidden="true" d="" pointer-events="none" display="none"/></g></g></g><path class="foreground" aria-hidden="true" d="" display="none"/></g></g></g><defs><clipPath id="clip9"><path d="M6,0L114.00000000000001,0C117.31149014696402,0,120.00000000000001,2.688509853036,120.00000000000001,6L120.00000000000001,123.3519794664233C120.00000000000001,123.3519794664233,120.00000000000001,123.3519794664233,120.00000000000001,123.3519794664233L0,123.3519794664233C0,123.3519794664233,0,123.3519794664233,0,123.3519794664233L0,6C0,2.688509853036,2.688509853036,0,6,0Z"/></clipPath><clipPath id="clip10"><path d="M6,0L114.00000000000001,0C117.31149014696402,0,120.00000000000001,2.688509853036,120.00000000000001,6L120.00000000000001,206.49082030855055C120.00000000000001,206.49082030855055,120.00000000000001,206.49082030855055,120.00000000000001,206.49082030855055L0,206.49082030855055C0,206.49082030855055,0,206.49082030855055,0,206.49082030855055L0,6C0,2.688509853036,2.688509853036,0,6,0Z"/></clipPath><clipPath id="clip11"><path d="M6,0L114.00000000000001,0C117.31149014696402,0,120.00000000000001,2.688509853036,120.00000000000001,6L120.00000000000001,274.32534223143034C120.00000000000001,274.32534223143034,120.00000000000001,274.32534223143034,120.00000000000001,274.32534223143034L0,274.32534223143034C0,274.32534223143034,0,274.32534223143034,0,274.32534223143034L0,6C0,2.688509853036,2.688509853036,0,6,0Z"/></clipPath><clipPath id="clip12"><path d="M6,0L114.00000000000001,0C117.31149014696402,0,120.00000000000001,2.688509853036,120.00000000000001,6L120.00000000000001,310.2239345972191C120.00000000000001,310.2239345972191,120.00000000000001,310.2239345972191,120.00000000000001,310.2239345972191L0,310.2239345972191C0,310.2239345972191,0,310.2239345972191,0,310.2239345972191L0,6C0,2.688509853036,2.688509853036,0,6,0Z"/></clipPath><clipPath id="clip13"><path d="M6,0L114.00000000000001,0C117.31149014696402,0,120.00000000000001,2.688509853036,120.00000000000001,6L120.00000000000001,407.2539188302179C120.00000000000001,407.2539188302179,120.00000000000001,407.2539188302179,120.00000000000001,407.2539188302179L0,407.2539188302179C0,407.2539188302179,0,407.2539188302179,0,407.2539188302179L0,6C0,2.688509853036,2.688509853036,0,6,0Z"/></clipPath><clipPath id="clip14"><path d="M6,0L114.00000000000001,0C117.31149014696402,0,120.00000000000001,2.688509853036,120.00000000000001,6L120.00000000000001,576.9230769230769C120.00000000000001,576.9230769230769,120.00000000000001,576.9230769230769,120.00000000000001,576.9230769230769L0,576.9230769230769C0,576.9230769230769,0,576.9230769230769,0,576.9230769230769L0,6C0,2.688509853036,2.688509853036,0,6,0Z"/></clipPath></defs></svg>