<svg xmlns="http://www.w3.org/2000/svg" xmlns:xlink="http://www.w3.org/1999/xlink" version="1.1" class="marks" width="846" height="691" viewBox="0 0 846 691"><rect width="846" height="691" fill="white"/><g fill="none" stroke-miterlimit="10" transform="translate(41,40)"><g class="mark-group role-frame root" role="graphics-object" aria-roledescription="group mark container"><g transform="translate(0,0)"><path class="background" aria-hidden="true" d="M0.5,0.5h800v600h-800Z" stroke="#ddd"/><g><g class="mark-group role-axis" role="graphics-symbol" aria-roledescription="axis" aria-label="X-axis titled 'Implementation' for a discrete scale with 5 values: c_uuid_v7.compat&#xA;v0.1.dev29+geda9f2e1f.d20260323, uuid_utils.compat&#xA;v0.14.1, lastuuid&#xA;v0.5.0, uuid6&#xA;v2025.0.1, uuid_v7&#xA;v1.0.0"><g transform="translate(0.5,600.5)"><path class="background" aria-hidden="true" d="M0,0h0v0h0Z" pointer-events="none"/><g><g class="mark-rule role-axis-tick" pointer-events="none"><line transform="translate(80,0)" x2="0" y2="5" stroke="#888" stroke-width="1" opacity="1"/><line transform="translate(240,0)" x2="0" y2="5" stroke="#888" stroke-width="1" opacity="1"/><line transform="translate(400,0)" x2="0" y2="5" stroke="#888" stroke-width="1" opacity="1"/><line transform="translate(560,0)" x2="0" y2="5" stroke="#888" stroke-width="1" opacity="1"/><line transform="translate(720,0)" x2="0" y2="5" stroke="#888" stroke-width="1" opacity="1"/></g><g class="mark-text role-axis-label" pointer-events="none"><text text-anchor="middle" transform="translate(79.5,15)" font-family="sans-serif" font-size="10px" fill="#000" opacity="1"><tspan>c_uuid_v7.compat</tspan><tspan x="0" dy="14">v0.1.dev29+geda9f2e1f.d20260323</tspan></text><text text-anchor="middle" transform="translate(239.5,15)" font-family="sans-serif" font-size="10px" fill="#000" opacity="1"><tspan>uuid_utils.compat</tspan><tspan x="0" dy="14">v0.14.1</tspan></text><text text-anchor="middle" transform="translate(399.5,15)" font-family="sans-serif" font-size="10px" fill="#000" opacity="1"><tspan>lastuuid</tspan><tspan x="0" dy="14">v0.5.0</tspan></text><text text-anchor="middle" transform="translate(559.5,15)" font-family="sans-serif" font-size="10px" fill="#000" opacity="1"><tspan>uuid6</tspan><tspan x="0" dy="14">v2025.0.1</tspan></text><text text-anchor="middle" transform="translate(719.5,15)" font-family="sans-serif" font-size="10px" fill="#000" opacity="1"><tspan>uuid_v7</tspan><tspan x="0" dy="14">v1.0.0</tspan></text></g><g class="mark-rule role-axis-domain" pointer-events="none"><line transform="translate(0,0)" x2="800" y2="0" stroke="#888" stroke-width="1" opacity="1"/></g><g class="mark-text role-axis-title" pointer-events="none"><text text-anchor="middle" transform="translate(400,44)" font-family="sans-serif" font-size="11px" font-weight="bold" fill="#000" opacity="1">Implementation</text></g></g><path class="foreground" aria-hidden="true" d="" pointer-events="none" display="none"/></g></g><g class="mark-group role-axis" role="graphics-symbol" aria-roledescription="axis" aria-label="Y-axis titled 'Execution Time (seconds, lower=better)' for a linear scale with values from 0.0 to 1.8"><g transform="translate(0.5,0.5)"><path class="background" aria-hidden="true" d="M0,0h0v0h0Z" pointer-events="none"/><g><g class="mark-rule role-axis-tick" pointer-events="none"><line transform="translate(0,600)" x2="-5" y2="0" stroke="#888" stroke-width="1" opacity="1"/><line transform="translate(0,567)" x2="-5" y2="0" stroke="#888" stroke-width="1" opacity="1"/><line transform="translate(0,534)" x2="-5" y2="0" stroke="#888" stroke-width="1" opacity="1"/><line transform="translate(0,500)" x2="-5" y2="0" stroke="#888" stroke-width="1" opacity="1"/><line transform="translate(0,467)" x2="-5" y2="0" stroke="#888" stroke-width="1" opacity="1"/><line transform="translate(0,434)" x2="-5" y2="0" stroke="#888" stroke-width="1" opacity="1"/><line transform="translate(0,401)" x2="-5" y2="0" stroke="#888" stroke-width="1" opacity="1"/><line transform="translate(0,367)" x2="-5" y2="0" stroke="#888" stroke-width="1" opacity="1"/><line transform="translate(0,334)" x2="-5" y2="0" stroke="#888" stroke-width="1" opacity="1"/><line transform="translate(0,301)" x2="-5" y2="0" stroke="#888" stroke-width="1" opacity="1"/><line transform="translate(0,268)" x2="-5" y2="0" stroke="#888" stroke-width="1" opacity="1"/><line transform="translate(0,234)" x2="-5" y2="0" stroke="#888" stroke-width="1" opacity="1"/><line transform="translate(0,201)" x2="-5" y2="0" stroke="#888" stroke-width="1" opacity="1"/><line transform="translate(0,168)" x2="-5" y2="0" stroke="#888" stroke-width="1" opacity="1"/><line transform="translate(0,135)" x2="-5" y2="0" stroke="#888" stroke-width="1" opacity="1"/><line transform="translate(0,101)" x2="-5" y2="0" stroke="#888" stroke-width="1" opacity="1"/><line transform="translate(0,68)" x2="-5" y2="0" stroke="#888" stroke-width="1" opacity="1"/><line transform="translate(0,35)" x2="-5" y2="0" stroke="#888" stroke-width="1" opacity="1"/><line transform="translate(0,2)" x2="-5" y2="0" stroke="#888" stroke-width="1" opacity="1"/></g><g class="mark-text role-axis-label" pointer-events="none"><text text-anchor="end" transform="translate(-7,603)" font-family="sans-serif" font-size="10px" fill="#000" opacity="1">0.0</text><text text-anchor="end" transform="translate(-7,569.7628841286538)" font-family="sans-serif" font-size="10px" fill="#000" opacity="1">0.1</text><text text-anchor="end" transform="translate(-7,536.5257682573075)" font-family="sans-serif" font-size="10px" fill="#000" opacity="1">0.2</text><text text-anchor="end" transform="translate(-7,503.28865238596137)" font-family="sans-serif" font-size="10px" fill="#000" opacity="1">0.3</text><text text-anchor="end" transform="translate(-7,470.05153651461507)" font-family="sans-serif" font-size="10px" fill="#000" opacity="1">0.4</text><text text-anchor="end" transform="translate(-7,436.8144206432689)" font-family="sans-serif" font-size="10px" fill="#000" opacity="1">0.5</text><text text-anchor="end" transform="translate(-7,403.5773047719227)" font-family="sans-serif" font-size="10px" fill="#000" opacity="1">0.6</text><text text-anchor="end" transform="translate(-7,370.34018890057644)" font-family="sans-serif" font-size="10px" fill="#000" opacity="1">0.7</text><text text-anchor="end" transform="translate(-7,337.1030730292302)" font-family="sans-serif" font-size="10px" fill="#000" opacity="1">0.8</text><text text-anchor="end" transform="translate(-7,303.86595715788394)" font-family="sans-serif" font-size="10px" fill="#000" opacity="1">0.9</text><text text-anchor="end" transform="translate(-7,270.62884128653775)" font-family="sans-serif" font-size="10px" fill="#000" opacity="1">1.0</text><text text-anchor="end" transform="translate(-7,237.3917254151915)" font-family="sans-serif" font-size="10px" fill="#000" opacity="1">1.1</text><text text-anchor="end" transform="translate(-7,204.1546095438453)" font-family="sans-serif" font-size="10px" fill="#000" opacity="1">1.2</text><text text-anchor="end" transform="translate(-7,170.917493672499)" font-family="sans-serif" font-size="10px" fill="#000" opacity="1">1.3</text><text text-anchor="end" transform="translate(-7,137.68037780115284)" font-family="sans-serif" font-size="10px" fill="#000" opacity="1">1.4</text><text text-anchor="end" transform="translate(-7,104.44326192980661)" font-family="sans-serif" font-size="10px" fill="#000" opacity="1">1.5</text><text text-anchor="end" transform="translate(-7,71.20614605846038)" font-family="sans-serif" font-size="10px" fill="#000" opacity="1">1.6</text><text text-anchor="end" transform="translate(-7,37.96903018711415)" font-family="sans-serif" font-size="10px" fill="#000" opacity="1">1.7</text><text text-anchor="end" transform="translate(-7,4.731914315767913)" font-family="sans-serif" font-size="10px" fill="#000" opacity="1">1.8</text></g><g class="mark-rule role-axis-domain" pointer-events="none"><line transform="translate(0,600)" x2="0" y2="-600" stroke="#888" stroke-width="1" opacity="1"/></g><g class="mark-text role-axis-title" pointer-events="none"><text text-anchor="middle" transform="translate(-24.9013671875,300) rotate(-90) translate(0,-2)" font-family="sans-serif" font-size="11px" font-weight="bold" fill="#000" opacity="1">Execution Time (seconds, lower=better)</text></g></g><path class="foreground" aria-hidden="true" d="" pointer-events="none" display="none"/></g></g><g class="mark-group role-scope" role="graphics-object" aria-roledescription="group mark container"><g transform="translate(8,425.2158790560201)"><path class="background" aria-hidden="true" d="M6,0L138,0C141.311490146964,0,144,2.688509853036,144,6L144,174.78412094397987C144,174.78412094397987,144,174.78412094397987,144,174.78412094397987L0,174.78412094397987C0,174.78412094397987,0,174.78412094397987,0,174.78412094397987L0,6C0,2.688509853036,2.688509853036,0,6,0Z"/><g clip-path="url(#clip7)"><g class="mark-group role-scope" role="graphics-object" aria-roledescription="group mark container"><g transform="translate(0,-425.2158790560201)"><path class="background" aria-hidden="true" d="M0,0h144v0h-144Z"/><g><g class="mark-rect role-mark layer_0_marks" role="graphics-object" aria-roledescription="rect mark container"><path aria-label="Implementation: c_uuid_v7.compat&#xA;v0.1.dev29+geda9f2e1f.d20260323; Execution Time (seconds, lower=better): 0.5258703; implementation: c_uuid_v7.compat; Execution Time (s): 0.5259; Slowdown: 1.00" role="graphics-symbol" aria-roledescription="bar" d="M0,425.2158790560201h144v174.78412094397987h-144Z" fill="#1b9e77"/></g></g><path class="foreground" aria-hidden="true" d="" display="none"/></g></g></g><path class="foreground" aria-hidden="true" d="" display="none"/></g><g transform="translate(168,395.28080417225164)"><path class="background" aria-hidden="true" d="M6,0L138,0C141.311490146964,0,144,2.688509853036,144,6L144,204.71919582774836C144,204.71919582774836,144,204.71919582774836,144,204.71919582774836L0,204.71919582774836C0,204.71919582774836,0,204.71919582774836,0,204.71919582774836L0,6C0,2.688509853036,2.688509853036,0,6,0Z"/><g clip-path="url(#clip8)"><g class="mark-group role-scope" role="graphics-object" aria-roledescription="group mark container"><g transform="translate(0,-395.28080417225164)"><path class="background" aria-hidden="true" d="M0,0h144v0h-144Z"/><g><g class="mark-rect role-mark layer_0_marks" role="graphics-object" aria-roledescription="rect mark container"><path aria-label="Implementation: uuid_utils.compat&#xA;v0.14.1; Execution Time (seconds, lower=better): 0.6159355; implementation: uuid_utils.compat; Execution Time (s): 0.6159; Slowdown: 1.17" role="graphics-symbol" aria-roledescription="bar" d="M0,395.28080417225164h144v204.71919582774836h-144Z" fill="#e7298a"/></g></g><path class="foreground" aria-hidden="true" d="" display="none"/></g></g></g><path class="foreground" aria-hidden="true" d="" display="none"/></g><g transform="translate(328,347.98658193690744)"><path class="background" aria-hidden="true" d="M6,0L138,0C141.311490146964,0,144,2.688509853036,144,6L144,252.01341806309256C144,252.01341806309256,144,252.01341806309256,144,252.01341806309256L0,252.01341806309256C0,252.01341806309256,0,252.01341806309256,0,252.01341806309256L0,6C0,2.688509853036,2.688509853036,0,6,0Z"/><g clip-path="url(#clip9)"><g class="mark-group role-scope" role="graphics-object" aria-roledescription="group mark container"><g transform="translate(0,-347.98658193690744)"><path class="background" aria-hidden="true" d="M0,0h144v0h-144Z"/><g><g class="mark-rect role-mark layer_0_marks" role="graphics-object" aria-roledescription="rect mark container"><path aria-label="Implementation: lastuuid&#xA;v0.5.0; Execution Time (seconds, lower=better): 0.7582289; implementation: lastuuid; Execution Time (s): 0.7582; Slowdown: 1.44" role="graphics-symbol" aria-roledescription="bar" d="M0,347.98658193690744h144v252.01341806309256h-144Z" fill="#d95f02"/></g></g><path class="foreground" aria-hidden="true" d="" display="none"/></g></g></g><path class="foreground" aria-hidden="true" d="" display="none"/></g><g transform="translate(488,219.75702445180772)"><path class="background" aria-hidden="true" d="M6,0L138,0C141.311490146964,0,144,2.688509853036,144,6L144,380.24297554819225C144,380.24297554819225,144,380.24297554819225,144,380.24297554819225L0,380.24297554819225C0,380.24297554819225,0,380.24297554819225,0,380.24297554819225L0,6C0,2.688509853036,2.688509853036,0,6,0Z"/><g clip-path="url(#clip10)"><g class="mark-group role-scope" role="graphics-object" aria-roledescription="group mark container"><g transform="translate(0,-219.75702445180772)"><path class="background" aria-hidden="true" d="M0,0h144v0h-144Z"/><g><g class="mark-rect role-mark layer_0_marks" role="graphics-object" aria-roledescription="rect mark container"><path aria-label="Implementation: uuid6&#xA;v2025.0.1; Execution Time (seconds, lower=better): 1.1440312; implementation: uuid6; Execution Time (s): 1.1440; Slowdown: 2.18" role="graphics-symbol" aria-roledescription="bar" d="M0,219.75702445180772h144v380.24297554819225h-144Z" fill="#7570b3"/></g></g><path class="foreground" aria-hidden="true" d="" display="none"/></g></g></g><path class="foreground" aria-hidden="true" d="" display="none"/></g><g transform="translate(648,23.076923076923062)"><path class="background" aria-hidden="true" d="M6,0L138,0C141.311490146964,0,144,2.688509853036,144,6L144,576.9230769230769C144,576.9230769230769,144,576.9230769230769,144,576.9230769230769L0,576.9230769230769C0,576.9230769230769,0,576.9230769230769,0,576.9230769230769L0,6C0,2.688509853036,2.688509853036,0,6,0Z"/><g clip-path="url(#clip11)"><g class="mark-group role-scope" role="graphics-object" aria-roledescription="group mark container"><g transform="translate(0,-23.076923076923062)"><path class="background" aria-hidden="true" d="M0,0h144v0h-144Z"/><g><g class="mark-rect role-mark layer_0_marks" role="graphics-object" aria-roledescription="rect mark container"><path aria-label="Implementation: uuid_v7&#xA;v1.0.0; Execution Time (seconds, lower=better): 1.7357796; implementation: uuid_v7; Execution Time (s): 1.7358; Slowdown: 3.30" role="graphics-symbol" aria-roledescription="bar" d="M0,23.076923076923062h144v576.9230769230769h-144Z" fill="#66a61e"/></g></g><path class="foreground" aria-hidden="true" d="" display="none"/></g></g></g><path class="foreground" aria-hidden="true" d="" display="none"/></g></g><g class="mark-text role-mark layer_1_marks" role="graphics-object" aria-roledescription="text mark container"><text aria-label="Implementation: c_uuid_v7.compat&#xA;v0.1.dev29+geda9f2e1f.d20260323; Execution Time (seconds, lower=better): 0.5258703; implementation: c_uuid_v7.compat; label: 0.5259s (x1.00); Execution Time (s): 0.5259; Slowdown: 1.00" role="graphics-symbol" aria-roledescription="text mark" text-anchor="middle" transform="translate(80,421.2158790560201)" font-family="sans-serif" font-size="9px" font-weight="bold" fill="#1b9e77">0.5259s (x1.00)</text><text aria-label="Implementation: uuid_utils.compat&#xA;v0.14.1; Execution Time (seconds, lower=better): 0.6159355; implementation: uuid_utils.compat; label: 0.6159s (x1.17); Execution Time (s): 0.6159; Slowdown: 1.17" role="graphics-symbol" aria-roledescription="text mark" text-anchor="middle" transform="translate(240,391.28080417225164)" font-family="sans-serif" font-size="9px" font-weight="bold" fill="#e7298a">0.6159s (x1.17)</text><text aria-label="Implementation: lastuuid&#xA;v0.5.0; Execution Time (seconds, lower=better): 0.7582289; implementation: lastuuid; label: 0.7582s (x1.44); Execution Time (s): 0.7582; Slowdown: 1.44" role="graphics-symbol" aria-roledescription="text mark" text-anchor="middle" transform="translate(400,343.98658193690744)" font-family="sans-serif" font-size="9px" font-weight="bold" fill="#d95f02">0.7582s (x1.44)</text><text aria-label="Implementation: uuid6&#xA;v2025.0.1; Execution Time (seconds, lower=better): 1.1440312; implementation: uuid6; label: 1.1440s (x2.18); Execution Time (s): 1.1440; Slowdown: 2.18" role="graphics-symbol" aria-roledescription="text mark" text-anchor="middle" transform="translate(560,215.75702445180772)" font-family="sans-serif" font-size="9px" font-weight="bold" fill="#7570b3">1.1440s (x2.18)</text><text aria-label="Implementation: uuid_v7&#xA;v1.0.0; Execution Time (seconds, lower=better): 1.7357796; implementation: uuid_v7; label: 1.7358s (x3.30); Execution Time (s): 1.7358; Slowdown: 3.30" role="graphics-symbol" aria-roledescription="text mark" text-anchor="middle" transform="translate(720,19.076923076923062)" font-family="sans-serif" font-size="9px" font-weight="bold" fill="#66a61e">1.7358s (x3.30)</text></g><g class="mark-group role-title"><g transform="translate(400,-34.26808568423209)"><path class="background" aria-hidden="true" d="M0,0h0v0h0Z" pointer-events="none"/><g><g class="mark-text role-title-text" role="graphics-symbol" aria-roledescription="title" aria-label="Title text 'UUID v7 benchmark (uuid7() compact / stdlib-compatible APIs)'" pointer-events="none"><text text-anchor="middle" transform="translate(0,10)" font-family="sans-serif" font-size="13px" font-weight="bold" fill="#000" opacity="1">UUID v7 benchmark (uuid7() compact / stdlib-compatible APIs)</text></g><g class="mark-text role-title-subtitle" role="graphics-symbol" aria-roledescription="subtitle" aria-label="Subtitle text 'Python: 3.13.8 (Windows 10) | CPU: 11th Gen Intel(R) Core(TM) i5-11300H @ 3.10GHz'" pointer-events="none"><text text-anchor="middle" transform="translate(0,25)" font-family="sans-serif" font-size="12px" fill="#000" opacity="1">Python: 3.13.8 (Windows 10) | CPU: 11th Gen Intel(R) Core(TM) i5-11300H @ 3.10GHz</text></g></g><path class="foreground" aria-hidden="true" d="" pointer-events="none" display="none"/></g></g></g><path class="foreground" aria-hidden="true" d="" display="none"/></g></g></g><defs><clipPath id="clip7"><path d="M6,0L138,0C141.311490146964,0,144,2.688509853036,144,6L144,174.78412094397987C144,174.78412094397987,144,174.78412094397987,144,174.78412094397987L0,174.78412094397987C0,174.78412094397987,0,174.78412094397987,0,174.78412094397987L0,6C0,2.688509853036,2.688509853036,0,6,0Z"/></clipPath><clipPath id="clip8"><path d="M6,0L138,0C141.311490146964,0,144,2.688509853036,144,6L144,204.71919582774836C144,204.71919582774836,144,204.71919582774836,144,204.71919582774836L0,204.71919582774836C0,204.71919582774836,0,204.71919582774836,0,204.71919582774836L0,6C0,2.688509853036,2.688509853036,0,6,0Z"/></clipPath><clipPath id="clip9"><path d="M6,0L138,0C141.311490146964,0,144,2.688509853036,144,6L144,252.01341806309256C144,252.01341806309256,144,252.01341806309256,144,252.01341806309256L0,252.01341806309256C0,252.01341806309256,0,252.01341806309256,0,252.01341806309256L0,6C0,2.688509853036,2.688509853036,0,6,0Z"/></clipPath><clipPath id="clip10"><path d="M6,0L138,0C141.311490146964,0,144,2.688509853036,144,6L144,380.24297554819225C144,380.24297554819225,144,380.24297554819225,144,380.24297554819225L0,380.24297554819225C0,380.24297554819225,0,380.24297554819225,0,380.24297554819225L0,6C0,2.688509853036,2.688509853036,0,6,0Z"/></clipPath><clipPath id="clip11"><path d="M6,0L138,0C141.311490146964,0,144,2.688509853036,144,6L144,576.9230769230769C144,576.9230769230769,144,576.9230769230769,144,576.9230769230769L0,576.9230769230769C0,576.9230769230769,0,576.9230769230769,0,576.9230769230769L0,6C0,2.688509853036,2.688509853036,0,6,0Z"/></clipPath></defs></svg>