<svg xmlns="http://www.w3.org/2000/svg" xmlns:xlink="http://www.w3.org/1999/xlink" version="1.1" class="marks" width="846" height="687" viewBox="0 0 846 687"><rect width="846" height="687" fill="white"/><g fill="none" stroke-miterlimit="10" transform="translate(41,36)"><g class="mark-group role-frame root" role="graphics-object" aria-roledescription="group mark container"><g transform="translate(0,0)"><path class="background" aria-hidden="true" d="M0.5,0.5h800v600h-800Z" stroke="#ddd"/><g><g class="mark-group role-axis" role="graphics-symbol" aria-roledescription="axis" aria-label="X-axis titled 'Implementation' for a discrete scale with 5 values: c_uuid_v7.compat&#xA;v0.0.2.dev2+g7d5c93296.d20260323, uuid_utils.compat&#xA;v0.14.1, lastuuid&#xA;v0.5.0, uuid6&#xA;v2025.0.1, uuid_v7&#xA;v1.0.0"><g transform="translate(0.5,600.5)"><path class="background" aria-hidden="true" d="M0,0h0v0h0Z" pointer-events="none"/><g><g class="mark-rule role-axis-tick" pointer-events="none"><line transform="translate(80,0)" x2="0" y2="5" stroke="#888" stroke-width="1" opacity="1"/><line transform="translate(240,0)" x2="0" y2="5" stroke="#888" stroke-width="1" opacity="1"/><line transform="translate(400,0)" x2="0" y2="5" stroke="#888" stroke-width="1" opacity="1"/><line transform="translate(560,0)" x2="0" y2="5" stroke="#888" stroke-width="1" opacity="1"/><line transform="translate(720,0)" x2="0" y2="5" stroke="#888" stroke-width="1" opacity="1"/></g><g class="mark-text role-axis-label" pointer-events="none"><text text-anchor="middle" transform="translate(79.5,15)" font-family="sans-serif" font-size="10px" fill="#000" opacity="1"><tspan>c_uuid_v7.compat</tspan><tspan x="0" dy="14">v0.0.2.dev2+g7d5c93296.d20260323</tspan></text><text text-anchor="middle" transform="translate(239.5,15)" font-family="sans-serif" font-size="10px" fill="#000" opacity="1"><tspan>uuid_utils.compat</tspan><tspan x="0" dy="14">v0.14.1</tspan></text><text text-anchor="middle" transform="translate(399.5,15)" font-family="sans-serif" font-size="10px" fill="#000" opacity="1"><tspan>lastuuid</tspan><tspan x="0" dy="14">v0.5.0</tspan></text><text text-anchor="middle" transform="translate(559.5,15)" font-family="sans-serif" font-size="10px" fill="#000" opacity="1"><tspan>uuid6</tspan><tspan x="0" dy="14">v2025.0.1</tspan></text><text text-anchor="middle" transform="translate(719.5,15)" font-family="sans-serif" font-size="10px" fill="#000" opacity="1"><tspan>uuid_v7</tspan><tspan x="0" dy="14">v1.0.0</tspan></text></g><g class="mark-rule role-axis-domain" pointer-events="none"><line transform="translate(0,0)" x2="800" y2="0" stroke="#888" stroke-width="1" opacity="1"/></g><g class="mark-text role-axis-title" pointer-events="none"><text text-anchor="middle" transform="translate(400,44)" font-family="sans-serif" font-size="11px" font-weight="bold" fill="#000" opacity="1">Implementation</text></g></g><path class="foreground" aria-hidden="true" d="" pointer-events="none" display="none"/></g></g><g class="mark-group role-axis" role="graphics-symbol" aria-roledescription="axis" aria-label="Y-axis titled 'Execution Time (seconds, lower=better)' for a linear scale with values from 0.0 to 1.7"><g transform="translate(0.5,0.5)"><path class="background" aria-hidden="true" d="M0,0h0v0h0Z" pointer-events="none"/><g><g class="mark-rule role-axis-tick" pointer-events="none"><line transform="translate(0,600)" x2="-5" y2="0" stroke="#888" stroke-width="1" opacity="1"/><line transform="translate(0,565)" x2="-5" y2="0" stroke="#888" stroke-width="1" opacity="1"/><line transform="translate(0,530)" x2="-5" y2="0" stroke="#888" stroke-width="1" opacity="1"/><line transform="translate(0,496)" x2="-5" y2="0" stroke="#888" stroke-width="1" opacity="1"/><line transform="translate(0,461)" x2="-5" y2="0" stroke="#888" stroke-width="1" opacity="1"/><line transform="translate(0,426)" x2="-5" y2="0" stroke="#888" stroke-width="1" opacity="1"/><line transform="translate(0,391)" x2="-5" y2="0" stroke="#888" stroke-width="1" opacity="1"/><line transform="translate(0,357)" x2="-5" y2="0" stroke="#888" stroke-width="1" opacity="1"/><line transform="translate(0,322)" x2="-5" y2="0" stroke="#888" stroke-width="1" opacity="1"/><line transform="translate(0,287)" x2="-5" y2="0" stroke="#888" stroke-width="1" opacity="1"/><line transform="translate(0,252)" x2="-5" y2="0" stroke="#888" stroke-width="1" opacity="1"/><line transform="translate(0,217)" x2="-5" y2="0" stroke="#888" stroke-width="1" opacity="1"/><line transform="translate(0,183)" x2="-5" y2="0" stroke="#888" stroke-width="1" opacity="1"/><line transform="translate(0,148)" x2="-5" y2="0" stroke="#888" stroke-width="1" opacity="1"/><line transform="translate(0,113)" x2="-5" y2="0" stroke="#888" stroke-width="1" opacity="1"/><line transform="translate(0,78)" x2="-5" y2="0" stroke="#888" stroke-width="1" opacity="1"/><line transform="translate(0,43)" x2="-5" y2="0" stroke="#888" stroke-width="1" opacity="1"/><line transform="translate(0,9)" x2="-5" y2="0" stroke="#888" stroke-width="1" opacity="1"/></g><g class="mark-text role-axis-label" pointer-events="none"><text text-anchor="end" transform="translate(-7,603)" font-family="sans-serif" font-size="10px" fill="#000" opacity="1">0.0</text><text text-anchor="end" transform="translate(-7,568.2146346095327)" font-family="sans-serif" font-size="10px" fill="#000" opacity="1">0.1</text><text text-anchor="end" transform="translate(-7,533.4292692190654)" font-family="sans-serif" font-size="10px" fill="#000" opacity="1">0.2</text><text text-anchor="end" transform="translate(-7,498.6439038285981)" font-family="sans-serif" font-size="10px" fill="#000" opacity="1">0.3</text><text text-anchor="end" transform="translate(-7,463.8585384381309)" font-family="sans-serif" font-size="10px" fill="#000" opacity="1">0.4</text><text text-anchor="end" transform="translate(-7,429.0731730476636)" font-family="sans-serif" font-size="10px" fill="#000" opacity="1">0.5</text><text text-anchor="end" transform="translate(-7,394.2878076571963)" font-family="sans-serif" font-size="10px" fill="#000" opacity="1">0.6</text><text text-anchor="end" transform="translate(-7,359.502442266729)" font-family="sans-serif" font-size="10px" fill="#000" opacity="1">0.7</text><text text-anchor="end" transform="translate(-7,324.71707687626173)" font-family="sans-serif" font-size="10px" fill="#000" opacity="1">0.8</text><text text-anchor="end" transform="translate(-7,289.93171148579444)" font-family="sans-serif" font-size="10px" fill="#000" opacity="1">0.9</text><text text-anchor="end" transform="translate(-7,255.14634609532717)" font-family="sans-serif" font-size="10px" fill="#000" opacity="1">1.0</text><text text-anchor="end" transform="translate(-7,220.36098070485988)" font-family="sans-serif" font-size="10px" fill="#000" opacity="1">1.1</text><text text-anchor="end" transform="translate(-7,185.57561531439268)" font-family="sans-serif" font-size="10px" fill="#000" opacity="1">1.2</text><text text-anchor="end" transform="translate(-7,150.79024992392533)" font-family="sans-serif" font-size="10px" fill="#000" opacity="1">1.3</text><text text-anchor="end" transform="translate(-7,116.00488453345811)" font-family="sans-serif" font-size="10px" fill="#000" opacity="1">1.4</text><text text-anchor="end" transform="translate(-7,81.21951914299083)" font-family="sans-serif" font-size="10px" fill="#000" opacity="1">1.5</text><text text-anchor="end" transform="translate(-7,46.434153752523486)" font-family="sans-serif" font-size="10px" fill="#000" opacity="1">1.6</text><text text-anchor="end" transform="translate(-7,11.648788362056269)" font-family="sans-serif" font-size="10px" fill="#000" opacity="1">1.7</text></g><g class="mark-rule role-axis-domain" pointer-events="none"><line transform="translate(0,600)" x2="0" y2="-600" stroke="#888" stroke-width="1" opacity="1"/></g><g class="mark-text role-axis-title" pointer-events="none"><text text-anchor="middle" transform="translate(-24.9013671875,300) rotate(-90) translate(0,-2)" font-family="sans-serif" font-size="11px" font-weight="bold" fill="#000" opacity="1">Execution Time (seconds, lower=better)</text></g></g><path class="foreground" aria-hidden="true" d="" pointer-events="none" display="none"/></g></g><g class="mark-group role-scope" role="graphics-object" aria-roledescription="group mark container"><g transform="translate(8,451.13651580612367)"><path class="background" aria-hidden="true" d="M6,0L138,0C141.311490146964,0,144,2.688509853036,144,6L144,148.86348419387633C144,148.86348419387633,144,148.86348419387633,144,148.86348419387633L0,148.86348419387633C0,148.86348419387633,0,148.86348419387633,0,148.86348419387633L0,6C0,2.688509853036,2.688509853036,0,6,0Z"/><g clip-path="url(#clip8)"><g class="mark-group role-scope" role="graphics-object" aria-roledescription="group mark container"><g transform="translate(0,-451.13651580612367)"><path class="background" aria-hidden="true" d="M0,0h144v0h-144Z"/><g><g class="mark-rect role-mark layer_0_marks" role="graphics-object" aria-roledescription="rect mark container"><path aria-label="Implementation: c_uuid_v7.compat&#xA;v0.0.2.dev2+g7d5c93296.d20260323; Execution Time (seconds, lower=better): 0.427948600001; implementation: c_uuid_v7.compat; Execution Time (s): 0.4279; Slowdown: 1.00" role="graphics-symbol" aria-roledescription="bar" d="M0,451.13651580612367h144v148.86348419387633h-144Z" fill="#1b9e77"/></g></g><path class="foreground" aria-hidden="true" d="" display="none"/></g></g></g><path class="foreground" aria-hidden="true" d="" display="none"/></g><g transform="translate(168,407.2343235710906)"><path class="background" aria-hidden="true" d="M6,0L138,0C141.311490146964,0,144,2.688509853036,144,6L144,192.7656764289094C144,192.7656764289094,144,192.7656764289094,144,192.7656764289094L0,192.7656764289094C0,192.7656764289094,0,192.7656764289094,0,192.7656764289094L0,6C0,2.688509853036,2.688509853036,0,6,0Z"/><g clip-path="url(#clip9)"><g class="mark-group role-scope" role="graphics-object" aria-roledescription="group mark container"><g transform="translate(0,-407.2343235710906)"><path class="background" aria-hidden="true" d="M0,0h144v0h-144Z"/><g><g class="mark-rect role-mark layer_0_marks" role="graphics-object" aria-roledescription="rect mark container"><path aria-label="Implementation: uuid_utils.compat&#xA;v0.14.1; Execution Time (seconds, lower=better): 0.554157400002; implementation: uuid_utils.compat; Execution Time (s): 0.5542; Slowdown: 1.29" role="graphics-symbol" aria-roledescription="bar" d="M0,407.2343235710906h144v192.7656764289094h-144Z" fill="#e7298a"/></g></g><path class="foreground" aria-hidden="true" d="" display="none"/></g></g></g><path class="foreground" aria-hidden="true" d="" display="none"/></g><g transform="translate(328,339.97389761798087)"><path class="background" aria-hidden="true" d="M6,0L138,0C141.311490146964,0,144,2.688509853036,144,6L144,260.02610238201913C144,260.02610238201913,144,260.02610238201913,144,260.02610238201913L0,260.02610238201913C0,260.02610238201913,0,260.02610238201913,0,260.02610238201913L0,6C0,2.688509853036,2.688509853036,0,6,0Z"/><g clip-path="url(#clip10)"><g class="mark-group role-scope" role="graphics-object" aria-roledescription="group mark container"><g transform="translate(0,-339.97389761798087)"><path class="background" aria-hidden="true" d="M0,0h144v0h-144Z"/><g><g class="mark-rect role-mark layer_0_marks" role="graphics-object" aria-roledescription="rect mark container"><path aria-label="Implementation: lastuuid&#xA;v0.5.0; Execution Time (seconds, lower=better): 0.747515800002; implementation: lastuuid; Execution Time (s): 0.7475; Slowdown: 1.75" role="graphics-symbol" aria-roledescription="bar" d="M0,339.97389761798087h144v260.02610238201913h-144Z" fill="#d95f02"/></g></g><path class="foreground" aria-hidden="true" d="" display="none"/></g></g></g><path class="foreground" aria-hidden="true" d="" display="none"/></g><g transform="translate(488,206.84529517646243)"><path class="background" aria-hidden="true" d="M6,0L138,0C141.311490146964,0,144,2.688509853036,144,6L144,393.1547048235376C144,393.1547048235376,144,393.1547048235376,144,393.1547048235376L0,393.1547048235376C0,393.1547048235376,0,393.1547048235376,0,393.1547048235376L0,6C0,2.688509853036,2.688509853036,0,6,0Z"/><g clip-path="url(#clip11)"><g class="mark-group role-scope" role="graphics-object" aria-roledescription="group mark container"><g transform="translate(0,-206.84529517646243)"><path class="background" aria-hidden="true" d="M0,0h144v0h-144Z"/><g><g class="mark-rect role-mark layer_0_marks" role="graphics-object" aria-roledescription="rect mark container"><path aria-label="Implementation: uuid6&#xA;v2025.0.1; Execution Time (seconds, lower=better): 1.1302302; implementation: uuid6; Execution Time (s): 1.1302; Slowdown: 2.64" role="graphics-symbol" aria-roledescription="bar" d="M0,206.84529517646243h144v393.1547048235376h-144Z" fill="#7570b3"/></g></g><path class="foreground" aria-hidden="true" d="" display="none"/></g></g></g><path class="foreground" aria-hidden="true" d="" display="none"/></g><g transform="translate(648,23.07692307692313)"><path class="background" aria-hidden="true" d="M6,0L138,0C141.311490146964,0,144,2.688509853036,144,6L144,576.9230769230769C144,576.9230769230769,144,576.9230769230769,144,576.9230769230769L0,576.9230769230769C0,576.9230769230769,0,576.9230769230769,0,576.9230769230769L0,6C0,2.688509853036,2.688509853036,0,6,0Z"/><g clip-path="url(#clip12)"><g class="mark-group role-scope" role="graphics-object" aria-roledescription="group mark container"><g transform="translate(0,-23.07692307692313)"><path class="background" aria-hidden="true" d="M0,0h144v0h-144Z"/><g><g class="mark-rect role-mark layer_0_marks" role="graphics-object" aria-roledescription="rect mark container"><path aria-label="Implementation: uuid_v7&#xA;v1.0.0; Execution Time (seconds, lower=better): 1.6585224; implementation: uuid_v7; Execution Time (s): 1.6585; Slowdown: 3.88" role="graphics-symbol" aria-roledescription="bar" d="M0,23.07692307692313h144v576.9230769230769h-144Z" fill="#66a61e"/></g></g><path class="foreground" aria-hidden="true" d="" display="none"/></g></g></g><path class="foreground" aria-hidden="true" d="" display="none"/></g></g><g class="mark-text role-mark layer_1_marks" role="graphics-object" aria-roledescription="text mark container"><text aria-label="Implementation: c_uuid_v7.compat&#xA;v0.0.2.dev2+g7d5c93296.d20260323; Execution Time (seconds, lower=better): 0.427948600001; implementation: c_uuid_v7.compat; label: 0.4279s (x1.00); Execution Time (s): 0.4279; Slowdown: 1.00" role="graphics-symbol" aria-roledescription="text mark" text-anchor="middle" transform="translate(80,447.13651580612367)" font-family="sans-serif" font-size="9px" font-weight="bold" fill="#1b9e77">0.4279s (x1.00)</text><text aria-label="Implementation: uuid_utils.compat&#xA;v0.14.1; Execution Time (seconds, lower=better): 0.554157400002; implementation: uuid_utils.compat; label: 0.5542s (x1.29); Execution Time (s): 0.5542; Slowdown: 1.29" role="graphics-symbol" aria-roledescription="text mark" text-anchor="middle" transform="translate(240,403.2343235710906)" font-family="sans-serif" font-size="9px" font-weight="bold" fill="#e7298a">0.5542s (x1.29)</text><text aria-label="Implementation: lastuuid&#xA;v0.5.0; Execution Time (seconds, lower=better): 0.747515800002; implementation: lastuuid; label: 0.7475s (x1.75); Execution Time (s): 0.7475; Slowdown: 1.75" role="graphics-symbol" aria-roledescription="text mark" text-anchor="middle" transform="translate(400,335.97389761798087)" font-family="sans-serif" font-size="9px" font-weight="bold" fill="#d95f02">0.7475s (x1.75)</text><text aria-label="Implementation: uuid6&#xA;v2025.0.1; Execution Time (seconds, lower=better): 1.1302302; implementation: uuid6; label: 1.1302s (x2.64); Execution Time (s): 1.1302; Slowdown: 2.64" role="graphics-symbol" aria-roledescription="text mark" text-anchor="middle" transform="translate(560,202.84529517646243)" font-family="sans-serif" font-size="9px" font-weight="bold" fill="#7570b3">1.1302s (x2.64)</text><text aria-label="Implementation: uuid_v7&#xA;v1.0.0; Execution Time (seconds, lower=better): 1.6585224; implementation: uuid_v7; label: 1.6585s (x3.88); Execution Time (s): 1.6585; Slowdown: 3.88" role="graphics-symbol" aria-roledescription="text mark" text-anchor="middle" transform="translate(720,19.07692307692313)" font-family="sans-serif" font-size="9px" font-weight="bold" fill="#66a61e">1.6585s (x3.88)</text></g><g class="mark-group role-title"><g transform="translate(400,-31)"><path class="background" aria-hidden="true" d="M0,0h0v0h0Z" pointer-events="none"/><g><g class="mark-text role-title-text" role="graphics-symbol" aria-roledescription="title" aria-label="Title text 'UUID v7 benchmark (uuid7() compact / stdlib-compatible APIs)'" pointer-events="none"><text text-anchor="middle" transform="translate(0,10)" font-family="sans-serif" font-size="13px" font-weight="bold" fill="#000" opacity="1">UUID v7 benchmark (uuid7() compact / stdlib-compatible APIs)</text></g><g class="mark-text role-title-subtitle" role="graphics-symbol" aria-roledescription="subtitle" aria-label="Subtitle text 'Python: 3.13.8 (Windows 10) | CPU: 11th Gen Intel(R) Core(TM) i5-11300H @ 3.10GHz'" pointer-events="none"><text text-anchor="middle" transform="translate(0,25)" font-family="sans-serif" font-size="12px" fill="#000" opacity="1">Python: 3.13.8 (Windows 10) | CPU: 11th Gen Intel(R) Core(TM) i5-11300H @ 3.10GHz</text></g></g><path class="foreground" aria-hidden="true" d="" pointer-events="none" display="none"/></g></g></g><path class="foreground" aria-hidden="true" d="" display="none"/></g></g></g><defs><clipPath id="clip8"><path d="M6,0L138,0C141.311490146964,0,144,2.688509853036,144,6L144,148.86348419387633C144,148.86348419387633,144,148.86348419387633,144,148.86348419387633L0,148.86348419387633C0,148.86348419387633,0,148.86348419387633,0,148.86348419387633L0,6C0,2.688509853036,2.688509853036,0,6,0Z"/></clipPath><clipPath id="clip9"><path d="M6,0L138,0C141.311490146964,0,144,2.688509853036,144,6L144,192.7656764289094C144,192.7656764289094,144,192.7656764289094,144,192.7656764289094L0,192.7656764289094C0,192.7656764289094,0,192.7656764289094,0,192.7656764289094L0,6C0,2.688509853036,2.688509853036,0,6,0Z"/></clipPath><clipPath id="clip10"><path d="M6,0L138,0C141.311490146964,0,144,2.688509853036,144,6L144,260.02610238201913C144,260.02610238201913,144,260.02610238201913,144,260.02610238201913L0,260.02610238201913C0,260.02610238201913,0,260.02610238201913,0,260.02610238201913L0,6C0,2.688509853036,2.688509853036,0,6,0Z"/></clipPath><clipPath id="clip11"><path d="M6,0L138,0C141.311490146964,0,144,2.688509853036,144,6L144,393.1547048235376C144,393.1547048235376,144,393.1547048235376,144,393.1547048235376L0,393.1547048235376C0,393.1547048235376,0,393.1547048235376,0,393.1547048235376L0,6C0,2.688509853036,2.688509853036,0,6,0Z"/></clipPath><clipPath id="clip12"><path d="M6,0L138,0C141.311490146964,0,144,2.688509853036,144,6L144,576.9230769230769C144,576.9230769230769,144,576.9230769230769,144,576.9230769230769L0,576.9230769230769C0,576.9230769230769,0,576.9230769230769,0,576.9230769230769L0,6C0,2.688509853036,2.688509853036,0,6,0Z"/></clipPath></defs></svg>