<svg xmlns="http://www.w3.org/2000/svg" xmlns:xlink="http://www.w3.org/1999/xlink" version="1.1" class="marks" width="846" height="687" viewBox="0 0 846 687"><rect width="846" height="687" fill="white"/><g fill="none" stroke-miterlimit="10" transform="translate(41,36)"><g class="mark-group role-frame root" role="graphics-object" aria-roledescription="group mark container"><g transform="translate(0,0)"><path class="background" aria-hidden="true" d="M0.5,0.5h800v600h-800Z" stroke="#ddd"/><g><g class="mark-group role-axis" role="graphics-symbol" aria-roledescription="axis" aria-label="X-axis titled 'Implementation' for a discrete scale with 8 values: c_uuid_v7&#xA;0.0.6.dev64+g6eae0cdfb.d20260412, uuid_utils&#xA;0.14.1, fastuuid&#xA;0.14.0, UUIDv7gen&#xA;1.0.3, lastuuid&#xA;0.5.0, ending with uuid_v7&#xA;1.0.0"><g transform="translate(0.5,600.5)"><path class="background" aria-hidden="true" d="M0,0h0v0h0Z" pointer-events="none"/><g><g class="mark-rule role-axis-tick" pointer-events="none"><line transform="translate(50,0)" x2="0" y2="5" stroke="#888" stroke-width="1" opacity="1"/><line transform="translate(150,0)" x2="0" y2="5" stroke="#888" stroke-width="1" opacity="1"/><line transform="translate(250,0)" x2="0" y2="5" stroke="#888" stroke-width="1" opacity="1"/><line transform="translate(350,0)" x2="0" y2="5" stroke="#888" stroke-width="1" opacity="1"/><line transform="translate(450,0)" x2="0" y2="5" stroke="#888" stroke-width="1" opacity="1"/><line transform="translate(550,0)" x2="0" y2="5" stroke="#888" stroke-width="1" opacity="1"/><line transform="translate(650,0)" x2="0" y2="5" stroke="#888" stroke-width="1" opacity="1"/><line transform="translate(750,0)" x2="0" y2="5" stroke="#888" stroke-width="1" opacity="1"/></g><g class="mark-text role-axis-label" pointer-events="none"><text text-anchor="middle" transform="translate(49.5,15)" font-family="sans-serif" font-size="10px" fill="#000" opacity="1"><tspan>c_uuid_v7</tspan><tspan x="0" dy="14">0.0.6.dev64+g6eae0cdfb.d20260412</tspan></text><text text-anchor="middle" transform="translate(149.5,15)" font-family="sans-serif" font-size="10px" fill="#000" opacity="1"><tspan>uuid_utils</tspan><tspan x="0" dy="14">0.14.1</tspan></text><text text-anchor="middle" transform="translate(249.5,15)" font-family="sans-serif" font-size="10px" fill="#000" opacity="1"><tspan>fastuuid</tspan><tspan x="0" dy="14">0.14.0</tspan></text><text text-anchor="middle" transform="translate(349.5,15)" font-family="sans-serif" font-size="10px" fill="#000" opacity="1"><tspan>UUIDv7gen</tspan><tspan x="0" dy="14">1.0.3</tspan></text><text text-anchor="middle" transform="translate(449.5,15)" font-family="sans-serif" font-size="10px" fill="#000" opacity="1"><tspan>lastuuid</tspan><tspan x="0" dy="14">0.5.0</tspan></text><text text-anchor="middle" transform="translate(549.5,15)" font-family="sans-serif" font-size="10px" fill="#000" opacity="1"><tspan>uuid</tspan><tspan x="0" dy="14">stdlib</tspan></text><text text-anchor="middle" transform="translate(649.5,15)" font-family="sans-serif" font-size="10px" fill="#000" opacity="1"><tspan>uuid6</tspan><tspan x="0" dy="14">2025.0.1</tspan></text><text text-anchor="middle" transform="translate(749.5,15)" font-family="sans-serif" font-size="10px" fill="#000" opacity="1"><tspan>uuid_v7</tspan><tspan x="0" dy="14">1.0.0</tspan></text></g><g class="mark-rule role-axis-domain" pointer-events="none"><line transform="translate(0,0)" x2="800" y2="0" stroke="#888" stroke-width="1" opacity="1"/></g><g class="mark-text role-axis-title" pointer-events="none"><text text-anchor="middle" transform="translate(400,44)" font-family="sans-serif" font-size="11px" font-weight="bold" fill="#000" opacity="1">Implementation</text></g></g><path class="foreground" aria-hidden="true" d="" pointer-events="none" display="none"/></g></g><g class="mark-group role-axis" role="graphics-symbol" aria-roledescription="axis" aria-label="Y-axis titled 'Execution Time (seconds, lower=better)' for a linear scale with values from 0.0 to 1.5"><g transform="translate(0.5,0.5)"><path class="background" aria-hidden="true" d="M0,0h0v0h0Z" pointer-events="none"/><g><g class="mark-rule role-axis-tick" pointer-events="none"><line transform="translate(0,600)" x2="-5" y2="0" stroke="#888" stroke-width="1" opacity="1"/><line transform="translate(0,561)" x2="-5" y2="0" stroke="#888" stroke-width="1" opacity="1"/><line transform="translate(0,521)" x2="-5" y2="0" stroke="#888" stroke-width="1" opacity="1"/><line transform="translate(0,482)" x2="-5" y2="0" stroke="#888" stroke-width="1" opacity="1"/><line transform="translate(0,443)" x2="-5" y2="0" stroke="#888" stroke-width="1" opacity="1"/><line transform="translate(0,403)" x2="-5" y2="0" stroke="#888" stroke-width="1" opacity="1"/><line transform="translate(0,364)" x2="-5" y2="0" stroke="#888" stroke-width="1" opacity="1"/><line transform="translate(0,324)" x2="-5" y2="0" stroke="#888" stroke-width="1" opacity="1"/><line transform="translate(0,285)" x2="-5" y2="0" stroke="#888" stroke-width="1" opacity="1"/><line transform="translate(0,246)" x2="-5" y2="0" stroke="#888" stroke-width="1" opacity="1"/><line transform="translate(0,206)" x2="-5" y2="0" stroke="#888" stroke-width="1" opacity="1"/><line transform="translate(0,167)" x2="-5" y2="0" stroke="#888" stroke-width="1" opacity="1"/><line transform="translate(0,128)" x2="-5" y2="0" stroke="#888" stroke-width="1" opacity="1"/><line transform="translate(0,88)" x2="-5" y2="0" stroke="#888" stroke-width="1" opacity="1"/><line transform="translate(0,49)" x2="-5" y2="0" stroke="#888" stroke-width="1" opacity="1"/><line transform="translate(0,10)" x2="-5" y2="0" stroke="#888" stroke-width="1" opacity="1"/></g><g class="mark-text role-axis-label" pointer-events="none"><text text-anchor="end" transform="translate(-7,603)" font-family="sans-serif" font-size="10px" fill="#000" opacity="1">0.0</text><text text-anchor="end" transform="translate(-7,563.6423964837755)" font-family="sans-serif" font-size="10px" fill="#000" opacity="1">0.1</text><text text-anchor="end" transform="translate(-7,524.284792967551)" font-family="sans-serif" font-size="10px" fill="#000" opacity="1">0.2</text><text text-anchor="end" transform="translate(-7,484.9271894513265)" font-family="sans-serif" font-size="10px" fill="#000" opacity="1">0.3</text><text text-anchor="end" transform="translate(-7,445.569585935102)" font-family="sans-serif" font-size="10px" fill="#000" opacity="1">0.4</text><text text-anchor="end" transform="translate(-7,406.2119824188775)" font-family="sans-serif" font-size="10px" fill="#000" opacity="1">0.5</text><text text-anchor="end" transform="translate(-7,366.85437890265297)" font-family="sans-serif" font-size="10px" fill="#000" opacity="1">0.6</text><text text-anchor="end" transform="translate(-7,327.49677538642845)" font-family="sans-serif" font-size="10px" fill="#000" opacity="1">0.7</text><text text-anchor="end" transform="translate(-7,288.1391718702039)" font-family="sans-serif" font-size="10px" fill="#000" opacity="1">0.8</text><text text-anchor="end" transform="translate(-7,248.78156835397945)" font-family="sans-serif" font-size="10px" fill="#000" opacity="1">0.9</text><text text-anchor="end" transform="translate(-7,209.42396483775497)" font-family="sans-serif" font-size="10px" fill="#000" opacity="1">1.0</text><text text-anchor="end" transform="translate(-7,170.0663613215304)" font-family="sans-serif" font-size="10px" fill="#000" opacity="1">1.1</text><text text-anchor="end" transform="translate(-7,130.70875780530594)" font-family="sans-serif" font-size="10px" fill="#000" opacity="1">1.2</text><text text-anchor="end" transform="translate(-7,91.35115428908138)" font-family="sans-serif" font-size="10px" fill="#000" opacity="1">1.3</text><text text-anchor="end" transform="translate(-7,51.99355077285694)" font-family="sans-serif" font-size="10px" fill="#000" opacity="1">1.4</text><text text-anchor="end" transform="translate(-7,12.63594725663237)" font-family="sans-serif" font-size="10px" fill="#000" opacity="1">1.5</text></g><g class="mark-rule role-axis-domain" pointer-events="none"><line transform="translate(0,600)" x2="0" y2="-600" stroke="#888" stroke-width="1" opacity="1"/></g><g class="mark-text role-axis-title" pointer-events="none"><text text-anchor="middle" transform="translate(-24.9013671875,300) rotate(-90) translate(0,-2)" font-family="sans-serif" font-size="11px" font-weight="bold" fill="#000" opacity="1">Execution Time (seconds, lower=better)</text></g></g><path class="foreground" aria-hidden="true" d="" pointer-events="none" display="none"/></g></g><g class="mark-group role-scope" role="graphics-object" aria-roledescription="group mark container"><g transform="translate(5,594.6923123042435)"><path class="background" aria-hidden="true" d="M2.6538438478782496,0L87.34615615212175,0C88.81085244442673,0,90,1.1891475555732742,90,2.6538438478782496L90,5.307687695756499C90,5.307687695756499,90,5.307687695756499,90,5.307687695756499L0,5.307687695756499C0,5.307687695756499,0,5.307687695756499,0,5.307687695756499L0,2.6538438478782496C0,1.1891475555732742,1.1891475555732742,0,2.6538438478782496,0Z"/><g clip-path="url(#clip1)"><g class="mark-group role-scope" role="graphics-object" aria-roledescription="group mark container"><g transform="translate(0,-594.6923123042435)"><path class="background" aria-hidden="true" d="M0,0h90v0h-90Z"/><g><g class="mark-rect role-mark layer_0_marks" role="graphics-object" aria-roledescription="rect mark container"><path aria-label="Implementation: c_uuid_v7&#xA;0.0.6.dev64+g6eae0cdfb.d20260412; Execution Time (seconds, lower=better): 0.0134858000019; implementation: c_uuid_v7; Execution Time (s): 0.0135; Slowdown: 1.00" role="graphics-symbol" aria-roledescription="bar" d="M0,594.6923123042435h90v5.307687695756499h-90Z" fill="#d95f02"/></g></g><path class="foreground" aria-hidden="true" d="" display="none"/></g></g></g><path class="foreground" aria-hidden="true" d="" display="none"/></g><g transform="translate(105,576.1119812601536)"><path class="background" aria-hidden="true" d="M6,0L84,0C87.311490146964,0,90,2.688509853036,90,6L90,23.888018739846416C90,23.888018739846416,90,23.888018739846416,90,23.888018739846416L0,23.888018739846416C0,23.888018739846416,0,23.888018739846416,0,23.888018739846416L0,6C0,2.688509853036,2.688509853036,0,6,0Z"/><g clip-path="url(#clip2)"><g class="mark-group role-scope" role="graphics-object" aria-roledescription="group mark container"><g transform="translate(0,-576.1119812601536)"><path class="background" aria-hidden="true" d="M0,0h90v0h-90Z"/><g><g class="mark-rect role-mark layer_0_marks" role="graphics-object" aria-roledescription="rect mark container"><path aria-label="Implementation: uuid_utils&#xA;0.14.1; Execution Time (seconds, lower=better): 0.0606948000022; implementation: uuid_utils; Execution Time (s): 0.0607; Slowdown: 4.50" role="graphics-symbol" aria-roledescription="bar" d="M0,576.1119812601536h90v23.888018739846416h-90Z" fill="#a6761d"/></g></g><path class="foreground" aria-hidden="true" d="" display="none"/></g></g></g><path class="foreground" aria-hidden="true" d="" display="none"/></g><g transform="translate(205,574.8368736227482)"><path class="background" aria-hidden="true" d="M6,0L84,0C87.311490146964,0,90,2.688509853036,90,6L90,25.163126377251842C90,25.163126377251842,90,25.163126377251842,90,25.163126377251842L0,25.163126377251842C0,25.163126377251842,0,25.163126377251842,0,25.163126377251842L0,6C0,2.688509853036,2.688509853036,0,6,0Z"/><g clip-path="url(#clip3)"><g class="mark-group role-scope" role="graphics-object" aria-roledescription="group mark container"><g transform="translate(0,-574.8368736227482)"><path class="background" aria-hidden="true" d="M0,0h90v0h-90Z"/><g><g class="mark-rect role-mark layer_0_marks" role="graphics-object" aria-roledescription="rect mark container"><path aria-label="Implementation: fastuuid&#xA;0.14.0; Execution Time (seconds, lower=better): 0.0639345999989; implementation: fastuuid; Execution Time (s): 0.0639; Slowdown: 4.74" role="graphics-symbol" aria-roledescription="bar" d="M0,574.8368736227482h90v25.163126377251842h-90Z" fill="#7570b3"/></g></g><path class="foreground" aria-hidden="true" d="" display="none"/></g></g></g><path class="foreground" aria-hidden="true" d="" display="none"/></g><g transform="translate(305,354.3374348689773)"><path class="background" aria-hidden="true" d="M6,0L84,0C87.311490146964,0,90,2.688509853036,90,6L90,245.6625651310227C90,245.6625651310227,90,245.6625651310227,90,245.6625651310227L0,245.6625651310227C0,245.6625651310227,0,245.6625651310227,0,245.6625651310227L0,6C0,2.688509853036,2.688509853036,0,6,0Z"/><g clip-path="url(#clip4)"><g class="mark-group role-scope" role="graphics-object" aria-roledescription="group mark container"><g transform="translate(0,-354.3374348689773)"><path class="background" aria-hidden="true" d="M0,0h90v0h-90Z"/><g><g class="mark-rect role-mark layer_0_marks" role="graphics-object" aria-roledescription="rect mark container"><path aria-label="Implementation: UUIDv7gen&#xA;1.0.3; Execution Time (seconds, lower=better): 0.624180700001; implementation: UUIDv7gen; Execution Time (s): 0.6242; Slowdown: 46.28" role="graphics-symbol" aria-roledescription="bar" d="M0,354.3374348689773h90v245.6625651310227h-90Z" fill="#1b9e77"/></g></g><path class="foreground" aria-hidden="true" d="" display="none"/></g></g></g><path class="foreground" aria-hidden="true" d="" display="none"/></g><g transform="translate(405,320.1644478221728)"><path class="background" aria-hidden="true" d="M6,0L84,0C87.311490146964,0,90,2.688509853036,90,6L90,279.8355521778272C90,279.8355521778272,90,279.8355521778272,90,279.8355521778272L0,279.8355521778272C0,279.8355521778272,0,279.8355521778272,0,279.8355521778272L0,6C0,2.688509853036,2.688509853036,0,6,0Z"/><g clip-path="url(#clip5)"><g class="mark-group role-scope" role="graphics-object" aria-roledescription="group mark container"><g transform="translate(0,-320.1644478221728)"><path class="background" aria-hidden="true" d="M0,0h90v0h-90Z"/><g><g class="mark-rect role-mark layer_0_marks" role="graphics-object" aria-roledescription="rect mark container"><path aria-label="Implementation: lastuuid&#xA;0.5.0; Execution Time (seconds, lower=better): 0.711007599999; implementation: lastuuid; Execution Time (s): 0.7110; Slowdown: 52.72" role="graphics-symbol" aria-roledescription="bar" d="M0,320.1644478221728h90v279.8355521778272h-90Z" fill="#e7298a"/></g></g><path class="foreground" aria-hidden="true" d="" display="none"/></g></g></g><path class="foreground" aria-hidden="true" d="" display="none"/></g><g transform="translate(505,302.6482676608159)"><path class="background" aria-hidden="true" d="M6,0L84,0C87.311490146964,0,90,2.688509853036,90,6L90,297.3517323391841C90,297.3517323391841,90,297.3517323391841,90,297.3517323391841L0,297.3517323391841C0,297.3517323391841,0,297.3517323391841,0,297.3517323391841L0,6C0,2.688509853036,2.688509853036,0,6,0Z"/><g clip-path="url(#clip6)"><g class="mark-group role-scope" role="graphics-object" aria-roledescription="group mark container"><g transform="translate(0,-302.6482676608159)"><path class="background" aria-hidden="true" d="M0,0h90v0h-90Z"/><g><g class="mark-rect role-mark layer_0_marks" role="graphics-object" aria-roledescription="rect mark container"><path aria-label="Implementation: uuid&#xA;stdlib; Execution Time (seconds, lower=better): 0.755512800002; implementation: uuid; Execution Time (s): 0.7555; Slowdown: 56.02" role="graphics-symbol" aria-roledescription="bar" d="M0,302.6482676608159h90v297.3517323391841h-90Z" fill="#66a61e"/></g></g><path class="foreground" aria-hidden="true" d="" display="none"/></g></g></g><path class="foreground" aria-hidden="true" d="" display="none"/></g><g transform="translate(605,190.67753867701867)"><path class="background" aria-hidden="true" d="M6,0L84,0C87.311490146964,0,90,2.688509853036,90,6L90,409.3224613229813C90,409.3224613229813,90,409.3224613229813,90,409.3224613229813L0,409.3224613229813C0,409.3224613229813,0,409.3224613229813,0,409.3224613229813L0,6C0,2.688509853036,2.688509853036,0,6,0Z"/><g clip-path="url(#clip7)"><g class="mark-group role-scope" role="graphics-object" aria-roledescription="group mark container"><g transform="translate(0,-190.67753867701867)"><path class="background" aria-hidden="true" d="M0,0h90v0h-90Z"/><g><g class="mark-rect role-mark layer_0_marks" role="graphics-object" aria-roledescription="rect mark container"><path aria-label="Implementation: uuid6&#xA;2025.0.1; Execution Time (seconds, lower=better): 1.0400086; implementation: uuid6; Execution Time (s): 1.0400; Slowdown: 77.12" role="graphics-symbol" aria-roledescription="bar" d="M0,190.67753867701867h90v409.3224613229813h-90Z" fill="#e6ab02"/></g></g><path class="foreground" aria-hidden="true" d="" display="none"/></g></g></g><path class="foreground" aria-hidden="true" d="" display="none"/></g><g transform="translate(705,23.076923076923062)"><path class="background" aria-hidden="true" d="M6,0L84,0C87.311490146964,0,90,2.688509853036,90,6L90,576.9230769230769C90,576.9230769230769,90,576.9230769230769,90,576.9230769230769L0,576.9230769230769C0,576.9230769230769,0,576.9230769230769,0,576.9230769230769L0,6C0,2.688509853036,2.688509853036,0,6,0Z"/><g clip-path="url(#clip8)"><g class="mark-group role-scope" role="graphics-object" aria-roledescription="group mark container"><g transform="translate(0,-23.076923076923062)"><path class="background" aria-hidden="true" d="M0,0h90v0h-90Z"/><g><g class="mark-rect role-mark layer_0_marks" role="graphics-object" aria-roledescription="rect mark container"><path aria-label="Implementation: uuid_v7&#xA;1.0.0; Execution Time (seconds, lower=better): 1.4658491; implementation: uuid_v7; Execution Time (s): 1.4658; Slowdown: 108.70" role="graphics-symbol" aria-roledescription="bar" d="M0,23.076923076923062h90v576.9230769230769h-90Z" fill="#666666"/></g></g><path class="foreground" aria-hidden="true" d="" display="none"/></g></g></g><path class="foreground" aria-hidden="true" d="" display="none"/></g></g><g class="mark-text role-mark layer_1_marks" role="graphics-object" aria-roledescription="text mark container"><text aria-label="Implementation: c_uuid_v7&#xA;0.0.6.dev64+g6eae0cdfb.d20260412; Execution Time (seconds, lower=better): 0.0134858000019; implementation: c_uuid_v7; label: 0.0135s (x1.00); Execution Time (s): 0.0135; Slowdown: 1.00" role="graphics-symbol" aria-roledescription="text mark" text-anchor="middle" transform="translate(50,590.6923123042435)" font-family="sans-serif" font-size="9px" font-weight="bold" fill="#d95f02">0.0135s (x1.00)</text><text aria-label="Implementation: uuid_utils&#xA;0.14.1; Execution Time (seconds, lower=better): 0.0606948000022; implementation: uuid_utils; label: 0.0607s (x4.50); Execution Time (s): 0.0607; Slowdown: 4.50" role="graphics-symbol" aria-roledescription="text mark" text-anchor="middle" transform="translate(150,572.1119812601536)" font-family="sans-serif" font-size="9px" font-weight="bold" fill="#a6761d">0.0607s (x4.50)</text><text aria-label="Implementation: fastuuid&#xA;0.14.0; Execution Time (seconds, lower=better): 0.0639345999989; implementation: fastuuid; label: 0.0639s (x4.74); Execution Time (s): 0.0639; Slowdown: 4.74" role="graphics-symbol" aria-roledescription="text mark" text-anchor="middle" transform="translate(250,570.8368736227482)" font-family="sans-serif" font-size="9px" font-weight="bold" fill="#7570b3">0.0639s (x4.74)</text><text aria-label="Implementation: UUIDv7gen&#xA;1.0.3; Execution Time (seconds, lower=better): 0.624180700001; implementation: UUIDv7gen; label: 0.6242s (x46.28); Execution Time (s): 0.6242; Slowdown: 46.28" role="graphics-symbol" aria-roledescription="text mark" text-anchor="middle" transform="translate(350,350.3374348689773)" font-family="sans-serif" font-size="9px" font-weight="bold" fill="#1b9e77">0.6242s (x46.28)</text><text aria-label="Implementation: lastuuid&#xA;0.5.0; Execution Time (seconds, lower=better): 0.711007599999; implementation: lastuuid; label: 0.7110s (x52.72); Execution Time (s): 0.7110; Slowdown: 52.72" role="graphics-symbol" aria-roledescription="text mark" text-anchor="middle" transform="translate(450,316.1644478221728)" font-family="sans-serif" font-size="9px" font-weight="bold" fill="#e7298a">0.7110s (x52.72)</text><text aria-label="Implementation: uuid&#xA;stdlib; Execution Time (seconds, lower=better): 0.755512800002; implementation: uuid; label: 0.7555s (x56.02); Execution Time (s): 0.7555; Slowdown: 56.02" role="graphics-symbol" aria-roledescription="text mark" text-anchor="middle" transform="translate(550,298.6482676608159)" font-family="sans-serif" font-size="9px" font-weight="bold" fill="#66a61e">0.7555s (x56.02)</text><text aria-label="Implementation: uuid6&#xA;2025.0.1; Execution Time (seconds, lower=better): 1.0400086; implementation: uuid6; label: 1.0400s (x77.12); Execution Time (s): 1.0400; Slowdown: 77.12" role="graphics-symbol" aria-roledescription="text mark" text-anchor="middle" transform="translate(650,186.67753867701867)" font-family="sans-serif" font-size="9px" font-weight="bold" fill="#e6ab02">1.0400s (x77.12)</text><text aria-label="Implementation: uuid_v7&#xA;1.0.0; Execution Time (seconds, lower=better): 1.4658491; implementation: uuid_v7; label: 1.4658s (x108.70); Execution Time (s): 1.4658; Slowdown: 108.70" role="graphics-symbol" aria-roledescription="text mark" text-anchor="middle" transform="translate(750,19.076923076923062)" font-family="sans-serif" font-size="9px" font-weight="bold" fill="#666666">1.4658s (x108.70)</text></g><g class="mark-group role-title"><g transform="translate(400,-31)"><path class="background" aria-hidden="true" d="M0,0h0v0h0Z" pointer-events="none"/><g><g class="mark-text role-title-text" role="graphics-symbol" aria-roledescription="title" aria-label="Title text 'UUID v7 benchmark (uuid7() default APIs)'" pointer-events="none"><text text-anchor="middle" transform="translate(0,10)" font-family="sans-serif" font-size="13px" font-weight="bold" fill="#000" opacity="1">UUID v7 benchmark (uuid7() default APIs)</text></g><g class="mark-text role-title-subtitle" role="graphics-symbol" aria-roledescription="subtitle" aria-label="Subtitle text 'Python: 3.14.3 (Windows 10) | CPU: 11th Gen Intel(R) Core(TM) i5-11300H @ 3.10GHz'" pointer-events="none"><text text-anchor="middle" transform="translate(0,25)" font-family="sans-serif" font-size="12px" fill="#000" opacity="1">Python: 3.14.3 (Windows 10) | CPU: 11th Gen Intel(R) Core(TM) i5-11300H @ 3.10GHz</text></g></g><path class="foreground" aria-hidden="true" d="" pointer-events="none" display="none"/></g></g></g><path class="foreground" aria-hidden="true" d="" display="none"/></g></g></g><defs><clipPath id="clip1"><path d="M2.6538438478782496,0L87.34615615212175,0C88.81085244442673,0,90,1.1891475555732742,90,2.6538438478782496L90,5.307687695756499C90,5.307687695756499,90,5.307687695756499,90,5.307687695756499L0,5.307687695756499C0,5.307687695756499,0,5.307687695756499,0,5.307687695756499L0,2.6538438478782496C0,1.1891475555732742,1.1891475555732742,0,2.6538438478782496,0Z"/></clipPath><clipPath id="clip2"><path d="M6,0L84,0C87.311490146964,0,90,2.688509853036,90,6L90,23.888018739846416C90,23.888018739846416,90,23.888018739846416,90,23.888018739846416L0,23.888018739846416C0,23.888018739846416,0,23.888018739846416,0,23.888018739846416L0,6C0,2.688509853036,2.688509853036,0,6,0Z"/></clipPath><clipPath id="clip3"><path d="M6,0L84,0C87.311490146964,0,90,2.688509853036,90,6L90,25.163126377251842C90,25.163126377251842,90,25.163126377251842,90,25.163126377251842L0,25.163126377251842C0,25.163126377251842,0,25.163126377251842,0,25.163126377251842L0,6C0,2.688509853036,2.688509853036,0,6,0Z"/></clipPath><clipPath id="clip4"><path d="M6,0L84,0C87.311490146964,0,90,2.688509853036,90,6L90,245.6625651310227C90,245.6625651310227,90,245.6625651310227,90,245.6625651310227L0,245.6625651310227C0,245.6625651310227,0,245.6625651310227,0,245.6625651310227L0,6C0,2.688509853036,2.688509853036,0,6,0Z"/></clipPath><clipPath id="clip5"><path d="M6,0L84,0C87.311490146964,0,90,2.688509853036,90,6L90,279.8355521778272C90,279.8355521778272,90,279.8355521778272,90,279.8355521778272L0,279.8355521778272C0,279.8355521778272,0,279.8355521778272,0,279.8355521778272L0,6C0,2.688509853036,2.688509853036,0,6,0Z"/></clipPath><clipPath id="clip6"><path d="M6,0L84,0C87.311490146964,0,90,2.688509853036,90,6L90,297.3517323391841C90,297.3517323391841,90,297.3517323391841,90,297.3517323391841L0,297.3517323391841C0,297.3517323391841,0,297.3517323391841,0,297.3517323391841L0,6C0,2.688509853036,2.688509853036,0,6,0Z"/></clipPath><clipPath id="clip7"><path d="M6,0L84,0C87.311490146964,0,90,2.688509853036,90,6L90,409.3224613229813C90,409.3224613229813,90,409.3224613229813,90,409.3224613229813L0,409.3224613229813C0,409.3224613229813,0,409.3224613229813,0,409.3224613229813L0,6C0,2.688509853036,2.688509853036,0,6,0Z"/></clipPath><clipPath id="clip8"><path d="M6,0L84,0C87.311490146964,0,90,2.688509853036,90,6L90,576.9230769230769C90,576.9230769230769,90,576.9230769230769,90,576.9230769230769L0,576.9230769230769C0,576.9230769230769,0,576.9230769230769,0,576.9230769230769L0,6C0,2.688509853036,2.688509853036,0,6,0Z"/></clipPath></defs></svg>