<svg xmlns="http://www.w3.org/2000/svg" xmlns:xlink="http://www.w3.org/1999/xlink" version="1.1" class="marks" width="846" height="687" viewBox="0 0 846 687"><rect width="846" height="687" fill="white"/><g fill="none" stroke-miterlimit="10" transform="translate(41,36)"><g class="mark-group role-frame root" role="graphics-object" aria-roledescription="group mark container"><g transform="translate(0,0)"><path class="background" aria-hidden="true" d="M0.5,0.5h800v600h-800Z" stroke="#ddd"/><g><g class="mark-group role-axis" role="graphics-symbol" aria-roledescription="axis" aria-label="X-axis titled 'Implementation' for a discrete scale with 6 values: c_uuid_v7.compat&#xA;0.0.5.dev10+g59a045439, uuid_utils.compat&#xA;0.14.1, lastuuid&#xA;0.5.0, uuid&#xA;stdlib, uuid6&#xA;2025.0.1, uuid_v7&#xA;1.0.0"><g transform="translate(0.5,600.5)"><path class="background" aria-hidden="true" d="M0,0h0v0h0Z" pointer-events="none"/><g><g class="mark-rule role-axis-tick" pointer-events="none"><line transform="translate(66,0)" x2="0" y2="5" stroke="#888" stroke-width="1" opacity="1"/><line transform="translate(199,0)" x2="0" y2="5" stroke="#888" stroke-width="1" opacity="1"/><line transform="translate(333,0)" x2="0" y2="5" stroke="#888" stroke-width="1" opacity="1"/><line transform="translate(466,0)" x2="0" y2="5" stroke="#888" stroke-width="1" opacity="1"/><line transform="translate(600,0)" x2="0" y2="5" stroke="#888" stroke-width="1" opacity="1"/><line transform="translate(733,0)" x2="0" y2="5" stroke="#888" stroke-width="1" opacity="1"/></g><g class="mark-text role-axis-label" pointer-events="none"><text text-anchor="middle" transform="translate(66.16666666666663,15)" font-family="sans-serif" font-size="10px" fill="#000" opacity="1"><tspan>c_uuid_v7.compat</tspan><tspan x="0" dy="14">0.0.5.dev10+g59a045439</tspan></text><text text-anchor="middle" transform="translate(199.49999999999997,15)" font-family="sans-serif" font-size="10px" fill="#000" opacity="1"><tspan>uuid_utils.compat</tspan><tspan x="0" dy="14">0.14.1</tspan></text><text text-anchor="middle" transform="translate(332.8333333333333,15)" font-family="sans-serif" font-size="10px" fill="#000" opacity="1"><tspan>lastuuid</tspan><tspan x="0" dy="14">0.5.0</tspan></text><text text-anchor="middle" transform="translate(466.16666666666663,15)" font-family="sans-serif" font-size="10px" fill="#000" opacity="1"><tspan>uuid</tspan><tspan x="0" dy="14">stdlib</tspan></text><text text-anchor="middle" transform="translate(599.5,15)" font-family="sans-serif" font-size="10px" fill="#000" opacity="1"><tspan>uuid6</tspan><tspan x="0" dy="14">2025.0.1</tspan></text><text text-anchor="middle" transform="translate(732.8333333333334,15)" font-family="sans-serif" font-size="10px" fill="#000" opacity="1"><tspan>uuid_v7</tspan><tspan x="0" dy="14">1.0.0</tspan></text></g><g class="mark-rule role-axis-domain" pointer-events="none"><line transform="translate(0,0)" x2="800" y2="0" stroke="#888" stroke-width="1" opacity="1"/></g><g class="mark-text role-axis-title" pointer-events="none"><text text-anchor="middle" transform="translate(400,44)" font-family="sans-serif" font-size="11px" font-weight="bold" fill="#000" opacity="1">Implementation</text></g></g><path class="foreground" aria-hidden="true" d="" pointer-events="none" display="none"/></g></g><g class="mark-group role-axis" role="graphics-symbol" aria-roledescription="axis" aria-label="Y-axis titled 'Execution Time (seconds, lower=better)' for a linear scale with values from 0.0 to 1.5"><g transform="translate(0.5,0.5)"><path class="background" aria-hidden="true" d="M0,0h0v0h0Z" pointer-events="none"/><g><g class="mark-rule role-axis-tick" pointer-events="none"><line transform="translate(0,600)" x2="-5" y2="0" stroke="#888" stroke-width="1" opacity="1"/><line transform="translate(0,561)" x2="-5" y2="0" stroke="#888" stroke-width="1" opacity="1"/><line transform="translate(0,522)" x2="-5" y2="0" stroke="#888" stroke-width="1" opacity="1"/><line transform="translate(0,483)" x2="-5" y2="0" stroke="#888" stroke-width="1" opacity="1"/><line transform="translate(0,444)" x2="-5" y2="0" stroke="#888" stroke-width="1" opacity="1"/><line transform="translate(0,405)" x2="-5" y2="0" stroke="#888" stroke-width="1" opacity="1"/><line transform="translate(0,366)" x2="-5" y2="0" stroke="#888" stroke-width="1" opacity="1"/><line transform="translate(0,327)" x2="-5" y2="0" stroke="#888" stroke-width="1" opacity="1"/><line transform="translate(0,288)" x2="-5" y2="0" stroke="#888" stroke-width="1" opacity="1"/><line transform="translate(0,249)" x2="-5" y2="0" stroke="#888" stroke-width="1" opacity="1"/><line transform="translate(0,210)" x2="-5" y2="0" stroke="#888" stroke-width="1" opacity="1"/><line transform="translate(0,171)" x2="-5" y2="0" stroke="#888" stroke-width="1" opacity="1"/><line transform="translate(0,132)" x2="-5" y2="0" stroke="#888" stroke-width="1" opacity="1"/><line transform="translate(0,93)" x2="-5" y2="0" stroke="#888" stroke-width="1" opacity="1"/><line transform="translate(0,54)" x2="-5" y2="0" stroke="#888" stroke-width="1" opacity="1"/><line transform="translate(0,16)" x2="-5" y2="0" stroke="#888" stroke-width="1" opacity="1"/></g><g class="mark-text role-axis-label" pointer-events="none"><text text-anchor="end" transform="translate(-7,603)" font-family="sans-serif" font-size="10px" fill="#000" opacity="1">0.0</text><text text-anchor="end" transform="translate(-7,564.0338577900728)" font-family="sans-serif" font-size="10px" fill="#000" opacity="1">0.1</text><text text-anchor="end" transform="translate(-7,525.0677155801457)" font-family="sans-serif" font-size="10px" fill="#000" opacity="1">0.2</text><text text-anchor="end" transform="translate(-7,486.1015733702186)" font-family="sans-serif" font-size="10px" fill="#000" opacity="1">0.3</text><text text-anchor="end" transform="translate(-7,447.13543116029143)" font-family="sans-serif" font-size="10px" fill="#000" opacity="1">0.4</text><text text-anchor="end" transform="translate(-7,408.16928895036426)" font-family="sans-serif" font-size="10px" fill="#000" opacity="1">0.5</text><text text-anchor="end" transform="translate(-7,369.2031467404372)" font-family="sans-serif" font-size="10px" fill="#000" opacity="1">0.6</text><text text-anchor="end" transform="translate(-7,330.23700453051003)" font-family="sans-serif" font-size="10px" fill="#000" opacity="1">0.7</text><text text-anchor="end" transform="translate(-7,291.2708623205828)" font-family="sans-serif" font-size="10px" fill="#000" opacity="1">0.8</text><text text-anchor="end" transform="translate(-7,252.30472011065572)" font-family="sans-serif" font-size="10px" fill="#000" opacity="1">0.9</text><text text-anchor="end" transform="translate(-7,213.33857790072855)" font-family="sans-serif" font-size="10px" fill="#000" opacity="1">1.0</text><text text-anchor="end" transform="translate(-7,174.37243569080135)" font-family="sans-serif" font-size="10px" fill="#000" opacity="1">1.1</text><text text-anchor="end" transform="translate(-7,135.40629348087433)" font-family="sans-serif" font-size="10px" fill="#000" opacity="1">1.2</text><text text-anchor="end" transform="translate(-7,96.44015127094714)" font-family="sans-serif" font-size="10px" fill="#000" opacity="1">1.3</text><text text-anchor="end" transform="translate(-7,57.47400906102003)" font-family="sans-serif" font-size="10px" fill="#000" opacity="1">1.4</text><text text-anchor="end" transform="translate(-7,18.507866851092842)" font-family="sans-serif" font-size="10px" fill="#000" opacity="1">1.5</text></g><g class="mark-rule role-axis-domain" pointer-events="none"><line transform="translate(0,600)" x2="0" y2="-600" stroke="#888" stroke-width="1" opacity="1"/></g><g class="mark-text role-axis-title" pointer-events="none"><text text-anchor="middle" transform="translate(-24.9013671875,300) rotate(-90) translate(0,-2)" font-family="sans-serif" font-size="11px" font-weight="bold" fill="#000" opacity="1">Execution Time (seconds, lower=better)</text></g></g><path class="foreground" aria-hidden="true" d="" pointer-events="none" display="none"/></g></g><g class="mark-group role-scope" role="graphics-object" aria-roledescription="group mark container"><g transform="translate(6.666666666666629,461.503264202176)"><path class="background" aria-hidden="true" d="M6,0L114.00000000000001,0C117.31149014696402,0,120.00000000000001,2.688509853036,120.00000000000001,6L120.00000000000001,138.496735797824C120.00000000000001,138.496735797824,120.00000000000001,138.496735797824,120.00000000000001,138.496735797824L0,138.496735797824C0,138.496735797824,0,138.496735797824,0,138.496735797824L0,6C0,2.688509853036,2.688509853036,0,6,0Z"/><g clip-path="url(#clip9)"><g class="mark-group role-scope" role="graphics-object" aria-roledescription="group mark container"><g transform="translate(0,-461.503264202176)"><path class="background" aria-hidden="true" d="M0,0h120.00000000000001v0h-120.00000000000001Z"/><g><g class="mark-rect role-mark layer_0_marks" role="graphics-object" aria-roledescription="rect mark container"><path aria-label="Implementation: c_uuid_v7.compat&#xA;0.0.5.dev10+g59a045439; Execution Time (seconds, lower=better): 0.355428399998; implementation: c_uuid_v7.compat; Execution Time (s): 0.3554; Slowdown: 1.00" role="graphics-symbol" aria-roledescription="bar" d="M0,461.503264202176h120.00000000000001v138.496735797824h-120.00000000000001Z" fill="#1b9e77"/></g></g><path class="foreground" aria-hidden="true" d="" display="none"/></g></g></g><path class="foreground" aria-hidden="true" d="" display="none"/></g><g transform="translate(139.99999999999997,385.6415626454865)"><path class="background" aria-hidden="true" d="M6,0L114.00000000000001,0C117.31149014696402,0,120.00000000000001,2.688509853036,120.00000000000001,6L120.00000000000001,214.3584373545135C120.00000000000001,214.3584373545135,120.00000000000001,214.3584373545135,120.00000000000001,214.3584373545135L0,214.3584373545135C0,214.3584373545135,0,214.3584373545135,0,214.3584373545135L0,6C0,2.688509853036,2.688509853036,0,6,0Z"/><g clip-path="url(#clip10)"><g class="mark-group role-scope" role="graphics-object" aria-roledescription="group mark container"><g transform="translate(0,-385.6415626454865)"><path class="background" aria-hidden="true" d="M0,0h120.00000000000001v0h-120.00000000000001Z"/><g><g class="mark-rect role-mark layer_0_marks" role="graphics-object" aria-roledescription="rect mark container"><path aria-label="Implementation: uuid_utils.compat&#xA;0.14.1; Execution Time (seconds, lower=better): 0.550114600002; implementation: uuid_utils.compat; Execution Time (s): 0.5501; Slowdown: 1.55" role="graphics-symbol" aria-roledescription="bar" d="M0,385.6415626454865h120.00000000000001v214.3584373545135h-120.00000000000001Z" fill="#66a61e"/></g></g><path class="foreground" aria-hidden="true" d="" display="none"/></g></g></g><path class="foreground" aria-hidden="true" d="" display="none"/></g><g transform="translate(273.3333333333333,320.6187611408376)"><path class="background" aria-hidden="true" d="M6,0L114.00000000000001,0C117.31149014696402,0,120.00000000000001,2.688509853036,120.00000000000001,6L120.00000000000001,279.3812388591624C120.00000000000001,279.3812388591624,120.00000000000001,279.3812388591624,120.00000000000001,279.3812388591624L0,279.3812388591624C0,279.3812388591624,0,279.3812388591624,0,279.3812388591624L0,6C0,2.688509853036,2.688509853036,0,6,0Z"/><g clip-path="url(#clip11)"><g class="mark-group role-scope" role="graphics-object" aria-roledescription="group mark container"><g transform="translate(0,-320.6187611408376)"><path class="background" aria-hidden="true" d="M0,0h120.00000000000001v0h-120.00000000000001Z"/><g><g class="mark-rect role-mark layer_0_marks" role="graphics-object" aria-roledescription="rect mark container"><path aria-label="Implementation: lastuuid&#xA;0.5.0; Execution Time (seconds, lower=better): 0.7169846; implementation: lastuuid; Execution Time (s): 0.7170; Slowdown: 2.02" role="graphics-symbol" aria-roledescription="bar" d="M0,320.6187611408376h120.00000000000001v279.3812388591624h-120.00000000000001Z" fill="#d95f02"/></g></g><path class="foreground" aria-hidden="true" d="" display="none"/></g></g></g><path class="foreground" aria-hidden="true" d="" display="none"/></g><g transform="translate(406.66666666666663,314.08398322853384)"><path class="background" aria-hidden="true" d="M6,0L114.00000000000001,0C117.31149014696402,0,120.00000000000001,2.688509853036,120.00000000000001,6L120.00000000000001,285.91601677146616C120.00000000000001,285.91601677146616,120.00000000000001,285.91601677146616,120.00000000000001,285.91601677146616L0,285.91601677146616C0,285.91601677146616,0,285.91601677146616,0,285.91601677146616L0,6C0,2.688509853036,2.688509853036,0,6,0Z"/><g clip-path="url(#clip12)"><g class="mark-group role-scope" role="graphics-object" aria-roledescription="group mark container"><g transform="translate(0,-314.08398322853384)"><path class="background" aria-hidden="true" d="M0,0h120.00000000000001v0h-120.00000000000001Z"/><g><g class="mark-rect role-mark layer_0_marks" role="graphics-object" aria-roledescription="rect mark container"><path aria-label="Implementation: uuid&#xA;stdlib; Execution Time (seconds, lower=better): 0.733754999997; implementation: uuid; Execution Time (s): 0.7338; Slowdown: 2.06" role="graphics-symbol" aria-roledescription="bar" d="M0,314.08398322853384h120.00000000000001v285.91601677146616h-120.00000000000001Z" fill="#7570b3"/></g></g><path class="foreground" aria-hidden="true" d="" display="none"/></g></g></g><path class="foreground" aria-hidden="true" d="" display="none"/></g><g transform="translate(540,199.24803450414544)"><path class="background" aria-hidden="true" d="M6,0L114.00000000000001,0C117.31149014696402,0,120.00000000000001,2.688509853036,120.00000000000001,6L120.00000000000001,400.75196549585456C120.00000000000001,400.75196549585456,120.00000000000001,400.75196549585456,120.00000000000001,400.75196549585456L0,400.75196549585456C0,400.75196549585456,0,400.75196549585456,0,400.75196549585456L0,6C0,2.688509853036,2.688509853036,0,6,0Z"/><g clip-path="url(#clip13)"><g class="mark-group role-scope" role="graphics-object" aria-roledescription="group mark container"><g transform="translate(0,-199.24803450414544)"><path class="background" aria-hidden="true" d="M0,0h120.00000000000001v0h-120.00000000000001Z"/><g><g class="mark-rect role-mark layer_0_marks" role="graphics-object" aria-roledescription="rect mark container"><path aria-label="Implementation: uuid6&#xA;2025.0.1; Execution Time (seconds, lower=better): 1.028462; implementation: uuid6; Execution Time (s): 1.0285; Slowdown: 2.89" role="graphics-symbol" aria-roledescription="bar" d="M0,199.24803450414544h120.00000000000001v400.75196549585456h-120.00000000000001Z" fill="#e7298a"/></g></g><path class="foreground" aria-hidden="true" d="" display="none"/></g></g></g><path class="foreground" aria-hidden="true" d="" display="none"/></g><g transform="translate(673.3333333333334,23.07692307692313)"><path class="background" aria-hidden="true" d="M6,0L114.00000000000001,0C117.31149014696402,0,120.00000000000001,2.688509853036,120.00000000000001,6L120.00000000000001,576.9230769230769C120.00000000000001,576.9230769230769,120.00000000000001,576.9230769230769,120.00000000000001,576.9230769230769L0,576.9230769230769C0,576.9230769230769,0,576.9230769230769,0,576.9230769230769L0,6C0,2.688509853036,2.688509853036,0,6,0Z"/><g clip-path="url(#clip14)"><g class="mark-group role-scope" role="graphics-object" aria-roledescription="group mark container"><g transform="translate(0,-23.07692307692313)"><path class="background" aria-hidden="true" d="M0,0h120.00000000000001v0h-120.00000000000001Z"/><g><g class="mark-rect role-mark layer_0_marks" role="graphics-object" aria-roledescription="rect mark container"><path aria-label="Implementation: uuid_v7&#xA;1.0.0; Execution Time (seconds, lower=better): 1.4805753; implementation: uuid_v7; Execution Time (s): 1.4806; Slowdown: 4.17" role="graphics-symbol" aria-roledescription="bar" d="M0,23.07692307692313h120.00000000000001v576.9230769230769h-120.00000000000001Z" fill="#e6ab02"/></g></g><path class="foreground" aria-hidden="true" d="" display="none"/></g></g></g><path class="foreground" aria-hidden="true" d="" display="none"/></g></g><g class="mark-text role-mark layer_1_marks" role="graphics-object" aria-roledescription="text mark container"><text aria-label="Implementation: c_uuid_v7.compat&#xA;0.0.5.dev10+g59a045439; Execution Time (seconds, lower=better): 0.355428399998; implementation: c_uuid_v7.compat; label: 0.3554s (x1.00); Execution Time (s): 0.3554; Slowdown: 1.00" role="graphics-symbol" aria-roledescription="text mark" text-anchor="middle" transform="translate(66.66666666666663,457.503264202176)" font-family="sans-serif" font-size="9px" font-weight="bold" fill="#1b9e77">0.3554s (x1.00)</text><text aria-label="Implementation: uuid_utils.compat&#xA;0.14.1; Execution Time (seconds, lower=better): 0.550114600002; implementation: uuid_utils.compat; label: 0.5501s (x1.55); Execution Time (s): 0.5501; Slowdown: 1.55" role="graphics-symbol" aria-roledescription="text mark" text-anchor="middle" transform="translate(199.99999999999997,381.6415626454865)" font-family="sans-serif" font-size="9px" font-weight="bold" fill="#66a61e">0.5501s (x1.55)</text><text aria-label="Implementation: lastuuid&#xA;0.5.0; Execution Time (seconds, lower=better): 0.7169846; implementation: lastuuid; label: 0.7170s (x2.02); Execution Time (s): 0.7170; Slowdown: 2.02" role="graphics-symbol" aria-roledescription="text mark" text-anchor="middle" transform="translate(333.3333333333333,316.6187611408376)" font-family="sans-serif" font-size="9px" font-weight="bold" fill="#d95f02">0.7170s (x2.02)</text><text aria-label="Implementation: uuid&#xA;stdlib; Execution Time (seconds, lower=better): 0.733754999997; implementation: uuid; label: 0.7338s (x2.06); Execution Time (s): 0.7338; Slowdown: 2.06" role="graphics-symbol" aria-roledescription="text mark" text-anchor="middle" transform="translate(466.66666666666663,310.08398322853384)" font-family="sans-serif" font-size="9px" font-weight="bold" fill="#7570b3">0.7338s (x2.06)</text><text aria-label="Implementation: uuid6&#xA;2025.0.1; Execution Time (seconds, lower=better): 1.028462; implementation: uuid6; label: 1.0285s (x2.89); Execution Time (s): 1.0285; Slowdown: 2.89" role="graphics-symbol" aria-roledescription="text mark" text-anchor="middle" transform="translate(600,195.24803450414544)" font-family="sans-serif" font-size="9px" font-weight="bold" fill="#e7298a">1.0285s (x2.89)</text><text aria-label="Implementation: uuid_v7&#xA;1.0.0; Execution Time (seconds, lower=better): 1.4805753; implementation: uuid_v7; label: 1.4806s (x4.17); Execution Time (s): 1.4806; Slowdown: 4.17" role="graphics-symbol" aria-roledescription="text mark" text-anchor="middle" transform="translate(733.3333333333334,19.07692307692313)" font-family="sans-serif" font-size="9px" font-weight="bold" fill="#e6ab02">1.4806s (x4.17)</text></g><g class="mark-group role-title"><g transform="translate(400,-31)"><path class="background" aria-hidden="true" d="M0,0h0v0h0Z" pointer-events="none"/><g><g class="mark-text role-title-text" role="graphics-symbol" aria-roledescription="title" aria-label="Title text 'UUID v7 benchmark (uuid7() stdlib-compatible APIs)'" pointer-events="none"><text text-anchor="middle" transform="translate(0,10)" font-family="sans-serif" font-size="13px" font-weight="bold" fill="#000" opacity="1">UUID v7 benchmark (uuid7() stdlib-compatible APIs)</text></g><g class="mark-text role-title-subtitle" role="graphics-symbol" aria-roledescription="subtitle" aria-label="Subtitle text 'Python: 3.14.3 (Windows 10) | CPU: 11th Gen Intel(R) Core(TM) i5-11300H @ 3.10GHz'" pointer-events="none"><text text-anchor="middle" transform="translate(0,25)" font-family="sans-serif" font-size="12px" fill="#000" opacity="1">Python: 3.14.3 (Windows 10) | CPU: 11th Gen Intel(R) Core(TM) i5-11300H @ 3.10GHz</text></g></g><path class="foreground" aria-hidden="true" d="" pointer-events="none" display="none"/></g></g></g><path class="foreground" aria-hidden="true" d="" display="none"/></g></g></g><defs><clipPath id="clip9"><path d="M6,0L114.00000000000001,0C117.31149014696402,0,120.00000000000001,2.688509853036,120.00000000000001,6L120.00000000000001,138.496735797824C120.00000000000001,138.496735797824,120.00000000000001,138.496735797824,120.00000000000001,138.496735797824L0,138.496735797824C0,138.496735797824,0,138.496735797824,0,138.496735797824L0,6C0,2.688509853036,2.688509853036,0,6,0Z"/></clipPath><clipPath id="clip10"><path d="M6,0L114.00000000000001,0C117.31149014696402,0,120.00000000000001,2.688509853036,120.00000000000001,6L120.00000000000001,214.3584373545135C120.00000000000001,214.3584373545135,120.00000000000001,214.3584373545135,120.00000000000001,214.3584373545135L0,214.3584373545135C0,214.3584373545135,0,214.3584373545135,0,214.3584373545135L0,6C0,2.688509853036,2.688509853036,0,6,0Z"/></clipPath><clipPath id="clip11"><path d="M6,0L114.00000000000001,0C117.31149014696402,0,120.00000000000001,2.688509853036,120.00000000000001,6L120.00000000000001,279.3812388591624C120.00000000000001,279.3812388591624,120.00000000000001,279.3812388591624,120.00000000000001,279.3812388591624L0,279.3812388591624C0,279.3812388591624,0,279.3812388591624,0,279.3812388591624L0,6C0,2.688509853036,2.688509853036,0,6,0Z"/></clipPath><clipPath id="clip12"><path d="M6,0L114.00000000000001,0C117.31149014696402,0,120.00000000000001,2.688509853036,120.00000000000001,6L120.00000000000001,285.91601677146616C120.00000000000001,285.91601677146616,120.00000000000001,285.91601677146616,120.00000000000001,285.91601677146616L0,285.91601677146616C0,285.91601677146616,0,285.91601677146616,0,285.91601677146616L0,6C0,2.688509853036,2.688509853036,0,6,0Z"/></clipPath><clipPath id="clip13"><path d="M6,0L114.00000000000001,0C117.31149014696402,0,120.00000000000001,2.688509853036,120.00000000000001,6L120.00000000000001,400.75196549585456C120.00000000000001,400.75196549585456,120.00000000000001,400.75196549585456,120.00000000000001,400.75196549585456L0,400.75196549585456C0,400.75196549585456,0,400.75196549585456,0,400.75196549585456L0,6C0,2.688509853036,2.688509853036,0,6,0Z"/></clipPath><clipPath id="clip14"><path d="M6,0L114.00000000000001,0C117.31149014696402,0,120.00000000000001,2.688509853036,120.00000000000001,6L120.00000000000001,576.9230769230769C120.00000000000001,576.9230769230769,120.00000000000001,576.9230769230769,120.00000000000001,576.9230769230769L0,576.9230769230769C0,576.9230769230769,0,576.9230769230769,0,576.9230769230769L0,6C0,2.688509853036,2.688509853036,0,6,0Z"/></clipPath></defs></svg>